<svg xmlns="http://www.w3.org/2000/svg" width="580" height="220" viewBox="0 0 580 220" role="img" aria-label="JustMic — Virtual microphone with a studio chain, soundboard and voice changer."><title>JustMic — Virtual microphone with a studio chain, soundboard and voice changer.</title>
  <defs>
    <linearGradient id="bgc0" x1="0" y1="0" x2="1" y2="1"><stop offset="0" stop-color="#22ff88" stop-opacity=".10"/><stop offset=".6" stop-color="#0a0f0c" stop-opacity="1"/></linearGradient>
    <linearGradient id="shinec0" x1="0" y1="0" x2="1" y2="0"><stop offset="0" stop-color="#fff" stop-opacity="0"/><stop offset=".5" stop-color="#fff" stop-opacity=".35"/><stop offset="1" stop-color="#fff" stop-opacity="0"/></linearGradient>
    <clipPath id="icc0"><rect x="24" y="30" width="120" height="120" rx="10"/></clipPath>
    <pattern id="scanc0" width="3" height="3" patternUnits="userSpaceOnUse"><rect width="3" height="1" fill="#000" opacity=".25"/></pattern>
  </defs>
  <style>
    .ip{opacity:0;animation:ip .3s ease-out forwards}
    @keyframes ip{from{opacity:0;transform:scale(.4)}to{opacity:1;transform:none}}
    .ip{transform-box:fill-box;transform-origin:center}
    .led{animation:led 1.4s ease-in-out infinite}
    @keyframes led{50%{opacity:.25}}
    .arrow{animation:nudge 1.2s ease-in-out infinite}
    @keyframes nudge{50%{transform:translateX(5px)}}
    .run{animation:run 5s linear infinite}
    @keyframes run{to{stroke-dashoffset:-1584}}
    .shine{animation:shine 4.5s ease-in-out 0.0s infinite}
    @keyframes shine{0%{transform:translateX(-160px)}40%,100%{transform:translateX(200px)}}
  </style>
  <rect x="2" y="2" width="576" height="216" rx="16" fill="#050807"/>
  <rect x="2" y="2" width="576" height="216" rx="16" fill="url(#bgc0)" stroke="#22ff88" stroke-opacity=".25" stroke-width="2"/>
  <rect x="2" y="2" width="576" height="216" rx="16" fill="none" stroke="#22ff88" stroke-width="3" stroke-dasharray="90 1494" class="run" style="animation-delay:-0.0s"/>
  <rect x="24" y="30" width="120" height="120" rx="10" fill="#000" fill-opacity=".5" stroke="#22ff88" stroke-opacity=".35"/>
  <g clip-path="url(#icc0)"><rect x="51" y="46" width="11" height="11" fill="#fff" class="ip" style="animation-delay:0.24s"/><rect x="73" y="46" width="11" height="11" fill="#22ff88" class="ip" style="animation-delay:0.32s"/><rect x="84" y="46" width="11" height="11" fill="#22ff88" class="ip" style="animation-delay:0.36s"/><rect x="106" y="46" width="11" height="11" fill="#fff" class="ip" style="animation-delay:0.44s"/><rect x="40" y="57" width="11" height="11" fill="#fff" class="ip" style="animation-delay:0.24s"/><rect x="62" y="57" width="11" height="11" fill="#22ff88" class="ip" style="animation-delay:0.32s"/><rect x="73" y="57" width="11" height="11" fill="#22ff88" class="ip" style="animation-delay:0.36s"/><rect x="84" y="57" width="11" height="11" fill="#22ff88" class="ip" style="animation-delay:0.40s"/><rect x="95" y="57" width="11" height="11" fill="#22ff88" class="ip" style="animation-delay:0.44s"/><rect x="117" y="57" width="11" height="11" fill="#fff" class="ip" style="animation-delay:0.52s"/><rect x="40" y="68" width="11" height="11" fill="#fff" class="ip" style="animation-delay:0.28s"/><rect x="51" y="68" width="11" height="11" fill="#22ff88" class="ip" style="animation-delay:0.32s"/><rect x="73" y="68" width="11" height="11" fill="#22ff88" class="ip" style="animation-delay:0.40s"/><rect x="84" y="68" width="11" height="11" fill="#22ff88" class="ip" style="animation-delay:0.44s"/><rect x="106" y="68" width="11" height="11" fill="#22ff88" class="ip" style="animation-delay:0.52s"/><rect x="117" y="68" width="11" height="11" fill="#fff" class="ip" style="animation-delay:0.56s"/><rect x="51" y="79" width="11" height="11" fill="#22ff88" class="ip" style="animation-delay:0.36s"/><rect x="73" y="79" width="11" height="11" fill="#22ff88" class="ip" style="animation-delay:0.44s"/><rect x="84" y="79" width="11" height="11" fill="#22ff88" class="ip" style="animation-delay:0.48s"/><rect x="106" y="79" width="11" height="11" fill="#22ff88" class="ip" style="animation-delay:0.56s"/><rect x="51" y="90" width="11" height="11" fill="#22ff88" class="ip" style="animation-delay:0.40s"/><rect x="106" y="90" width="11" height="11" fill="#22ff88" class="ip" style="animation-delay:0.60s"/><rect x="62" y="101" width="11" height="11" fill="#22ff88" class="ip" style="animation-delay:0.48s"/><rect x="95" y="101" width="11" height="11" fill="#22ff88" class="ip" style="animation-delay:0.60s"/><rect x="40" y="112" width="11" height="11" fill="#22ff88" class="ip" style="animation-delay:0.44s"/><rect x="51" y="112" width="11" height="11" fill="#fff" class="ip" style="animation-delay:0.48s"/><rect x="106" y="112" width="11" height="11" fill="#fff" class="ip" style="animation-delay:0.68s"/><rect x="117" y="112" width="11" height="11" fill="#22ff88" class="ip" style="animation-delay:0.72s"/><rect x="51" y="123" width="11" height="11" fill="#22ff88" class="ip" style="animation-delay:0.52s"/><rect x="73" y="123" width="11" height="11" fill="#22ff88" class="ip" style="animation-delay:0.60s"/><rect x="84" y="123" width="11" height="11" fill="#22ff88" class="ip" style="animation-delay:0.64s"/><rect x="106" y="123" width="11" height="11" fill="#22ff88" class="ip" style="animation-delay:0.72s"/><rect x="24" y="30" width="120" height="120" fill="url(#scanc0)"/>
    <rect x="-40" y="0" width="60" height="200" fill="url(#shinec0)" transform="rotate(20)" class="shine"/></g>
  <text x="84" y="178" text-anchor="middle" font-family="ui-monospace,SFMono-Regular,'JetBrains Mono',Menlo,Consolas,monospace" font-size="11" fill="#6b8577">#01</text>
  <rect x="176" y="34" width="3" height="3" fill="#fff"/><rect x="179" y="34" width="3" height="3" fill="#fff"/><rect x="182" y="34" width="3" height="3" fill="#fff"/><rect x="179" y="37" width="3" height="3" fill="#fff"/><rect x="179" y="40" width="3" height="3" fill="#fff"/><rect x="179" y="43" width="3" height="3" fill="#fff"/><rect x="179" y="46" width="3" height="3" fill="#fff"/><rect x="170" y="49" width="3" height="3" fill="#fff"/><rect x="179" y="49" width="3" height="3" fill="#fff"/><rect x="173" y="52" width="3" height="3" fill="#fff"/><rect x="176" y="52" width="3" height="3" fill="#fff"/><rect x="188" y="34" width="3" height="3" fill="#fff"/><rect x="200" y="34" width="3" height="3" fill="#fff"/><rect x="188" y="37" width="3" height="3" fill="#fff"/><rect x="200" y="37" width="3" height="3" fill="#fff"/><rect x="188" y="40" width="3" height="3" fill="#fff"/><rect x="200" y="40" width="3" height="3" fill="#fff"/><rect x="188" y="43" width="3" height="3" fill="#fff"/><rect x="200" y="43" width="3" height="3" fill="#fff"/><rect x="188" y="46" width="3" height="3" fill="#fff"/><rect x="200" y="46" width="3" height="3" fill="#fff"/><rect x="188" y="49" width="3" height="3" fill="#fff"/><rect x="200" y="49" width="3" height="3" fill="#fff"/><rect x="191" y="52" width="3" height="3" fill="#fff"/><rect x="194" y="52" width="3" height="3" fill="#fff"/><rect x="197" y="52" width="3" height="3" fill="#fff"/><rect x="209" y="34" width="3" height="3" fill="#fff"/><rect x="212" y="34" width="3" height="3" fill="#fff"/><rect x="215" y="34" width="3" height="3" fill="#fff"/><rect x="218" y="34" width="3" height="3" fill="#fff"/><rect x="206" y="37" width="3" height="3" fill="#fff"/><rect x="206" y="40" width="3" height="3" fill="#fff"/><rect x="209" y="43" width="3" height="3" fill="#fff"/><rect x="212" y="43" width="3" height="3" fill="#fff"/><rect x="215" y="43" width="3" height="3" fill="#fff"/><rect x="218" y="46" width="3" height="3" fill="#fff"/><rect x="218" y="49" width="3" height="3" fill="#fff"/><rect x="206" y="52" width="3" height="3" fill="#fff"/><rect x="209" y="52" width="3" height="3" fill="#fff"/><rect x="212" y="52" width="3" height="3" fill="#fff"/><rect x="215" y="52" width="3" height="3" fill="#fff"/><rect x="224" y="34" width="3" height="3" fill="#fff"/><rect x="227" y="34" width="3" height="3" fill="#fff"/><rect x="230" y="34" width="3" height="3" fill="#fff"/><rect x="233" y="34" width="3" height="3" fill="#fff"/><rect x="236" y="34" width="3" height="3" fill="#fff"/><rect x="230" y="37" width="3" height="3" fill="#fff"/><rect x="230" y="40" width="3" height="3" fill="#fff"/><rect x="230" y="43" width="3" height="3" fill="#fff"/><rect x="230" y="46" width="3" height="3" fill="#fff"/><rect x="230" y="49" width="3" height="3" fill="#fff"/><rect x="230" y="52" width="3" height="3" fill="#fff"/><rect x="242" y="34" width="3" height="3" fill="#fff"/><rect x="254" y="34" width="3" height="3" fill="#fff"/><rect x="242" y="37" width="3" height="3" fill="#fff"/><rect x="245" y="37" width="3" height="3" fill="#fff"/><rect x="251" y="37" width="3" height="3" fill="#fff"/><rect x="254" y="37" width="3" height="3" fill="#fff"/><rect x="242" y="40" width="3" height="3" fill="#fff"/><rect x="248" y="40" width="3" height="3" fill="#fff"/><rect x="254" y="40" width="3" height="3" fill="#fff"/><rect x="242" y="43" width="3" height="3" fill="#fff"/><rect x="248" y="43" width="3" height="3" fill="#fff"/><rect x="254" y="43" width="3" height="3" fill="#fff"/><rect x="242" y="46" width="3" height="3" fill="#fff"/><rect x="254" y="46" width="3" height="3" fill="#fff"/><rect x="242" y="49" width="3" height="3" fill="#fff"/><rect x="254" y="49" width="3" height="3" fill="#fff"/><rect x="242" y="52" width="3" height="3" fill="#fff"/><rect x="254" y="52" width="3" height="3" fill="#fff"/><rect x="263" y="34" width="3" height="3" fill="#fff"/><rect x="266" y="34" width="3" height="3" fill="#fff"/><rect x="269" y="34" width="3" height="3" fill="#fff"/><rect x="266" y="37" width="3" height="3" fill="#fff"/><rect x="266" y="40" width="3" height="3" fill="#fff"/><rect x="266" y="43" width="3" height="3" fill="#fff"/><rect x="266" y="46" width="3" height="3" fill="#fff"/><rect x="266" y="49" width="3" height="3" fill="#fff"/><rect x="263" y="52" width="3" height="3" fill="#fff"/><rect x="266" y="52" width="3" height="3" fill="#fff"/><rect x="269" y="52" width="3" height="3" fill="#fff"/><rect x="281" y="34" width="3" height="3" fill="#fff"/><rect x="284" y="34" width="3" height="3" fill="#fff"/><rect x="287" y="34" width="3" height="3" fill="#fff"/><rect x="278" y="37" width="3" height="3" fill="#fff"/><rect x="290" y="37" width="3" height="3" fill="#fff"/><rect x="278" y="40" width="3" height="3" fill="#fff"/><rect x="278" y="43" width="3" height="3" fill="#fff"/><rect x="278" y="46" width="3" height="3" fill="#fff"/><rect x="278" y="49" width="3" height="3" fill="#fff"/><rect x="290" y="49" width="3" height="3" fill="#fff"/><rect x="281" y="52" width="3" height="3" fill="#fff"/><rect x="284" y="52" width="3" height="3" fill="#fff"/><rect x="287" y="52" width="3" height="3" fill="#fff"/>
  <circle cx="176" cy="75" r="4.5" fill="#22ff88" class="led"/>
  <text x="188" y="80" font-family="ui-monospace,SFMono-Regular,'JetBrains Mono',Menlo,Consolas,monospace" font-size="13" fill="#6b8577">v1.5.0 · shipped 7d ago</text>
  <text x="170" y="108" font-family="ui-monospace,SFMono-Regular,'JetBrains Mono',Menlo,Consolas,monospace" font-size="14.5" fill="#d7e4dc">Virtual microphone with a studio chain,</text><text x="170" y="130" font-family="ui-monospace,SFMono-Regular,'JetBrains Mono',Menlo,Consolas,monospace" font-size="14.5" fill="#d7e4dc">soundboard and voice changer.</text>
  <rect x="170" y="176" width="72.6" height="22" rx="4" fill="#22ff88" fill-opacity=".1" stroke="#22ff88" stroke-opacity=".4"/>
      <text x="206.3" y="191" text-anchor="middle" font-family="ui-monospace,SFMono-Regular,'JetBrains Mono',Menlo,Consolas,monospace" font-size="12" fill="#22ff88">desktop</text><rect x="250.6" y="176" width="57" height="22" rx="4" fill="#22ff88" fill-opacity=".1" stroke="#22ff88" stroke-opacity=".4"/>
      <text x="279.1" y="191" text-anchor="middle" font-family="ui-monospace,SFMono-Regular,'JetBrains Mono',Menlo,Consolas,monospace" font-size="12" fill="#22ff88">audio</text><rect x="315.6" y="176" width="41.4" height="22" rx="4" fill="#22ff88" fill-opacity=".1" stroke="#22ff88" stroke-opacity=".4"/>
      <text x="336.3" y="191" text-anchor="middle" font-family="ui-monospace,SFMono-Regular,'JetBrains Mono',Menlo,Consolas,monospace" font-size="12" fill="#22ff88">dsp</text>
  <g class="arrow"><text x="554" y="192" text-anchor="end" font-family="ui-monospace,SFMono-Regular,'JetBrains Mono',Menlo,Consolas,monospace" font-size="14" font-weight="700" fill="#22ff88">OPEN ▸</text></g></svg>