<svg xmlns="http://www.w3.org/2000/svg" width="580" height="220" viewBox="0 0 580 220" role="img" aria-label="Parpar Executor — Mission control for game servers."><title>Parpar Executor — Mission control for game servers.</title>
  <defs>
    <linearGradient id="bgc2" x1="0" y1="0" x2="1" y2="1"><stop offset="0" stop-color="#a78bfa" stop-opacity="0.08"/><stop offset=".6" stop-color="#ffffff" stop-opacity="1"/></linearGradient>
    <linearGradient id="shinec2" x1="0" y1="0" x2="1" y2="0"><stop offset="0" stop-color="#fff" stop-opacity="0"/><stop offset=".5" stop-color="#fff" stop-opacity="0.45"/><stop offset="1" stop-color="#fff" stop-opacity="0"/></linearGradient>
    <clipPath id="icc2"><rect x="24" y="30" width="120" height="120" rx="10"/></clipPath>
    <pattern id="scanc2" width="3" height="3" patternUnits="userSpaceOnUse"><rect width="3" height="1" fill="#000" opacity="0.08"/></pattern>
    <mask id="dzc2" maskUnits="userSpaceOnUse" x="24" y="30" width="120" height="120"><rect x="24" y="30" width="15" height="15" fill="#fff" opacity="0"><animate attributeName="opacity" values="0;1;0;0" keyTimes="0;0.5100;0.9748;1" dur="12s" begin="1.5s" calcMode="discrete" repeatCount="indefinite"/></rect><rect x="39" y="30" width="15" height="15" fill="#fff" opacity="0"><animate attributeName="opacity" values="0;1;0;0" keyTimes="0;0.5025;0.9524;1" dur="12s" begin="1.5s" calcMode="discrete" repeatCount="indefinite"/></rect><rect x="54" y="30" width="15" height="15" fill="#fff" opacity="0"><animate attributeName="opacity" values="0;1;0;0" keyTimes="0;0.5486;0.9780;1" dur="12s" begin="1.5s" calcMode="discrete" repeatCount="indefinite"/></rect><rect x="69" y="30" width="15" height="15" fill="#fff" opacity="0"><animate attributeName="opacity" values="0;1;0;0" keyTimes="0;0.5163;0.9532;1" dur="12s" begin="1.5s" calcMode="discrete" repeatCount="indefinite"/></rect><rect x="84" y="30" width="15" height="15" fill="#fff" opacity="0"><animate attributeName="opacity" values="0;1;0;0" keyTimes="0;0.5498;0.9524;1" dur="12s" begin="1.5s" calcMode="discrete" repeatCount="indefinite"/></rect><rect x="99" y="30" width="15" height="15" fill="#fff" opacity="0"><animate attributeName="opacity" values="0;1;0;0" keyTimes="0;0.5344;0.9535;1" dur="12s" begin="1.5s" calcMode="discrete" repeatCount="indefinite"/></rect><rect x="114" y="30" width="15" height="15" fill="#fff" opacity="0"><animate attributeName="opacity" values="0;1;0;0" keyTimes="0;0.5426;0.9835;1" dur="12s" begin="1.5s" calcMode="discrete" repeatCount="indefinite"/></rect><rect x="129" y="30" width="15" height="15" fill="#fff" opacity="0"><animate attributeName="opacity" values="0;1;0;0" keyTimes="0;0.5483;0.9769;1" dur="12s" begin="1.5s" calcMode="discrete" repeatCount="indefinite"/></rect><rect x="24" y="45" width="15" height="15" fill="#fff" opacity="0"><animate attributeName="opacity" values="0;1;0;0" keyTimes="0;0.5439;0.9688;1" dur="12s" begin="1.5s" calcMode="discrete" repeatCount="indefinite"/></rect><rect x="39" y="45" width="15" height="15" fill="#fff" opacity="0"><animate attributeName="opacity" values="0;1;0;0" keyTimes="0;0.5204;0.9807;1" dur="12s" begin="1.5s" calcMode="discrete" repeatCount="indefinite"/></rect><rect x="54" y="45" width="15" height="15" fill="#fff" opacity="0"><animate attributeName="opacity" values="0;1;0;0" keyTimes="0;0.5074;0.9893;1" dur="12s" begin="1.5s" calcMode="discrete" repeatCount="indefinite"/></rect><rect x="69" y="45" width="15" height="15" fill="#fff" opacity="0"><animate attributeName="opacity" values="0;1;0;0" keyTimes="0;0.5481;0.9687;1" dur="12s" begin="1.5s" calcMode="discrete" repeatCount="indefinite"/></rect><rect x="84" y="45" width="15" height="15" fill="#fff" opacity="0"><animate attributeName="opacity" values="0;1;0;0" keyTimes="0;0.5055;0.9770;1" dur="12s" begin="1.5s" calcMode="discrete" repeatCount="indefinite"/></rect><rect x="99" y="45" width="15" height="15" fill="#fff" opacity="0"><animate attributeName="opacity" values="0;1;0;0" keyTimes="0;0.5342;0.9625;1" dur="12s" begin="1.5s" calcMode="discrete" repeatCount="indefinite"/></rect><rect x="114" y="45" width="15" height="15" fill="#fff" opacity="0"><animate attributeName="opacity" values="0;1;0;0" keyTimes="0;0.5249;0.9806;1" dur="12s" begin="1.5s" calcMode="discrete" repeatCount="indefinite"/></rect><rect x="129" y="45" width="15" height="15" fill="#fff" opacity="0"><animate attributeName="opacity" values="0;1;0;0" keyTimes="0;0.5432;0.9709;1" dur="12s" begin="1.5s" calcMode="discrete" repeatCount="indefinite"/></rect><rect x="24" y="60" width="15" height="15" fill="#fff" opacity="0"><animate attributeName="opacity" values="0;1;0;0" keyTimes="0;0.5151;0.9595;1" dur="12s" begin="1.5s" calcMode="discrete" repeatCount="indefinite"/></rect><rect x="39" y="60" width="15" height="15" fill="#fff" opacity="0"><animate attributeName="opacity" values="0;1;0;0" keyTimes="0;0.5425;0.9919;1" dur="12s" begin="1.5s" calcMode="discrete" repeatCount="indefinite"/></rect><rect x="54" y="60" width="15" height="15" fill="#fff" opacity="0"><animate attributeName="opacity" values="0;1;0;0" keyTimes="0;0.5142;0.9885;1" dur="12s" begin="1.5s" calcMode="discrete" repeatCount="indefinite"/></rect><rect x="69" y="60" width="15" height="15" fill="#fff" opacity="0"><animate attributeName="opacity" values="0;1;0;0" keyTimes="0;0.5044;0.9698;1" dur="12s" begin="1.5s" calcMode="discrete" repeatCount="indefinite"/></rect><rect x="84" y="60" width="15" height="15" fill="#fff" opacity="0"><animate attributeName="opacity" values="0;1;0;0" keyTimes="0;0.5023;0.9583;1" dur="12s" begin="1.5s" calcMode="discrete" repeatCount="indefinite"/></rect><rect x="99" y="60" width="15" height="15" fill="#fff" opacity="0"><animate attributeName="opacity" values="0;1;0;0" keyTimes="0;0.5070;0.9614;1" dur="12s" begin="1.5s" calcMode="discrete" repeatCount="indefinite"/></rect><rect x="114" y="60" width="15" height="15" fill="#fff" opacity="0"><animate attributeName="opacity" values="0;1;0;0" keyTimes="0;0.5483;0.9723;1" dur="12s" begin="1.5s" calcMode="discrete" repeatCount="indefinite"/></rect><rect x="129" y="60" width="15" height="15" fill="#fff" opacity="0"><animate attributeName="opacity" values="0;1;0;0" keyTimes="0;0.5271;0.9502;1" dur="12s" begin="1.5s" calcMode="discrete" repeatCount="indefinite"/></rect><rect x="24" y="75" width="15" height="15" fill="#fff" opacity="0"><animate attributeName="opacity" values="0;1;0;0" keyTimes="0;0.5099;0.9561;1" dur="12s" begin="1.5s" calcMode="discrete" repeatCount="indefinite"/></rect><rect x="39" y="75" width="15" height="15" fill="#fff" opacity="0"><animate attributeName="opacity" values="0;1;0;0" keyTimes="0;0.5416;0.9678;1" dur="12s" begin="1.5s" calcMode="discrete" repeatCount="indefinite"/></rect><rect x="54" y="75" width="15" height="15" fill="#fff" opacity="0"><animate attributeName="opacity" values="0;1;0;0" keyTimes="0;0.5177;0.9542;1" dur="12s" begin="1.5s" calcMode="discrete" repeatCount="indefinite"/></rect><rect x="69" y="75" width="15" height="15" fill="#fff" opacity="0"><animate attributeName="opacity" values="0;1;0;0" keyTimes="0;0.5064;0.9938;1" dur="12s" begin="1.5s" calcMode="discrete" repeatCount="indefinite"/></rect><rect x="84" y="75" width="15" height="15" fill="#fff" opacity="0"><animate attributeName="opacity" values="0;1;0;0" keyTimes="0;0.5016;0.9910;1" dur="12s" begin="1.5s" calcMode="discrete" repeatCount="indefinite"/></rect><rect x="99" y="75" width="15" height="15" fill="#fff" opacity="0"><animate attributeName="opacity" values="0;1;0;0" keyTimes="0;0.5294;0.9574;1" dur="12s" begin="1.5s" calcMode="discrete" repeatCount="indefinite"/></rect><rect x="114" y="75" width="15" height="15" fill="#fff" opacity="0"><animate attributeName="opacity" values="0;1;0;0" keyTimes="0;0.5170;0.9881;1" dur="12s" begin="1.5s" calcMode="discrete" repeatCount="indefinite"/></rect><rect x="129" y="75" width="15" height="15" fill="#fff" opacity="0"><animate attributeName="opacity" values="0;1;0;0" keyTimes="0;0.5079;0.9535;1" dur="12s" begin="1.5s" calcMode="discrete" repeatCount="indefinite"/></rect><rect x="24" y="90" width="15" height="15" fill="#fff" opacity="0"><animate attributeName="opacity" values="0;1;0;0" keyTimes="0;0.5088;0.9539;1" dur="12s" begin="1.5s" calcMode="discrete" repeatCount="indefinite"/></rect><rect x="39" y="90" width="15" height="15" fill="#fff" opacity="0"><animate attributeName="opacity" values="0;1;0;0" keyTimes="0;0.5373;0.9649;1" dur="12s" begin="1.5s" calcMode="discrete" repeatCount="indefinite"/></rect><rect x="54" y="90" width="15" height="15" fill="#fff" opacity="0"><animate attributeName="opacity" values="0;1;0;0" keyTimes="0;0.5476;0.9594;1" dur="12s" begin="1.5s" calcMode="discrete" repeatCount="indefinite"/></rect><rect x="69" y="90" width="15" height="15" fill="#fff" opacity="0"><animate attributeName="opacity" values="0;1;0;0" keyTimes="0;0.5355;0.9543;1" dur="12s" begin="1.5s" calcMode="discrete" repeatCount="indefinite"/></rect><rect x="84" y="90" width="15" height="15" fill="#fff" opacity="0"><animate attributeName="opacity" values="0;1;0;0" keyTimes="0;0.5449;0.9636;1" dur="12s" begin="1.5s" calcMode="discrete" repeatCount="indefinite"/></rect><rect x="99" y="90" width="15" height="15" fill="#fff" opacity="0"><animate attributeName="opacity" values="0;1;0;0" keyTimes="0;0.5177;0.9513;1" dur="12s" begin="1.5s" calcMode="discrete" repeatCount="indefinite"/></rect><rect x="114" y="90" width="15" height="15" fill="#fff" opacity="0"><animate attributeName="opacity" values="0;1;0;0" keyTimes="0;0.5239;0.9908;1" dur="12s" begin="1.5s" calcMode="discrete" repeatCount="indefinite"/></rect><rect x="129" y="90" width="15" height="15" fill="#fff" opacity="0"><animate attributeName="opacity" values="0;1;0;0" keyTimes="0;0.5306;0.9845;1" dur="12s" begin="1.5s" calcMode="discrete" repeatCount="indefinite"/></rect><rect x="24" y="105" width="15" height="15" fill="#fff" opacity="0"><animate attributeName="opacity" values="0;1;0;0" keyTimes="0;0.5113;0.9919;1" dur="12s" begin="1.5s" calcMode="discrete" repeatCount="indefinite"/></rect><rect x="39" y="105" width="15" height="15" fill="#fff" opacity="0"><animate attributeName="opacity" values="0;1;0;0" keyTimes="0;0.5472;0.9502;1" dur="12s" begin="1.5s" calcMode="discrete" repeatCount="indefinite"/></rect><rect x="54" y="105" width="15" height="15" fill="#fff" opacity="0"><animate attributeName="opacity" values="0;1;0;0" keyTimes="0;0.5364;0.9511;1" dur="12s" begin="1.5s" calcMode="discrete" repeatCount="indefinite"/></rect><rect x="69" y="105" width="15" height="15" fill="#fff" opacity="0"><animate attributeName="opacity" values="0;1;0;0" keyTimes="0;0.5042;0.9827;1" dur="12s" begin="1.5s" calcMode="discrete" repeatCount="indefinite"/></rect><rect x="84" y="105" width="15" height="15" fill="#fff" opacity="0"><animate attributeName="opacity" values="0;1;0;0" keyTimes="0;0.5227;0.9511;1" dur="12s" begin="1.5s" calcMode="discrete" repeatCount="indefinite"/></rect><rect x="99" y="105" width="15" height="15" fill="#fff" opacity="0"><animate attributeName="opacity" values="0;1;0;0" keyTimes="0;0.5150;0.9779;1" dur="12s" begin="1.5s" calcMode="discrete" repeatCount="indefinite"/></rect><rect x="114" y="105" width="15" height="15" fill="#fff" opacity="0"><animate attributeName="opacity" values="0;1;0;0" keyTimes="0;0.5106;0.9591;1" dur="12s" begin="1.5s" calcMode="discrete" repeatCount="indefinite"/></rect><rect x="129" y="105" width="15" height="15" fill="#fff" opacity="0"><animate attributeName="opacity" values="0;1;0;0" keyTimes="0;0.5006;0.9731;1" dur="12s" begin="1.5s" calcMode="discrete" repeatCount="indefinite"/></rect><rect x="24" y="120" width="15" height="15" fill="#fff" opacity="0"><animate attributeName="opacity" values="0;1;0;0" keyTimes="0;0.5112;0.9698;1" dur="12s" begin="1.5s" calcMode="discrete" repeatCount="indefinite"/></rect><rect x="39" y="120" width="15" height="15" fill="#fff" opacity="0"><animate attributeName="opacity" values="0;1;0;0" keyTimes="0;0.5373;0.9731;1" dur="12s" begin="1.5s" calcMode="discrete" repeatCount="indefinite"/></rect><rect x="54" y="120" width="15" height="15" fill="#fff" opacity="0"><animate attributeName="opacity" values="0;1;0;0" keyTimes="0;0.5256;0.9562;1" dur="12s" begin="1.5s" calcMode="discrete" repeatCount="indefinite"/></rect><rect x="69" y="120" width="15" height="15" fill="#fff" opacity="0"><animate attributeName="opacity" values="0;1;0;0" keyTimes="0;0.5275;0.9853;1" dur="12s" begin="1.5s" calcMode="discrete" repeatCount="indefinite"/></rect><rect x="84" y="120" width="15" height="15" fill="#fff" opacity="0"><animate attributeName="opacity" values="0;1;0;0" keyTimes="0;0.5196;0.9773;1" dur="12s" begin="1.5s" calcMode="discrete" repeatCount="indefinite"/></rect><rect x="99" y="120" width="15" height="15" fill="#fff" opacity="0"><animate attributeName="opacity" values="0;1;0;0" keyTimes="0;0.5222;0.9934;1" dur="12s" begin="1.5s" calcMode="discrete" repeatCount="indefinite"/></rect><rect x="114" y="120" width="15" height="15" fill="#fff" opacity="0"><animate attributeName="opacity" values="0;1;0;0" keyTimes="0;0.5428;0.9621;1" dur="12s" begin="1.5s" calcMode="discrete" repeatCount="indefinite"/></rect><rect x="129" y="120" width="15" height="15" fill="#fff" opacity="0"><animate attributeName="opacity" values="0;1;0;0" keyTimes="0;0.5489;0.9659;1" dur="12s" begin="1.5s" calcMode="discrete" repeatCount="indefinite"/></rect><rect x="24" y="135" width="15" height="15" fill="#fff" opacity="0"><animate attributeName="opacity" values="0;1;0;0" keyTimes="0;0.5249;0.9504;1" dur="12s" begin="1.5s" calcMode="discrete" repeatCount="indefinite"/></rect><rect x="39" y="135" width="15" height="15" fill="#fff" opacity="0"><animate attributeName="opacity" values="0;1;0;0" keyTimes="0;0.5253;0.9597;1" dur="12s" begin="1.5s" calcMode="discrete" repeatCount="indefinite"/></rect><rect x="54" y="135" width="15" height="15" fill="#fff" opacity="0"><animate attributeName="opacity" values="0;1;0;0" keyTimes="0;0.5153;0.9825;1" dur="12s" begin="1.5s" calcMode="discrete" repeatCount="indefinite"/></rect><rect x="69" y="135" width="15" height="15" fill="#fff" opacity="0"><animate attributeName="opacity" values="0;1;0;0" keyTimes="0;0.5284;0.9545;1" dur="12s" begin="1.5s" calcMode="discrete" repeatCount="indefinite"/></rect><rect x="84" y="135" width="15" height="15" fill="#fff" opacity="0"><animate attributeName="opacity" values="0;1;0;0" keyTimes="0;0.5103;0.9537;1" dur="12s" begin="1.5s" calcMode="discrete" repeatCount="indefinite"/></rect><rect x="99" y="135" width="15" height="15" fill="#fff" opacity="0"><animate attributeName="opacity" values="0;1;0;0" keyTimes="0;0.5391;0.9673;1" dur="12s" begin="1.5s" calcMode="discrete" repeatCount="indefinite"/></rect><rect x="114" y="135" width="15" height="15" fill="#fff" opacity="0"><animate attributeName="opacity" values="0;1;0;0" keyTimes="0;0.5074;0.9805;1" dur="12s" begin="1.5s" calcMode="discrete" repeatCount="indefinite"/></rect><rect x="129" y="135" width="15" height="15" fill="#fff" opacity="0"><animate attributeName="opacity" values="0;1;0;0" keyTimes="0;0.5431;0.9536;1" dur="12s" begin="1.5s" calcMode="discrete" repeatCount="indefinite"/></rect></mask>
    <clipPath id="sscreen"><rect x="16" y="5" width="12" height="18"/></clipPath>
  </defs>
  <style>
    .ip{opacity:0;animation:ip .3s ease-out forwards;transform-box:fill-box;transform-origin:center}
    @keyframes ip{from{opacity:0;transform:scale(.4)}to{opacity:1;transform:none}}
    .led{animation:led 1.4s ease-in-out infinite}
    @keyframes led{50%{opacity:.25}}
    .arrow{animation:nudge 1.2s ease-in-out infinite}
    @keyframes nudge{50%{transform:translateX(5px)}}
    .run{animation:run 5s linear infinite}
    @keyframes run{to{stroke-dashoffset:-1584}}
    .shine{animation:shine 4.5s ease-in-out 1.2s infinite}
    @keyframes shine{0%{transform:translateX(-160px)}40%,100%{transform:translateX(200px)}}
    
    .sled{animation:sled 1s steps(1) infinite}
    @keyframes sled{50%{opacity:.12}}
    .sscr{animation:sscr 3s steps(6) 1.85s infinite}
    @keyframes sscr{to{transform:translateY(-36px)}}
    .scur{animation:scur .5s steps(1) infinite}
    @keyframes scur{50%{opacity:0}}
  </style>
  <rect x="2" y="2" width="576" height="216" rx="16" fill="#ffffff"/>
  <rect x="2" y="2" width="576" height="216" rx="16" fill="url(#bgc2)" stroke="#967de1" stroke-opacity="0.35" stroke-width="2"/>
  <rect x="2" y="2" width="576" height="216" rx="16" fill="none" stroke="#967de1" stroke-width="3" stroke-dasharray="90 1494" class="run" style="animation-delay:-2.6s"/>
  <rect x="24" y="30" width="120" height="120" rx="10" fill="#faf8ff"/>
  <g clip-path="url(#icc2)">
    <rect x="60" y="42" width="12" height="12" fill="#a78bfa" class="ip" style="animation-delay:0.250s"/><rect x="72" y="42" width="12" height="12" fill="#a78bfa" class="ip" style="animation-delay:0.275s"/><rect x="84" y="42" width="12" height="12" fill="#a78bfa" class="ip" style="animation-delay:0.300s"/><rect x="96" y="42" width="12" height="12" fill="#a78bfa" class="ip" style="animation-delay:0.325s"/><rect x="48" y="54" width="12" height="12" fill="#a78bfa" class="ip" style="animation-delay:0.250s"/><rect x="108" y="54" width="12" height="12" fill="#a78bfa" class="ip" style="animation-delay:0.375s"/><rect x="60" y="66" width="12" height="12" fill="#0b1510" class="ip" style="animation-delay:0.300s"/><rect x="96" y="66" width="12" height="12" fill="#0b1510" class="ip" style="animation-delay:0.375s"/><rect x="36" y="78" width="12" height="12" fill="#a78bfa" class="ip" style="animation-delay:0.275s"/><rect x="48" y="78" width="12" height="12" fill="#a78bfa" class="ip" style="animation-delay:0.300s"/><rect x="60" y="78" width="12" height="12" fill="#a78bfa" class="ip" style="animation-delay:0.325s"/><rect x="72" y="78" width="12" height="12" fill="#a78bfa" class="ip" style="animation-delay:0.350s"/><rect x="84" y="78" width="12" height="12" fill="#a78bfa" class="ip" style="animation-delay:0.375s"/><rect x="96" y="78" width="12" height="12" fill="#a78bfa" class="ip" style="animation-delay:0.400s"/><rect x="108" y="78" width="12" height="12" fill="#a78bfa" class="ip" style="animation-delay:0.425s"/><rect x="120" y="78" width="12" height="12" fill="#a78bfa" class="ip" style="animation-delay:0.450s"/><rect x="48" y="102" width="12" height="12" fill="#a78bfa" class="ip" style="animation-delay:0.350s"/><rect x="60" y="102" width="12" height="12" fill="#0b1510" class="ip" style="animation-delay:0.375s"/><rect x="96" y="102" width="12" height="12" fill="#0b1510" class="ip" style="animation-delay:0.450s"/><rect x="108" y="102" width="12" height="12" fill="#a78bfa" class="ip" style="animation-delay:0.475s"/><rect x="36" y="114" width="12" height="12" fill="#0b1510" class="ip" style="animation-delay:0.350s"/><rect x="60" y="114" width="12" height="12" fill="#a78bfa" class="ip" style="animation-delay:0.400s"/><rect x="72" y="114" width="12" height="12" fill="#a78bfa" class="ip" style="animation-delay:0.425s"/><rect x="84" y="114" width="12" height="12" fill="#a78bfa" class="ip" style="animation-delay:0.450s"/><rect x="96" y="114" width="12" height="12" fill="#a78bfa" class="ip" style="animation-delay:0.475s"/><rect x="120" y="114" width="12" height="12" fill="#0b1510" class="ip" style="animation-delay:0.525s"/><rect x="36" y="126" width="12" height="12" fill="#a78bfa" class="ip" style="animation-delay:0.375s"/><rect x="48" y="126" width="12" height="12" fill="#a78bfa" class="ip" style="animation-delay:0.400s"/><rect x="60" y="126" width="12" height="12" fill="#a78bfa" class="ip" style="animation-delay:0.425s"/><rect x="72" y="126" width="12" height="12" fill="#a78bfa" class="ip" style="animation-delay:0.450s"/><rect x="84" y="126" width="12" height="12" fill="#a78bfa" class="ip" style="animation-delay:0.475s"/><rect x="96" y="126" width="12" height="12" fill="#a78bfa" class="ip" style="animation-delay:0.500s"/><rect x="108" y="126" width="12" height="12" fill="#a78bfa" class="ip" style="animation-delay:0.525s"/><rect x="120" y="126" width="12" height="12" fill="#a78bfa" class="ip" style="animation-delay:0.550s"/>
    <g mask="url(#dzc2)"><rect x="24" y="30" width="120" height="120" fill="#f4f1fe"/>
      <g transform="translate(24 30) scale(4)" shape-rendering="crispEdges"><rect x="2" y="3" width="12" height="26" fill="#10141a"/><rect x="3" y="4" width="10" height="24" fill="#2a2f3b"/><rect x="3" y="5" width="10" height="5" fill="#3b4252"/><rect x="4" y="6" width="5" height="1" fill="#232833"/><rect x="4" y="8" width="5" height="1" fill="#232833"/><rect x="3" y="11" width="10" height="5" fill="#3b4252"/><rect x="4" y="12" width="5" height="1" fill="#232833"/><rect x="4" y="14" width="5" height="1" fill="#232833"/><rect x="3" y="17" width="10" height="5" fill="#3b4252"/><rect x="4" y="18" width="5" height="1" fill="#232833"/><rect x="4" y="20" width="5" height="1" fill="#232833"/><rect x="3" y="23" width="10" height="5" fill="#3b4252"/><rect x="4" y="24" width="5" height="1" fill="#232833"/><rect x="4" y="26" width="5" height="1" fill="#232833"/><rect x="10" y="7" width="1" height="1" fill="#39ff88" class="sled" style="animation-duration:0.6s;animation-delay:1.85s"/><rect x="12" y="7" width="1" height="1" fill="#a78bfa" class="sled" style="animation-duration:1s;animation-delay:2.22s"/><rect x="10" y="13" width="1" height="1" fill="#39ff88" class="sled" style="animation-duration:0.6s;animation-delay:2.08s"/><rect x="12" y="13" width="1" height="1" fill="#ffb020" class="sled" style="animation-duration:1s;animation-delay:2.45s"/><rect x="10" y="19" width="1" height="1" fill="#39ff88" class="sled" style="animation-duration:0.6s;animation-delay:2.31s"/><rect x="12" y="19" width="1" height="1" fill="#a78bfa" class="sled" style="animation-duration:1s;animation-delay:2.68s"/><rect x="10" y="25" width="1" height="1" fill="#39ff88" class="sled" style="animation-duration:0.6s;animation-delay:2.54s"/><rect x="12" y="25" width="1" height="1" fill="#ffb020" class="sled" style="animation-duration:1s;animation-delay:2.91s"/>
    <rect x="15" y="4" width="14" height="20" fill="#10141a"/><rect x="16" y="5" width="12" height="18" fill="#05070a"/>
    <rect x="15.5" y="4.5" width="13" height="19" fill="none" stroke="#a78bfa" stroke-width="1" opacity=".55"/>
    <g clip-path="url(#sscreen)"><g class="sscr"><path d="M16 6h1v1h-1zM17 7h1v1h-1zM18 8h1v1h-1zM17 9h1v1h-1zM16 10h1v1h-1z" fill="#a78bfa"/><path d="M20 6h1v1h-1zM21 6h1v1h-1zM22 6h1v1h-1zM20 7h1v1h-1zM20 8h1v1h-1zM22 8h1v1h-1zM20 9h1v1h-1zM22 9h1v1h-1zM20 10h1v1h-1zM21 10h1v1h-1zM22 10h1v1h-1zM24 6h1v1h-1zM25 6h1v1h-1zM26 6h1v1h-1zM24 7h1v1h-1zM26 7h1v1h-1zM24 8h1v1h-1zM26 8h1v1h-1zM24 9h1v1h-1zM26 9h1v1h-1zM24 10h1v1h-1zM25 10h1v1h-1zM26 10h1v1h-1z" fill="#aab4c3"/><path d="M20 12h1v1h-1zM21 12h1v1h-1zM22 12h1v1h-1zM20 13h1v1h-1zM22 13h1v1h-1zM20 14h1v1h-1zM22 14h1v1h-1zM20 15h1v1h-1zM22 15h1v1h-1zM20 16h1v1h-1zM21 16h1v1h-1zM22 16h1v1h-1zM24 12h1v1h-1zM26 12h1v1h-1zM24 13h1v1h-1zM26 13h1v1h-1zM24 14h1v1h-1zM25 14h1v1h-1zM24 15h1v1h-1zM26 15h1v1h-1zM24 16h1v1h-1zM26 16h1v1h-1z" fill="#39ff88"/><path d="M16 18h1v1h-1zM17 19h1v1h-1zM18 20h1v1h-1zM17 21h1v1h-1zM16 22h1v1h-1z" fill="#a78bfa"/><path d="M20 18h1v1h-1zM22 18h1v1h-1zM20 19h1v1h-1zM22 19h1v1h-1zM20 20h1v1h-1zM22 20h1v1h-1zM20 21h1v1h-1zM22 21h1v1h-1zM20 22h1v1h-1zM21 22h1v1h-1zM22 22h1v1h-1zM24 18h1v1h-1zM25 18h1v1h-1zM24 19h1v1h-1zM26 19h1v1h-1zM24 20h1v1h-1zM25 20h1v1h-1zM24 21h1v1h-1zM24 22h1v1h-1z" fill="#aab4c3"/><path d="M20 24h1v1h-1zM21 24h1v1h-1zM22 24h1v1h-1zM20 25h1v1h-1zM22 25h1v1h-1zM20 26h1v1h-1zM22 26h1v1h-1zM20 27h1v1h-1zM22 27h1v1h-1zM20 28h1v1h-1zM21 28h1v1h-1zM22 28h1v1h-1zM24 24h1v1h-1zM26 24h1v1h-1zM24 25h1v1h-1zM26 25h1v1h-1zM24 26h1v1h-1zM25 26h1v1h-1zM24 27h1v1h-1zM26 27h1v1h-1zM24 28h1v1h-1zM26 28h1v1h-1z" fill="#39ff88"/><path d="M16 30h1v1h-1zM17 31h1v1h-1zM18 32h1v1h-1zM17 33h1v1h-1zM16 34h1v1h-1z" fill="#a78bfa"/><path d="M20 30h1v1h-1zM21 30h1v1h-1zM22 30h1v1h-1zM20 31h1v1h-1zM20 32h1v1h-1zM22 32h1v1h-1zM20 33h1v1h-1zM22 33h1v1h-1zM20 34h1v1h-1zM21 34h1v1h-1zM22 34h1v1h-1zM24 30h1v1h-1zM25 30h1v1h-1zM26 30h1v1h-1zM24 31h1v1h-1zM26 31h1v1h-1zM24 32h1v1h-1zM26 32h1v1h-1zM24 33h1v1h-1zM26 33h1v1h-1zM24 34h1v1h-1zM25 34h1v1h-1zM26 34h1v1h-1z" fill="#aab4c3"/><path d="M20 36h1v1h-1zM21 36h1v1h-1zM22 36h1v1h-1zM20 37h1v1h-1zM22 37h1v1h-1zM20 38h1v1h-1zM22 38h1v1h-1zM20 39h1v1h-1zM22 39h1v1h-1zM20 40h1v1h-1zM21 40h1v1h-1zM22 40h1v1h-1zM24 36h1v1h-1zM26 36h1v1h-1zM24 37h1v1h-1zM26 37h1v1h-1zM24 38h1v1h-1zM25 38h1v1h-1zM24 39h1v1h-1zM26 39h1v1h-1zM24 40h1v1h-1zM26 40h1v1h-1z" fill="#39ff88"/><path d="M16 42h1v1h-1zM17 43h1v1h-1zM18 44h1v1h-1zM17 45h1v1h-1zM16 46h1v1h-1z" fill="#a78bfa"/><path d="M20 42h1v1h-1zM21 42h1v1h-1zM22 42h1v1h-1zM20 43h1v1h-1zM20 44h1v1h-1zM22 44h1v1h-1zM20 45h1v1h-1zM22 45h1v1h-1zM20 46h1v1h-1zM21 46h1v1h-1zM22 46h1v1h-1zM24 42h1v1h-1zM25 42h1v1h-1zM26 42h1v1h-1zM24 43h1v1h-1zM26 43h1v1h-1zM24 44h1v1h-1zM26 44h1v1h-1zM24 45h1v1h-1zM26 45h1v1h-1zM24 46h1v1h-1zM25 46h1v1h-1zM26 46h1v1h-1z" fill="#aab4c3"/><path d="M20 48h1v1h-1zM21 48h1v1h-1zM22 48h1v1h-1zM20 49h1v1h-1zM22 49h1v1h-1zM20 50h1v1h-1zM22 50h1v1h-1zM20 51h1v1h-1zM22 51h1v1h-1zM20 52h1v1h-1zM21 52h1v1h-1zM22 52h1v1h-1zM24 48h1v1h-1zM26 48h1v1h-1zM24 49h1v1h-1zM26 49h1v1h-1zM24 50h1v1h-1zM25 50h1v1h-1zM24 51h1v1h-1zM26 51h1v1h-1zM24 52h1v1h-1zM26 52h1v1h-1z" fill="#39ff88"/><path d="M16 54h1v1h-1zM17 55h1v1h-1zM18 56h1v1h-1zM17 57h1v1h-1zM16 58h1v1h-1z" fill="#a78bfa"/><path d="M20 54h1v1h-1zM22 54h1v1h-1zM20 55h1v1h-1zM22 55h1v1h-1zM20 56h1v1h-1zM22 56h1v1h-1zM20 57h1v1h-1zM22 57h1v1h-1zM20 58h1v1h-1zM21 58h1v1h-1zM22 58h1v1h-1zM24 54h1v1h-1zM25 54h1v1h-1zM24 55h1v1h-1zM26 55h1v1h-1zM24 56h1v1h-1zM25 56h1v1h-1zM24 57h1v1h-1zM24 58h1v1h-1z" fill="#aab4c3"/></g></g>
    <rect x="20" y="24" width="4" height="2" fill="#5b6474"/><rect x="18" y="26" width="8" height="2" fill="#3b4252"/></g></g>
    <rect x="24" y="30" width="120" height="120" fill="url(#scanc2)"/>
    <rect x="-40" y="0" width="60" height="200" fill="url(#shinec2)" transform="rotate(20)" class="shine"/>
  </g>
  <rect x="24" y="30" width="120" height="120" rx="10" fill="none" stroke="#967de1" stroke-opacity=".4"/>
  <text x="84" y="178" text-anchor="middle" font-family="ui-monospace,SFMono-Regular,'JetBrains Mono',Menlo,Consolas,monospace" font-size="11" fill="#5f7368">#03</text>
  <rect x="170" y="34" width="3" height="3" fill="#0b1510"/><rect x="173" y="34" width="3" height="3" fill="#0b1510"/><rect x="176" y="34" width="3" height="3" fill="#0b1510"/><rect x="179" y="34" width="3" height="3" fill="#0b1510"/><rect x="170" y="37" width="3" height="3" fill="#0b1510"/><rect x="182" y="37" width="3" height="3" fill="#0b1510"/><rect x="170" y="40" width="3" height="3" fill="#0b1510"/><rect x="182" y="40" width="3" height="3" fill="#0b1510"/><rect x="170" y="43" width="3" height="3" fill="#0b1510"/><rect x="173" y="43" width="3" height="3" fill="#0b1510"/><rect x="176" y="43" width="3" height="3" fill="#0b1510"/><rect x="179" y="43" width="3" height="3" fill="#0b1510"/><rect x="170" y="46" width="3" height="3" fill="#0b1510"/><rect x="170" y="49" width="3" height="3" fill="#0b1510"/><rect x="170" y="52" width="3" height="3" fill="#0b1510"/><rect x="191" y="34" width="3" height="3" fill="#0b1510"/><rect x="194" y="34" width="3" height="3" fill="#0b1510"/><rect x="197" y="34" width="3" height="3" fill="#0b1510"/><rect x="188" y="37" width="3" height="3" fill="#0b1510"/><rect x="200" y="37" width="3" height="3" fill="#0b1510"/><rect x="188" y="40" width="3" height="3" fill="#0b1510"/><rect x="200" y="40" width="3" height="3" fill="#0b1510"/><rect x="188" y="43" width="3" height="3" fill="#0b1510"/><rect x="191" y="43" width="3" height="3" fill="#0b1510"/><rect x="194" y="43" width="3" height="3" fill="#0b1510"/><rect x="197" y="43" width="3" height="3" fill="#0b1510"/><rect x="200" y="43" width="3" height="3" fill="#0b1510"/><rect x="188" y="46" width="3" height="3" fill="#0b1510"/><rect x="200" y="46" width="3" height="3" fill="#0b1510"/><rect x="188" y="49" width="3" height="3" fill="#0b1510"/><rect x="200" y="49" width="3" height="3" fill="#0b1510"/><rect x="188" y="52" width="3" height="3" fill="#0b1510"/><rect x="200" y="52" width="3" height="3" fill="#0b1510"/><rect x="206" y="34" width="3" height="3" fill="#0b1510"/><rect x="209" y="34" width="3" height="3" fill="#0b1510"/><rect x="212" y="34" width="3" height="3" fill="#0b1510"/><rect x="215" y="34" width="3" height="3" fill="#0b1510"/><rect x="206" y="37" width="3" height="3" fill="#0b1510"/><rect x="218" y="37" width="3" height="3" fill="#0b1510"/><rect x="206" y="40" width="3" height="3" fill="#0b1510"/><rect x="218" y="40" width="3" height="3" fill="#0b1510"/><rect x="206" y="43" width="3" height="3" fill="#0b1510"/><rect x="209" y="43" width="3" height="3" fill="#0b1510"/><rect x="212" y="43" width="3" height="3" fill="#0b1510"/><rect x="215" y="43" width="3" height="3" fill="#0b1510"/><rect x="206" y="46" width="3" height="3" fill="#0b1510"/><rect x="212" y="46" width="3" height="3" fill="#0b1510"/><rect x="206" y="49" width="3" height="3" fill="#0b1510"/><rect x="215" y="49" width="3" height="3" fill="#0b1510"/><rect x="206" y="52" width="3" height="3" fill="#0b1510"/><rect x="218" y="52" width="3" height="3" fill="#0b1510"/><rect x="224" y="34" width="3" height="3" fill="#0b1510"/><rect x="227" y="34" width="3" height="3" fill="#0b1510"/><rect x="230" y="34" width="3" height="3" fill="#0b1510"/><rect x="233" y="34" width="3" height="3" fill="#0b1510"/><rect x="224" y="37" width="3" height="3" fill="#0b1510"/><rect x="236" y="37" width="3" height="3" fill="#0b1510"/><rect x="224" y="40" width="3" height="3" fill="#0b1510"/><rect x="236" y="40" width="3" height="3" fill="#0b1510"/><rect x="224" y="43" width="3" height="3" fill="#0b1510"/><rect x="227" y="43" width="3" height="3" fill="#0b1510"/><rect x="230" y="43" width="3" height="3" fill="#0b1510"/><rect x="233" y="43" width="3" height="3" fill="#0b1510"/><rect x="224" y="46" width="3" height="3" fill="#0b1510"/><rect x="224" y="49" width="3" height="3" fill="#0b1510"/><rect x="224" y="52" width="3" height="3" fill="#0b1510"/><rect x="245" y="34" width="3" height="3" fill="#0b1510"/><rect x="248" y="34" width="3" height="3" fill="#0b1510"/><rect x="251" y="34" width="3" height="3" fill="#0b1510"/><rect x="242" y="37" width="3" height="3" fill="#0b1510"/><rect x="254" y="37" width="3" height="3" fill="#0b1510"/><rect x="242" y="40" width="3" height="3" fill="#0b1510"/><rect x="254" y="40" width="3" height="3" fill="#0b1510"/><rect x="242" y="43" width="3" height="3" fill="#0b1510"/><rect x="245" y="43" width="3" height="3" fill="#0b1510"/><rect x="248" y="43" width="3" height="3" fill="#0b1510"/><rect x="251" y="43" width="3" height="3" fill="#0b1510"/><rect x="254" y="43" width="3" height="3" fill="#0b1510"/><rect x="242" y="46" width="3" height="3" fill="#0b1510"/><rect x="254" y="46" width="3" height="3" fill="#0b1510"/><rect x="242" y="49" width="3" height="3" fill="#0b1510"/><rect x="254" y="49" width="3" height="3" fill="#0b1510"/><rect x="242" y="52" width="3" height="3" fill="#0b1510"/><rect x="254" y="52" width="3" height="3" fill="#0b1510"/><rect x="260" y="34" width="3" height="3" fill="#0b1510"/><rect x="263" y="34" width="3" height="3" fill="#0b1510"/><rect x="266" y="34" width="3" height="3" fill="#0b1510"/><rect x="269" y="34" width="3" height="3" fill="#0b1510"/><rect x="260" y="37" width="3" height="3" fill="#0b1510"/><rect x="272" y="37" width="3" height="3" fill="#0b1510"/><rect x="260" y="40" width="3" height="3" fill="#0b1510"/><rect x="272" y="40" width="3" height="3" fill="#0b1510"/><rect x="260" y="43" width="3" height="3" fill="#0b1510"/><rect x="263" y="43" width="3" height="3" fill="#0b1510"/><rect x="266" y="43" width="3" height="3" fill="#0b1510"/><rect x="269" y="43" width="3" height="3" fill="#0b1510"/><rect x="260" y="46" width="3" height="3" fill="#0b1510"/><rect x="266" y="46" width="3" height="3" fill="#0b1510"/><rect x="260" y="49" width="3" height="3" fill="#0b1510"/><rect x="269" y="49" width="3" height="3" fill="#0b1510"/><rect x="260" y="52" width="3" height="3" fill="#0b1510"/><rect x="272" y="52" width="3" height="3" fill="#0b1510"/><rect x="296" y="34" width="3" height="3" fill="#0b1510"/><rect x="299" y="34" width="3" height="3" fill="#0b1510"/><rect x="302" y="34" width="3" height="3" fill="#0b1510"/><rect x="305" y="34" width="3" height="3" fill="#0b1510"/><rect x="308" y="34" width="3" height="3" fill="#0b1510"/><rect x="296" y="37" width="3" height="3" fill="#0b1510"/><rect x="296" y="40" width="3" height="3" fill="#0b1510"/><rect x="296" y="43" width="3" height="3" fill="#0b1510"/><rect x="299" y="43" width="3" height="3" fill="#0b1510"/><rect x="302" y="43" width="3" height="3" fill="#0b1510"/><rect x="305" y="43" width="3" height="3" fill="#0b1510"/><rect x="296" y="46" width="3" height="3" fill="#0b1510"/><rect x="296" y="49" width="3" height="3" fill="#0b1510"/><rect x="296" y="52" width="3" height="3" fill="#0b1510"/><rect x="299" y="52" width="3" height="3" fill="#0b1510"/><rect x="302" y="52" width="3" height="3" fill="#0b1510"/><rect x="305" y="52" width="3" height="3" fill="#0b1510"/><rect x="308" y="52" width="3" height="3" fill="#0b1510"/><rect x="314" y="34" width="3" height="3" fill="#0b1510"/><rect x="326" y="34" width="3" height="3" fill="#0b1510"/><rect x="314" y="37" width="3" height="3" fill="#0b1510"/><rect x="326" y="37" width="3" height="3" fill="#0b1510"/><rect x="317" y="40" width="3" height="3" fill="#0b1510"/><rect x="323" y="40" width="3" height="3" fill="#0b1510"/><rect x="320" y="43" width="3" height="3" fill="#0b1510"/><rect x="317" y="46" width="3" height="3" fill="#0b1510"/><rect x="323" y="46" width="3" height="3" fill="#0b1510"/><rect x="314" y="49" width="3" height="3" fill="#0b1510"/><rect x="326" y="49" width="3" height="3" fill="#0b1510"/><rect x="314" y="52" width="3" height="3" fill="#0b1510"/><rect x="326" y="52" width="3" height="3" fill="#0b1510"/><rect x="332" y="34" width="3" height="3" fill="#0b1510"/><rect x="335" y="34" width="3" height="3" fill="#0b1510"/><rect x="338" y="34" width="3" height="3" fill="#0b1510"/><rect x="341" y="34" width="3" height="3" fill="#0b1510"/><rect x="344" y="34" width="3" height="3" fill="#0b1510"/><rect x="332" y="37" width="3" height="3" fill="#0b1510"/><rect x="332" y="40" width="3" height="3" fill="#0b1510"/><rect x="332" y="43" width="3" height="3" fill="#0b1510"/><rect x="335" y="43" width="3" height="3" fill="#0b1510"/><rect x="338" y="43" width="3" height="3" fill="#0b1510"/><rect x="341" y="43" width="3" height="3" fill="#0b1510"/><rect x="332" y="46" width="3" height="3" fill="#0b1510"/><rect x="332" y="49" width="3" height="3" fill="#0b1510"/><rect x="332" y="52" width="3" height="3" fill="#0b1510"/><rect x="335" y="52" width="3" height="3" fill="#0b1510"/><rect x="338" y="52" width="3" height="3" fill="#0b1510"/><rect x="341" y="52" width="3" height="3" fill="#0b1510"/><rect x="344" y="52" width="3" height="3" fill="#0b1510"/><rect x="353" y="34" width="3" height="3" fill="#0b1510"/><rect x="356" y="34" width="3" height="3" fill="#0b1510"/><rect x="359" y="34" width="3" height="3" fill="#0b1510"/><rect x="350" y="37" width="3" height="3" fill="#0b1510"/><rect x="362" y="37" width="3" height="3" fill="#0b1510"/><rect x="350" y="40" width="3" height="3" fill="#0b1510"/><rect x="350" y="43" width="3" height="3" fill="#0b1510"/><rect x="350" y="46" width="3" height="3" fill="#0b1510"/><rect x="350" y="49" width="3" height="3" fill="#0b1510"/><rect x="362" y="49" width="3" height="3" fill="#0b1510"/><rect x="353" y="52" width="3" height="3" fill="#0b1510"/><rect x="356" y="52" width="3" height="3" fill="#0b1510"/><rect x="359" y="52" width="3" height="3" fill="#0b1510"/><rect x="368" y="34" width="3" height="3" fill="#0b1510"/><rect x="380" y="34" width="3" height="3" fill="#0b1510"/><rect x="368" y="37" width="3" height="3" fill="#0b1510"/><rect x="380" y="37" width="3" height="3" fill="#0b1510"/><rect x="368" y="40" width="3" height="3" fill="#0b1510"/><rect x="380" y="40" width="3" height="3" fill="#0b1510"/><rect x="368" y="43" width="3" height="3" fill="#0b1510"/><rect x="380" y="43" width="3" height="3" fill="#0b1510"/><rect x="368" y="46" width="3" height="3" fill="#0b1510"/><rect x="380" y="46" width="3" height="3" fill="#0b1510"/><rect x="368" y="49" width="3" height="3" fill="#0b1510"/><rect x="380" y="49" width="3" height="3" fill="#0b1510"/><rect x="371" y="52" width="3" height="3" fill="#0b1510"/><rect x="374" y="52" width="3" height="3" fill="#0b1510"/><rect x="377" y="52" width="3" height="3" fill="#0b1510"/><rect x="386" y="34" width="3" height="3" fill="#0b1510"/><rect x="389" y="34" width="3" height="3" fill="#0b1510"/><rect x="392" y="34" width="3" height="3" fill="#0b1510"/><rect x="395" y="34" width="3" height="3" fill="#0b1510"/><rect x="398" y="34" width="3" height="3" fill="#0b1510"/><rect x="392" y="37" width="3" height="3" fill="#0b1510"/><rect x="392" y="40" width="3" height="3" fill="#0b1510"/><rect x="392" y="43" width="3" height="3" fill="#0b1510"/><rect x="392" y="46" width="3" height="3" fill="#0b1510"/><rect x="392" y="49" width="3" height="3" fill="#0b1510"/><rect x="392" y="52" width="3" height="3" fill="#0b1510"/><rect x="407" y="34" width="3" height="3" fill="#0b1510"/><rect x="410" y="34" width="3" height="3" fill="#0b1510"/><rect x="413" y="34" width="3" height="3" fill="#0b1510"/><rect x="404" y="37" width="3" height="3" fill="#0b1510"/><rect x="416" y="37" width="3" height="3" fill="#0b1510"/><rect x="404" y="40" width="3" height="3" fill="#0b1510"/><rect x="416" y="40" width="3" height="3" fill="#0b1510"/><rect x="404" y="43" width="3" height="3" fill="#0b1510"/><rect x="416" y="43" width="3" height="3" fill="#0b1510"/><rect x="404" y="46" width="3" height="3" fill="#0b1510"/><rect x="416" y="46" width="3" height="3" fill="#0b1510"/><rect x="404" y="49" width="3" height="3" fill="#0b1510"/><rect x="416" y="49" width="3" height="3" fill="#0b1510"/><rect x="407" y="52" width="3" height="3" fill="#0b1510"/><rect x="410" y="52" width="3" height="3" fill="#0b1510"/><rect x="413" y="52" width="3" height="3" fill="#0b1510"/><rect x="422" y="34" width="3" height="3" fill="#0b1510"/><rect x="425" y="34" width="3" height="3" fill="#0b1510"/><rect x="428" y="34" width="3" height="3" fill="#0b1510"/><rect x="431" y="34" width="3" height="3" fill="#0b1510"/><rect x="422" y="37" width="3" height="3" fill="#0b1510"/><rect x="434" y="37" width="3" height="3" fill="#0b1510"/><rect x="422" y="40" width="3" height="3" fill="#0b1510"/><rect x="434" y="40" width="3" height="3" fill="#0b1510"/><rect x="422" y="43" width="3" height="3" fill="#0b1510"/><rect x="425" y="43" width="3" height="3" fill="#0b1510"/><rect x="428" y="43" width="3" height="3" fill="#0b1510"/><rect x="431" y="43" width="3" height="3" fill="#0b1510"/><rect x="422" y="46" width="3" height="3" fill="#0b1510"/><rect x="428" y="46" width="3" height="3" fill="#0b1510"/><rect x="422" y="49" width="3" height="3" fill="#0b1510"/><rect x="431" y="49" width="3" height="3" fill="#0b1510"/><rect x="422" y="52" width="3" height="3" fill="#0b1510"/><rect x="434" y="52" width="3" height="3" fill="#0b1510"/>
  <circle cx="176" cy="75" r="4.5" fill="#967de1" class="led"/>
  <text x="188" y="80" font-family="ui-monospace,SFMono-Regular,'JetBrains Mono',Menlo,Consolas,monospace" font-size="13" fill="#5f7368">v0.2.0 · shipped 1mo ago</text>
  <text x="170" y="108" font-family="ui-monospace,SFMono-Regular,'JetBrains Mono',Menlo,Consolas,monospace" font-size="14.5" fill="#1f2a24">Mission control for game servers.</text>
  <rect x="170" y="176" width="72.6" height="22" rx="4" fill="#967de1" fill-opacity="0.08" stroke="#967de1" stroke-opacity=".45"/>
      <text x="206.3" y="191" text-anchor="middle" font-family="ui-monospace,SFMono-Regular,'JetBrains Mono',Menlo,Consolas,monospace" font-size="12" fill="#7d68bc">desktop</text><rect x="250.6" y="176" width="64.8" height="22" rx="4" fill="#967de1" fill-opacity="0.08" stroke="#967de1" stroke-opacity=".45"/>
      <text x="283" y="191" text-anchor="middle" font-family="ui-monospace,SFMono-Regular,'JetBrains Mono',Menlo,Consolas,monospace" font-size="12" fill="#7d68bc">devops</text><rect x="323.4" y="176" width="64.8" height="22" rx="4" fill="#967de1" fill-opacity="0.08" stroke="#967de1" stroke-opacity=".45"/>
      <text x="355.79999999999995" y="191" text-anchor="middle" font-family="ui-monospace,SFMono-Regular,'JetBrains Mono',Menlo,Consolas,monospace" font-size="12" fill="#7d68bc">gaming</text>
  <g class="arrow"><text x="554" y="192" text-anchor="end" font-family="ui-monospace,SFMono-Regular,'JetBrains Mono',Menlo,Consolas,monospace" font-size="14" font-weight="700" fill="#7d68bc">OPEN ▸</text></g></svg>