<svg xmlns="http://www.w3.org/2000/svg" width="580" height="220" viewBox="0 0 580 220" role="img" aria-label="TeGriAi — The most Israeli place on the net — a Discord + YouTube community to play, chat and hang out."><title>TeGriAi — The most Israeli place on the net — a Discord + YouTube community to play, chat and hang out.</title>
  <defs>
    <linearGradient id="bgc2" x1="0" y1="0" x2="1" y2="1"><stop offset="0" stop-color="#6b70ff" stop-opacity=".10"/><stop offset=".6" stop-color="#0a0f0c" stop-opacity="1"/></linearGradient>
    <linearGradient id="shinec2" x1="0" y1="0" x2="1" y2="0"><stop offset="0" stop-color="#fff" stop-opacity="0"/><stop offset=".5" stop-color="#fff" stop-opacity=".35"/><stop offset="1" stop-color="#fff" stop-opacity="0"/></linearGradient>
    <clipPath id="icc2"><rect x="24" y="30" width="120" height="120" rx="10"/></clipPath>
    <pattern id="scanc2" width="3" height="3" patternUnits="userSpaceOnUse"><rect width="3" height="1" fill="#000" opacity=".25"/></pattern>
  </defs>
  <style>
    .ip{opacity:0;animation:ip .3s ease-out forwards}
    @keyframes ip{from{opacity:0;transform:scale(.4)}to{opacity:1;transform:none}}
    .ip{transform-box:fill-box;transform-origin:center}
    .led{animation:led 1.4s ease-in-out infinite}
    @keyframes led{50%{opacity:.25}}
    .arrow{animation:nudge 1.2s ease-in-out infinite}
    @keyframes nudge{50%{transform:translateX(5px)}}
    .run{animation:run 5s linear infinite}
    @keyframes run{to{stroke-dashoffset:-1584}}
    .shine{animation:shine 4.5s ease-in-out 1.2s infinite}
    @keyframes shine{0%{transform:translateX(-160px)}40%,100%{transform:translateX(200px)}}
  </style>
  <rect x="2" y="2" width="576" height="216" rx="16" fill="#050807"/>
  <rect x="2" y="2" width="576" height="216" rx="16" fill="url(#bgc2)" stroke="#6b70ff" stroke-opacity=".25" stroke-width="2"/>
  <rect x="2" y="2" width="576" height="216" rx="16" fill="none" stroke="#6b70ff" stroke-width="3" stroke-dasharray="90 1494" class="run" style="animation-delay:-2.6s"/>
  <rect x="24" y="30" width="120" height="120" rx="10" fill="#000" fill-opacity=".5" stroke="#6b70ff" stroke-opacity=".35"/>
  <g clip-path="url(#icc2)"><rect x="36" y="42" width="6" height="6" fill="#02050c" class="ip" style="animation-delay:0.200s"/><rect x="42" y="42" width="6" height="6" fill="#02050c" class="ip" style="animation-delay:0.225s"/><rect x="48" y="42" width="6" height="6" fill="#02050c" class="ip" style="animation-delay:0.250s"/><rect x="54" y="42" width="6" height="6" fill="#02050c" class="ip" style="animation-delay:0.275s"/><rect x="60" y="42" width="6" height="6" fill="#02050c" class="ip" style="animation-delay:0.300s"/><rect x="66" y="42" width="6" height="6" fill="#02050c" class="ip" style="animation-delay:0.325s"/><rect x="72" y="42" width="6" height="6" fill="#02050c" class="ip" style="animation-delay:0.350s"/><rect x="78" y="42" width="6" height="6" fill="#02050c" class="ip" style="animation-delay:0.375s"/><rect x="84" y="42" width="6" height="6" fill="#02050c" class="ip" style="animation-delay:0.400s"/><rect x="90" y="42" width="6" height="6" fill="#02050c" class="ip" style="animation-delay:0.425s"/><rect x="96" y="42" width="6" height="6" fill="#02050c" class="ip" style="animation-delay:0.450s"/><rect x="102" y="42" width="6" height="6" fill="#02050c" class="ip" style="animation-delay:0.475s"/><rect x="108" y="42" width="6" height="6" fill="#02050c" class="ip" style="animation-delay:0.500s"/><rect x="114" y="42" width="6" height="6" fill="#02050c" class="ip" style="animation-delay:0.525s"/><rect x="120" y="42" width="6" height="6" fill="#02050c" class="ip" style="animation-delay:0.550s"/><rect x="126" y="42" width="6" height="6" fill="#02050c" class="ip" style="animation-delay:0.575s"/><rect x="36" y="48" width="6" height="6" fill="#02050c" class="ip" style="animation-delay:0.225s"/><rect x="42" y="48" width="6" height="6" fill="#02050c" class="ip" style="animation-delay:0.250s"/><rect x="48" y="48" width="6" height="6" fill="#02050c" class="ip" style="animation-delay:0.275s"/><rect x="54" y="48" width="6" height="6" fill="#02050c" class="ip" style="animation-delay:0.300s"/><rect x="60" y="48" width="6" height="6" fill="#02050c" class="ip" style="animation-delay:0.325s"/><rect x="66" y="48" width="6" height="6" fill="#02050c" class="ip" style="animation-delay:0.350s"/><rect x="72" y="48" width="6" height="6" fill="#02050c" class="ip" style="animation-delay:0.375s"/><rect x="78" y="48" width="6" height="6" fill="#02050c" class="ip" style="animation-delay:0.400s"/><rect x="84" y="48" width="6" height="6" fill="#02050c" class="ip" style="animation-delay:0.425s"/><rect x="90" y="48" width="6" height="6" fill="#02050c" class="ip" style="animation-delay:0.450s"/><rect x="96" y="48" width="6" height="6" fill="#02050c" class="ip" style="animation-delay:0.475s"/><rect x="102" y="48" width="6" height="6" fill="#02050c" class="ip" style="animation-delay:0.500s"/><rect x="108" y="48" width="6" height="6" fill="#02050c" class="ip" style="animation-delay:0.525s"/><rect x="114" y="48" width="6" height="6" fill="#02050c" class="ip" style="animation-delay:0.550s"/><rect x="120" y="48" width="6" height="6" fill="#02050c" class="ip" style="animation-delay:0.575s"/><rect x="126" y="48" width="6" height="6" fill="#02050c" class="ip" style="animation-delay:0.600s"/><rect x="36" y="54" width="6" height="6" fill="#02050c" class="ip" style="animation-delay:0.250s"/><rect x="42" y="54" width="6" height="6" fill="#02050c" class="ip" style="animation-delay:0.275s"/><rect x="48" y="54" width="6" height="6" fill="#02050c" class="ip" style="animation-delay:0.300s"/><rect x="54" y="54" width="6" height="6" fill="#02050c" class="ip" style="animation-delay:0.325s"/><rect x="60" y="54" width="6" height="6" fill="#02050c" class="ip" style="animation-delay:0.350s"/><rect x="66" y="54" width="6" height="6" fill="#02050c" class="ip" style="animation-delay:0.375s"/><rect x="72" y="54" width="6" height="6" fill="#02050c" class="ip" style="animation-delay:0.400s"/><rect x="78" y="54" width="6" height="6" fill="#02050c" class="ip" style="animation-delay:0.425s"/><rect x="84" y="54" width="6" height="6" fill="#02050c" class="ip" style="animation-delay:0.450s"/><rect x="90" y="54" width="6" height="6" fill="#02050c" class="ip" style="animation-delay:0.475s"/><rect x="96" y="54" width="6" height="6" fill="#02050c" class="ip" style="animation-delay:0.500s"/><rect x="102" y="54" width="6" height="6" fill="#02050c" class="ip" style="animation-delay:0.525s"/><rect x="108" y="54" width="6" height="6" fill="#02050c" class="ip" style="animation-delay:0.550s"/><rect x="114" y="54" width="6" height="6" fill="#02050c" class="ip" style="animation-delay:0.575s"/><rect x="120" y="54" width="6" height="6" fill="#02050c" class="ip" style="animation-delay:0.600s"/><rect x="126" y="54" width="6" height="6" fill="#02050c" class="ip" style="animation-delay:0.625s"/><rect x="36" y="60" width="6" height="6" fill="#02050c" class="ip" style="animation-delay:0.275s"/><rect x="42" y="60" width="6" height="6" fill="#02050c" class="ip" style="animation-delay:0.300s"/><rect x="48" y="60" width="6" height="6" fill="#02050c" class="ip" style="animation-delay:0.325s"/><rect x="54" y="60" width="6" height="6" fill="#02050c" class="ip" style="animation-delay:0.350s"/><rect x="60" y="60" width="6" height="6" fill="#02050c" class="ip" style="animation-delay:0.375s"/><rect x="66" y="60" width="6" height="6" fill="#02050c" class="ip" style="animation-delay:0.400s"/><rect x="72" y="60" width="6" height="6" fill="#02050c" class="ip" style="animation-delay:0.425s"/><rect x="78" y="60" width="6" height="6" fill="#02050c" class="ip" style="animation-delay:0.450s"/><rect x="84" y="60" width="6" height="6" fill="#02050c" class="ip" style="animation-delay:0.475s"/><rect x="90" y="60" width="6" height="6" fill="#02050c" class="ip" style="animation-delay:0.500s"/><rect x="96" y="60" width="6" height="6" fill="#02050c" class="ip" style="animation-delay:0.525s"/><rect x="102" y="60" width="6" height="6" fill="#02050c" class="ip" style="animation-delay:0.550s"/><rect x="108" y="60" width="6" height="6" fill="#02050c" class="ip" style="animation-delay:0.575s"/><rect x="114" y="60" width="6" height="6" fill="#02050c" class="ip" style="animation-delay:0.600s"/><rect x="120" y="60" width="6" height="6" fill="#02050c" class="ip" style="animation-delay:0.625s"/><rect x="126" y="60" width="6" height="6" fill="#02050c" class="ip" style="animation-delay:0.650s"/><rect x="36" y="66" width="6" height="6" fill="#02050c" class="ip" style="animation-delay:0.300s"/><rect x="42" y="66" width="6" height="6" fill="#02050c" class="ip" style="animation-delay:0.325s"/><rect x="48" y="66" width="6" height="6" fill="#1b1e24" class="ip" style="animation-delay:0.350s"/><rect x="54" y="66" width="6" height="6" fill="#4e5055" class="ip" style="animation-delay:0.375s"/><rect x="60" y="66" width="6" height="6" fill="#4e5055" class="ip" style="animation-delay:0.400s"/><rect x="66" y="66" width="6" height="6" fill="#4e5055" class="ip" style="animation-delay:0.425s"/><rect x="72" y="66" width="6" height="6" fill="#4e5055" class="ip" style="animation-delay:0.450s"/><rect x="78" y="66" width="6" height="6" fill="#4e5055" class="ip" style="animation-delay:0.475s"/><rect x="84" y="66" width="6" height="6" fill="#6f7175" class="ip" style="animation-delay:0.500s"/><rect x="90" y="66" width="6" height="6" fill="#6f7175" class="ip" style="animation-delay:0.525s"/><rect x="96" y="66" width="6" height="6" fill="#8a8b8f" class="ip" style="animation-delay:0.550s"/><rect x="102" y="66" width="6" height="6" fill="#6f7175" class="ip" style="animation-delay:0.575s"/><rect x="108" y="66" width="6" height="6" fill="#8a8b8f" class="ip" style="animation-delay:0.600s"/><rect x="114" y="66" width="6" height="6" fill="#aeafb1" class="ip" style="animation-delay:0.625s"/><rect x="120" y="66" width="6" height="6" fill="#1b1e24" class="ip" style="animation-delay:0.650s"/><rect x="126" y="66" width="6" height="6" fill="#02050c" class="ip" style="animation-delay:0.675s"/><rect x="36" y="72" width="6" height="6" fill="#02050c" class="ip" style="animation-delay:0.325s"/><rect x="42" y="72" width="6" height="6" fill="#02050c" class="ip" style="animation-delay:0.350s"/><rect x="48" y="72" width="6" height="6" fill="#8a8b8f" class="ip" style="animation-delay:0.375s"/><rect x="54" y="72" width="6" height="6" fill="#fbfbfb" class="ip" style="animation-delay:0.400s"/><rect x="60" y="72" width="6" height="6" fill="#fbfbfb" class="ip" style="animation-delay:0.425s"/><rect x="66" y="72" width="6" height="6" fill="#fbfbfb" class="ip" style="animation-delay:0.450s"/><rect x="72" y="72" width="6" height="6" fill="#fbfbfb" class="ip" style="animation-delay:0.475s"/><rect x="78" y="72" width="6" height="6" fill="#d0d1d2" class="ip" style="animation-delay:0.500s"/><rect x="84" y="72" width="6" height="6" fill="#fbfbfb" class="ip" style="animation-delay:0.525s"/><rect x="90" y="72" width="6" height="6" fill="#fbfbfb" class="ip" style="animation-delay:0.550s"/><rect x="96" y="72" width="6" height="6" fill="#fbfbfb" class="ip" style="animation-delay:0.575s"/><rect x="102" y="72" width="6" height="6" fill="#d0d1d2" class="ip" style="animation-delay:0.600s"/><rect x="108" y="72" width="6" height="6" fill="#fbfbfb" class="ip" style="animation-delay:0.625s"/><rect x="114" y="72" width="6" height="6" fill="#fbfbfb" class="ip" style="animation-delay:0.650s"/><rect x="120" y="72" width="6" height="6" fill="#1b1e24" class="ip" style="animation-delay:0.675s"/><rect x="126" y="72" width="6" height="6" fill="#02050c" class="ip" style="animation-delay:0.700s"/><rect x="36" y="78" width="6" height="6" fill="#02050c" class="ip" style="animation-delay:0.350s"/><rect x="42" y="78" width="6" height="6" fill="#02050c" class="ip" style="animation-delay:0.375s"/><rect x="48" y="78" width="6" height="6" fill="#d0d1d2" class="ip" style="animation-delay:0.400s"/><rect x="54" y="78" width="6" height="6" fill="#fbfbfb" class="ip" style="animation-delay:0.425s"/><rect x="60" y="78" width="6" height="6" fill="#fbfbfb" class="ip" style="animation-delay:0.450s"/><rect x="66" y="78" width="6" height="6" fill="#fbfbfb" class="ip" style="animation-delay:0.475s"/><rect x="72" y="78" width="6" height="6" fill="#d0d1d2" class="ip" style="animation-delay:0.500s"/><rect x="78" y="78" width="6" height="6" fill="#d0d1d2" class="ip" style="animation-delay:0.525s"/><rect x="84" y="78" width="6" height="6" fill="#d0d1d2" class="ip" style="animation-delay:0.550s"/><rect x="90" y="78" width="6" height="6" fill="#d0d1d2" class="ip" style="animation-delay:0.575s"/><rect x="96" y="78" width="6" height="6" fill="#fbfbfb" class="ip" style="animation-delay:0.600s"/><rect x="102" y="78" width="6" height="6" fill="#aeafb1" class="ip" style="animation-delay:0.625s"/><rect x="108" y="78" width="6" height="6" fill="#fbfbfb" class="ip" style="animation-delay:0.650s"/><rect x="114" y="78" width="6" height="6" fill="#fbfbfb" class="ip" style="animation-delay:0.675s"/><rect x="120" y="78" width="6" height="6" fill="#1b1e24" class="ip" style="animation-delay:0.700s"/><rect x="126" y="78" width="6" height="6" fill="#02050c" class="ip" style="animation-delay:0.725s"/><rect x="36" y="84" width="6" height="6" fill="#02050c" class="ip" style="animation-delay:0.375s"/><rect x="42" y="84" width="6" height="6" fill="#02050c" class="ip" style="animation-delay:0.400s"/><rect x="48" y="84" width="6" height="6" fill="#1b1e24" class="ip" style="animation-delay:0.425s"/><rect x="54" y="84" width="6" height="6" fill="#6f7175" class="ip" style="animation-delay:0.450s"/><rect x="60" y="84" width="6" height="6" fill="#fbfbfb" class="ip" style="animation-delay:0.475s"/><rect x="66" y="84" width="6" height="6" fill="#8a8b8f" class="ip" style="animation-delay:0.500s"/><rect x="72" y="84" width="6" height="6" fill="#1b1e24" class="ip" style="animation-delay:0.525s"/><rect x="78" y="84" width="6" height="6" fill="#fbfbfb" class="ip" style="animation-delay:0.550s"/><rect x="84" y="84" width="6" height="6" fill="#8a8b8f" class="ip" style="animation-delay:0.575s"/><rect x="90" y="84" width="6" height="6" fill="#d0d1d2" class="ip" style="animation-delay:0.600s"/><rect x="96" y="84" width="6" height="6" fill="#d0d1d2" class="ip" style="animation-delay:0.625s"/><rect x="102" y="84" width="6" height="6" fill="#aeafb1" class="ip" style="animation-delay:0.650s"/><rect x="108" y="84" width="6" height="6" fill="#fbfbfb" class="ip" style="animation-delay:0.675s"/><rect x="114" y="84" width="6" height="6" fill="#fbfbfb" class="ip" style="animation-delay:0.700s"/><rect x="120" y="84" width="6" height="6" fill="#1b1e24" class="ip" style="animation-delay:0.725s"/><rect x="126" y="84" width="6" height="6" fill="#02050c" class="ip" style="animation-delay:0.750s"/><rect x="36" y="90" width="6" height="6" fill="#02050c" class="ip" style="animation-delay:0.400s"/><rect x="42" y="90" width="6" height="6" fill="#02050c" class="ip" style="animation-delay:0.425s"/><rect x="48" y="90" width="6" height="6" fill="#02050c" class="ip" style="animation-delay:0.450s"/><rect x="54" y="90" width="6" height="6" fill="#aeafb1" class="ip" style="animation-delay:0.475s"/><rect x="60" y="90" width="6" height="6" fill="#fbfbfb" class="ip" style="animation-delay:0.500s"/><rect x="66" y="90" width="6" height="6" fill="#4e5055" class="ip" style="animation-delay:0.525s"/><rect x="72" y="90" width="6" height="6" fill="#6f7175" class="ip" style="animation-delay:0.550s"/><rect x="78" y="90" width="6" height="6" fill="#fbfbfb" class="ip" style="animation-delay:0.575s"/><rect x="84" y="90" width="6" height="6" fill="#6f7175" class="ip" style="animation-delay:0.600s"/><rect x="90" y="90" width="6" height="6" fill="#8a8b8f" class="ip" style="animation-delay:0.625s"/><rect x="96" y="90" width="6" height="6" fill="#aeafb1" class="ip" style="animation-delay:0.650s"/><rect x="102" y="90" width="6" height="6" fill="#aeafb1" class="ip" style="animation-delay:0.675s"/><rect x="108" y="90" width="6" height="6" fill="#fbfbfb" class="ip" style="animation-delay:0.700s"/><rect x="114" y="90" width="6" height="6" fill="#fbfbfb" class="ip" style="animation-delay:0.725s"/><rect x="120" y="90" width="6" height="6" fill="#1b1e24" class="ip" style="animation-delay:0.750s"/><rect x="126" y="90" width="6" height="6" fill="#02050c" class="ip" style="animation-delay:0.775s"/><rect x="36" y="96" width="6" height="6" fill="#02050c" class="ip" style="animation-delay:0.425s"/><rect x="42" y="96" width="6" height="6" fill="#02050c" class="ip" style="animation-delay:0.450s"/><rect x="48" y="96" width="6" height="6" fill="#02050c" class="ip" style="animation-delay:0.475s"/><rect x="54" y="96" width="6" height="6" fill="#fbfbfb" class="ip" style="animation-delay:0.500s"/><rect x="60" y="96" width="6" height="6" fill="#fbfbfb" class="ip" style="animation-delay:0.525s"/><rect x="66" y="96" width="6" height="6" fill="#1b1e24" class="ip" style="animation-delay:0.550s"/><rect x="72" y="96" width="6" height="6" fill="#aeafb1" class="ip" style="animation-delay:0.575s"/><rect x="78" y="96" width="6" height="6" fill="#fbfbfb" class="ip" style="animation-delay:0.600s"/><rect x="84" y="96" width="6" height="6" fill="#6f7175" class="ip" style="animation-delay:0.625s"/><rect x="90" y="96" width="6" height="6" fill="#fbfbfb" class="ip" style="animation-delay:0.650s"/><rect x="96" y="96" width="6" height="6" fill="#fbfbfb" class="ip" style="animation-delay:0.675s"/><rect x="102" y="96" width="6" height="6" fill="#aeafb1" class="ip" style="animation-delay:0.700s"/><rect x="108" y="96" width="6" height="6" fill="#fbfbfb" class="ip" style="animation-delay:0.725s"/><rect x="114" y="96" width="6" height="6" fill="#fbfbfb" class="ip" style="animation-delay:0.750s"/><rect x="120" y="96" width="6" height="6" fill="#1b1e24" class="ip" style="animation-delay:0.775s"/><rect x="126" y="96" width="6" height="6" fill="#02050c" class="ip" style="animation-delay:0.800s"/><rect x="36" y="102" width="6" height="6" fill="#02050c" class="ip" style="animation-delay:0.450s"/><rect x="42" y="102" width="6" height="6" fill="#02050c" class="ip" style="animation-delay:0.475s"/><rect x="48" y="102" width="6" height="6" fill="#4e5055" class="ip" style="animation-delay:0.500s"/><rect x="54" y="102" width="6" height="6" fill="#fbfbfb" class="ip" style="animation-delay:0.525s"/><rect x="60" y="102" width="6" height="6" fill="#d0d1d2" class="ip" style="animation-delay:0.550s"/><rect x="66" y="102" width="6" height="6" fill="#02050c" class="ip" style="animation-delay:0.575s"/><rect x="72" y="102" width="6" height="6" fill="#fbfbfb" class="ip" style="animation-delay:0.600s"/><rect x="78" y="102" width="6" height="6" fill="#fbfbfb" class="ip" style="animation-delay:0.625s"/><rect x="84" y="102" width="6" height="6" fill="#fbfbfb" class="ip" style="animation-delay:0.650s"/><rect x="90" y="102" width="6" height="6" fill="#fbfbfb" class="ip" style="animation-delay:0.675s"/><rect x="96" y="102" width="6" height="6" fill="#d0d1d2" class="ip" style="animation-delay:0.700s"/><rect x="102" y="102" width="6" height="6" fill="#d0d1d2" class="ip" style="animation-delay:0.725s"/><rect x="108" y="102" width="6" height="6" fill="#fbfbfb" class="ip" style="animation-delay:0.750s"/><rect x="114" y="102" width="6" height="6" fill="#fbfbfb" class="ip" style="animation-delay:0.775s"/><rect x="120" y="102" width="6" height="6" fill="#1b1e24" class="ip" style="animation-delay:0.800s"/><rect x="126" y="102" width="6" height="6" fill="#02050c" class="ip" style="animation-delay:0.825s"/><rect x="36" y="108" width="6" height="6" fill="#02050c" class="ip" style="animation-delay:0.475s"/><rect x="42" y="108" width="6" height="6" fill="#02050c" class="ip" style="animation-delay:0.500s"/><rect x="48" y="108" width="6" height="6" fill="#4e5055" class="ip" style="animation-delay:0.525s"/><rect x="54" y="108" width="6" height="6" fill="#8a8b8f" class="ip" style="animation-delay:0.550s"/><rect x="60" y="108" width="6" height="6" fill="#4e5055" class="ip" style="animation-delay:0.575s"/><rect x="66" y="108" width="6" height="6" fill="#1b1e24" class="ip" style="animation-delay:0.600s"/><rect x="72" y="108" width="6" height="6" fill="#8a8b8f" class="ip" style="animation-delay:0.625s"/><rect x="78" y="108" width="6" height="6" fill="#8a8b8f" class="ip" style="animation-delay:0.650s"/><rect x="84" y="108" width="6" height="6" fill="#8a8b8f" class="ip" style="animation-delay:0.675s"/><rect x="90" y="108" width="6" height="6" fill="#8a8b8f" class="ip" style="animation-delay:0.700s"/><rect x="96" y="108" width="6" height="6" fill="#4e5055" class="ip" style="animation-delay:0.725s"/><rect x="102" y="108" width="6" height="6" fill="#6f7175" class="ip" style="animation-delay:0.750s"/><rect x="108" y="108" width="6" height="6" fill="#6f7175" class="ip" style="animation-delay:0.775s"/><rect x="114" y="108" width="6" height="6" fill="#4e5055" class="ip" style="animation-delay:0.800s"/><rect x="120" y="108" width="6" height="6" fill="#02050c" class="ip" style="animation-delay:0.825s"/><rect x="126" y="108" width="6" height="6" fill="#02050c" class="ip" style="animation-delay:0.850s"/><rect x="36" y="114" width="6" height="6" fill="#02050c" class="ip" style="animation-delay:0.500s"/><rect x="42" y="114" width="6" height="6" fill="#02050c" class="ip" style="animation-delay:0.525s"/><rect x="48" y="114" width="6" height="6" fill="#02050c" class="ip" style="animation-delay:0.550s"/><rect x="54" y="114" width="6" height="6" fill="#02050c" class="ip" style="animation-delay:0.575s"/><rect x="60" y="114" width="6" height="6" fill="#02050c" class="ip" style="animation-delay:0.600s"/><rect x="66" y="114" width="6" height="6" fill="#02050c" class="ip" style="animation-delay:0.625s"/><rect x="72" y="114" width="6" height="6" fill="#02050c" class="ip" style="animation-delay:0.650s"/><rect x="78" y="114" width="6" height="6" fill="#02050c" class="ip" style="animation-delay:0.675s"/><rect x="84" y="114" width="6" height="6" fill="#02050c" class="ip" style="animation-delay:0.700s"/><rect x="90" y="114" width="6" height="6" fill="#02050c" class="ip" style="animation-delay:0.725s"/><rect x="96" y="114" width="6" height="6" fill="#02050c" class="ip" style="animation-delay:0.750s"/><rect x="102" y="114" width="6" height="6" fill="#02050c" class="ip" style="animation-delay:0.775s"/><rect x="108" y="114" width="6" height="6" fill="#02050c" class="ip" style="animation-delay:0.800s"/><rect x="114" y="114" width="6" height="6" fill="#02050c" class="ip" style="animation-delay:0.825s"/><rect x="120" y="114" width="6" height="6" fill="#02050c" class="ip" style="animation-delay:0.850s"/><rect x="126" y="114" width="6" height="6" fill="#02050c" class="ip" style="animation-delay:0.875s"/><rect x="36" y="120" width="6" height="6" fill="#02050c" class="ip" style="animation-delay:0.525s"/><rect x="42" y="120" width="6" height="6" fill="#02050c" class="ip" style="animation-delay:0.550s"/><rect x="48" y="120" width="6" height="6" fill="#02050c" class="ip" style="animation-delay:0.575s"/><rect x="54" y="120" width="6" height="6" fill="#02050c" class="ip" style="animation-delay:0.600s"/><rect x="60" y="120" width="6" height="6" fill="#02050c" class="ip" style="animation-delay:0.625s"/><rect x="66" y="120" width="6" height="6" fill="#02050c" class="ip" style="animation-delay:0.650s"/><rect x="72" y="120" width="6" height="6" fill="#02050c" class="ip" style="animation-delay:0.675s"/><rect x="78" y="120" width="6" height="6" fill="#02050c" class="ip" style="animation-delay:0.700s"/><rect x="84" y="120" width="6" height="6" fill="#02050c" class="ip" style="animation-delay:0.725s"/><rect x="90" y="120" width="6" height="6" fill="#02050c" class="ip" style="animation-delay:0.750s"/><rect x="96" y="120" width="6" height="6" fill="#02050c" class="ip" style="animation-delay:0.775s"/><rect x="102" y="120" width="6" height="6" fill="#02050c" class="ip" style="animation-delay:0.800s"/><rect x="108" y="120" width="6" height="6" fill="#02050c" class="ip" style="animation-delay:0.825s"/><rect x="114" y="120" width="6" height="6" fill="#02050c" class="ip" style="animation-delay:0.850s"/><rect x="120" y="120" width="6" height="6" fill="#02050c" class="ip" style="animation-delay:0.875s"/><rect x="126" y="120" width="6" height="6" fill="#02050c" class="ip" style="animation-delay:0.900s"/><rect x="36" y="126" width="6" height="6" fill="#02050c" class="ip" style="animation-delay:0.550s"/><rect x="42" y="126" width="6" height="6" fill="#02050c" class="ip" style="animation-delay:0.575s"/><rect x="48" y="126" width="6" height="6" fill="#02050c" class="ip" style="animation-delay:0.600s"/><rect x="54" y="126" width="6" height="6" fill="#02050c" class="ip" style="animation-delay:0.625s"/><rect x="60" y="126" width="6" height="6" fill="#02050c" class="ip" style="animation-delay:0.650s"/><rect x="66" y="126" width="6" height="6" fill="#02050c" class="ip" style="animation-delay:0.675s"/><rect x="72" y="126" width="6" height="6" fill="#02050c" class="ip" style="animation-delay:0.700s"/><rect x="78" y="126" width="6" height="6" fill="#02050c" class="ip" style="animation-delay:0.725s"/><rect x="84" y="126" width="6" height="6" fill="#02050c" class="ip" style="animation-delay:0.750s"/><rect x="90" y="126" width="6" height="6" fill="#02050c" class="ip" style="animation-delay:0.775s"/><rect x="96" y="126" width="6" height="6" fill="#02050c" class="ip" style="animation-delay:0.800s"/><rect x="102" y="126" width="6" height="6" fill="#02050c" class="ip" style="animation-delay:0.825s"/><rect x="108" y="126" width="6" height="6" fill="#02050c" class="ip" style="animation-delay:0.850s"/><rect x="114" y="126" width="6" height="6" fill="#02050c" class="ip" style="animation-delay:0.875s"/><rect x="120" y="126" width="6" height="6" fill="#02050c" class="ip" style="animation-delay:0.900s"/><rect x="126" y="126" width="6" height="6" fill="#02050c" class="ip" style="animation-delay:0.925s"/><rect x="36" y="132" width="6" height="6" fill="#02050c" class="ip" style="animation-delay:0.575s"/><rect x="42" y="132" width="6" height="6" fill="#02050c" class="ip" style="animation-delay:0.600s"/><rect x="48" y="132" width="6" height="6" fill="#02050c" class="ip" style="animation-delay:0.625s"/><rect x="54" y="132" width="6" height="6" fill="#02050c" class="ip" style="animation-delay:0.650s"/><rect x="60" y="132" width="6" height="6" fill="#02050c" class="ip" style="animation-delay:0.675s"/><rect x="66" y="132" width="6" height="6" fill="#02050c" class="ip" style="animation-delay:0.700s"/><rect x="72" y="132" width="6" height="6" fill="#02050c" class="ip" style="animation-delay:0.725s"/><rect x="78" y="132" width="6" height="6" fill="#02050c" class="ip" style="animation-delay:0.750s"/><rect x="84" y="132" width="6" height="6" fill="#02050c" class="ip" style="animation-delay:0.775s"/><rect x="90" y="132" width="6" height="6" fill="#02050c" class="ip" style="animation-delay:0.800s"/><rect x="96" y="132" width="6" height="6" fill="#02050c" class="ip" style="animation-delay:0.825s"/><rect x="102" y="132" width="6" height="6" fill="#02050c" class="ip" style="animation-delay:0.850s"/><rect x="108" y="132" width="6" height="6" fill="#02050c" class="ip" style="animation-delay:0.875s"/><rect x="114" y="132" width="6" height="6" fill="#02050c" class="ip" style="animation-delay:0.900s"/><rect x="120" y="132" width="6" height="6" fill="#02050c" class="ip" style="animation-delay:0.925s"/><rect x="126" y="132" width="6" height="6" fill="#02050c" class="ip" style="animation-delay:0.950s"/><rect x="24" y="30" width="120" height="120" fill="url(#scanc2)"/>
    <rect x="-40" y="0" width="60" height="200" fill="url(#shinec2)" transform="rotate(20)" class="shine"/></g>
  <text x="84" y="178" text-anchor="middle" font-family="ui-monospace,SFMono-Regular,'JetBrains Mono',Menlo,Consolas,monospace" font-size="11" fill="#6b8577">#03</text>
  <rect x="170" y="34" width="3" height="3" fill="#fff"/><rect x="173" y="34" width="3" height="3" fill="#fff"/><rect x="176" y="34" width="3" height="3" fill="#fff"/><rect x="179" y="34" width="3" height="3" fill="#fff"/><rect x="182" y="34" width="3" height="3" fill="#fff"/><rect x="176" y="37" width="3" height="3" fill="#fff"/><rect x="176" y="40" width="3" height="3" fill="#fff"/><rect x="176" y="43" width="3" height="3" fill="#fff"/><rect x="176" y="46" width="3" height="3" fill="#fff"/><rect x="176" y="49" width="3" height="3" fill="#fff"/><rect x="176" y="52" width="3" height="3" fill="#fff"/><rect x="188" y="34" width="3" height="3" fill="#fff"/><rect x="191" y="34" width="3" height="3" fill="#fff"/><rect x="194" y="34" width="3" height="3" fill="#fff"/><rect x="197" y="34" width="3" height="3" fill="#fff"/><rect x="200" y="34" width="3" height="3" fill="#fff"/><rect x="188" y="37" width="3" height="3" fill="#fff"/><rect x="188" y="40" width="3" height="3" fill="#fff"/><rect x="188" y="43" width="3" height="3" fill="#fff"/><rect x="191" y="43" width="3" height="3" fill="#fff"/><rect x="194" y="43" width="3" height="3" fill="#fff"/><rect x="197" y="43" width="3" height="3" fill="#fff"/><rect x="188" y="46" width="3" height="3" fill="#fff"/><rect x="188" y="49" width="3" height="3" fill="#fff"/><rect x="188" y="52" width="3" height="3" fill="#fff"/><rect x="191" y="52" width="3" height="3" fill="#fff"/><rect x="194" y="52" width="3" height="3" fill="#fff"/><rect x="197" y="52" width="3" height="3" fill="#fff"/><rect x="200" y="52" width="3" height="3" fill="#fff"/><rect x="209" y="34" width="3" height="3" fill="#fff"/><rect x="212" y="34" width="3" height="3" fill="#fff"/><rect x="215" y="34" width="3" height="3" fill="#fff"/><rect x="206" y="37" width="3" height="3" fill="#fff"/><rect x="218" y="37" width="3" height="3" fill="#fff"/><rect x="206" y="40" width="3" height="3" fill="#fff"/><rect x="206" y="43" width="3" height="3" fill="#fff"/><rect x="212" y="43" width="3" height="3" fill="#fff"/><rect x="215" y="43" width="3" height="3" fill="#fff"/><rect x="218" y="43" width="3" height="3" fill="#fff"/><rect x="206" y="46" width="3" height="3" fill="#fff"/><rect x="218" y="46" width="3" height="3" fill="#fff"/><rect x="206" y="49" width="3" height="3" fill="#fff"/><rect x="218" y="49" width="3" height="3" fill="#fff"/><rect x="209" y="52" width="3" height="3" fill="#fff"/><rect x="212" y="52" width="3" height="3" fill="#fff"/><rect x="215" y="52" width="3" height="3" fill="#fff"/><rect x="218" y="52" width="3" height="3" fill="#fff"/><rect x="224" y="34" width="3" height="3" fill="#fff"/><rect x="227" y="34" width="3" height="3" fill="#fff"/><rect x="230" y="34" width="3" height="3" fill="#fff"/><rect x="233" y="34" width="3" height="3" fill="#fff"/><rect x="224" y="37" width="3" height="3" fill="#fff"/><rect x="236" y="37" width="3" height="3" fill="#fff"/><rect x="224" y="40" width="3" height="3" fill="#fff"/><rect x="236" y="40" width="3" height="3" fill="#fff"/><rect x="224" y="43" width="3" height="3" fill="#fff"/><rect x="227" y="43" width="3" height="3" fill="#fff"/><rect x="230" y="43" width="3" height="3" fill="#fff"/><rect x="233" y="43" width="3" height="3" fill="#fff"/><rect x="224" y="46" width="3" height="3" fill="#fff"/><rect x="230" y="46" width="3" height="3" fill="#fff"/><rect x="224" y="49" width="3" height="3" fill="#fff"/><rect x="233" y="49" width="3" height="3" fill="#fff"/><rect x="224" y="52" width="3" height="3" fill="#fff"/><rect x="236" y="52" width="3" height="3" fill="#fff"/><rect x="245" y="34" width="3" height="3" fill="#fff"/><rect x="248" y="34" width="3" height="3" fill="#fff"/><rect x="251" y="34" width="3" height="3" fill="#fff"/><rect x="248" y="37" width="3" height="3" fill="#fff"/><rect x="248" y="40" width="3" height="3" fill="#fff"/><rect x="248" y="43" width="3" height="3" fill="#fff"/><rect x="248" y="46" width="3" height="3" fill="#fff"/><rect x="248" y="49" width="3" height="3" fill="#fff"/><rect x="245" y="52" width="3" height="3" fill="#fff"/><rect x="248" y="52" width="3" height="3" fill="#fff"/><rect x="251" y="52" width="3" height="3" fill="#fff"/><rect x="263" y="34" width="3" height="3" fill="#fff"/><rect x="266" y="34" width="3" height="3" fill="#fff"/><rect x="269" y="34" width="3" height="3" fill="#fff"/><rect x="260" y="37" width="3" height="3" fill="#fff"/><rect x="272" y="37" width="3" height="3" fill="#fff"/><rect x="260" y="40" width="3" height="3" fill="#fff"/><rect x="272" y="40" width="3" height="3" fill="#fff"/><rect x="260" y="43" width="3" height="3" fill="#fff"/><rect x="263" y="43" width="3" height="3" fill="#fff"/><rect x="266" y="43" width="3" height="3" fill="#fff"/><rect x="269" y="43" width="3" height="3" fill="#fff"/><rect x="272" y="43" width="3" height="3" fill="#fff"/><rect x="260" y="46" width="3" height="3" fill="#fff"/><rect x="272" y="46" width="3" height="3" fill="#fff"/><rect x="260" y="49" width="3" height="3" fill="#fff"/><rect x="272" y="49" width="3" height="3" fill="#fff"/><rect x="260" y="52" width="3" height="3" fill="#fff"/><rect x="272" y="52" width="3" height="3" fill="#fff"/><rect x="281" y="34" width="3" height="3" fill="#fff"/><rect x="284" y="34" width="3" height="3" fill="#fff"/><rect x="287" y="34" width="3" height="3" fill="#fff"/><rect x="284" y="37" width="3" height="3" fill="#fff"/><rect x="284" y="40" width="3" height="3" fill="#fff"/><rect x="284" y="43" width="3" height="3" fill="#fff"/><rect x="284" y="46" width="3" height="3" fill="#fff"/><rect x="284" y="49" width="3" height="3" fill="#fff"/><rect x="281" y="52" width="3" height="3" fill="#fff"/><rect x="284" y="52" width="3" height="3" fill="#fff"/><rect x="287" y="52" width="3" height="3" fill="#fff"/>
  <circle cx="176" cy="75" r="4.5" fill="#6b70ff" class="led"/>
  <text x="188" y="80" font-family="ui-monospace,SFMono-Regular,'JetBrains Mono',Menlo,Consolas,monospace" font-size="13" fill="#6b8577">live · tegriai.com</text>
  <text x="170" y="108" font-family="ui-monospace,SFMono-Regular,'JetBrains Mono',Menlo,Consolas,monospace" font-size="14.5" fill="#d7e4dc">The most Israeli place on the net — a</text><text x="170" y="130" font-family="ui-monospace,SFMono-Regular,'JetBrains Mono',Menlo,Consolas,monospace" font-size="14.5" fill="#d7e4dc">Discord + YouTube community to play, chat</text><text x="170" y="152" font-family="ui-monospace,SFMono-Regular,'JetBrains Mono',Menlo,Consolas,monospace" font-size="14.5" fill="#d7e4dc">and hang out.</text>
  <rect x="170" y="176" width="88.2" height="22" rx="4" fill="#6b70ff" fill-opacity=".1" stroke="#6b70ff" stroke-opacity=".4"/>
      <text x="214.1" y="191" text-anchor="middle" font-family="ui-monospace,SFMono-Regular,'JetBrains Mono',Menlo,Consolas,monospace" font-size="12" fill="#6b70ff">community</text><rect x="266.2" y="176" width="72.6" height="22" rx="4" fill="#6b70ff" fill-opacity=".1" stroke="#6b70ff" stroke-opacity=".4"/>
      <text x="302.5" y="191" text-anchor="middle" font-family="ui-monospace,SFMono-Regular,'JetBrains Mono',Menlo,Consolas,monospace" font-size="12" fill="#6b70ff">discord</text><rect x="346.79999999999995" y="176" width="72.6" height="22" rx="4" fill="#6b70ff" fill-opacity=".1" stroke="#6b70ff" stroke-opacity=".4"/>
      <text x="383.09999999999997" y="191" text-anchor="middle" font-family="ui-monospace,SFMono-Regular,'JetBrains Mono',Menlo,Consolas,monospace" font-size="12" fill="#6b70ff">youtube</text>
  <g class="arrow"><text x="554" y="192" text-anchor="end" font-family="ui-monospace,SFMono-Regular,'JetBrains Mono',Menlo,Consolas,monospace" font-size="14" font-weight="700" fill="#6b70ff">OPEN ▸</text></g></svg>