<svg xmlns="http://www.w3.org/2000/svg" width="1200" height="300" viewBox="0 0 1200 300" role="img" aria-label="whoami — Liam Abu: builds tools, ships them, then tries to break them"><title>whoami — Liam Abu: builds tools, ships them, then tries to break them</title>
  <defs>
  <pattern id="scanab" width="4" height="4" patternUnits="userSpaceOnUse"><rect width="4" height="1" fill="#ffffff" opacity="0.12"/></pattern>
  <radialGradient id="vigab" cx="50%" cy="50%" r="75%"><stop offset="60%" stop-color="#ffffff" stop-opacity="0"/><stop offset="100%" stop-color="#ffffff" stop-opacity="0.4"/></radialGradient>
  <linearGradient id="bandab" x1="0" y1="0" x2="0" y2="1"><stop offset="0" stop-color="#0f9d58" stop-opacity="0"/><stop offset=".5" stop-color="#0f9d58" stop-opacity=".06"/><stop offset="1" stop-color="#0f9d58" stop-opacity="0"/></linearGradient>
  <filter id="glowab" x="-20%" y="-20%" width="140%" height="140%"><feGaussianBlur stdDeviation="4" result="b"/><feMerge><feMergeNode in="b"/><feMergeNode in="SourceGraphic"/></feMerge></filter>
  <clipPath id="screenab"><rect width="1200" height="300" rx="16"/></clipPath>
    <pattern id="abgrid" width="24" height="24" patternUnits="userSpaceOnUse"><path d="M24 0H0V24" fill="none" stroke="#0f9d58" stroke-opacity=".045"/></pattern>
  </defs>
  <style>
    .fd{opacity:0;animation:fd .25s ease-out forwards}
    @keyframes fd{to{opacity:1}}
    .blink{animation:fd .25s ease-out forwards,bl 1s steps(1) infinite}
    @keyframes bl{50%{opacity:0}}
    .bob{animation:bob 2.4s steps(2) infinite}
    @keyframes bob{50%{transform:translateY(-4px)}}
    .zap{animation:zap 3.6s steps(1) infinite}
    @keyframes zap{0%,88%,100%{opacity:0}90%{opacity:.75}92%{opacity:0}94%{opacity:.5}96%{opacity:0}}
    .halo{animation:halo 3.6s ease-in-out infinite}
    @keyframes halo{0%,100%{opacity:.08}50%{opacity:.2}}
  </style>
  <g clip-path="url(#screenab)">
    
  <rect width="1200" height="300" fill="#f6f8f7"/>
  <rect width="1200" height="34" fill="#ffffff"/>
  <line x1="0" y1="34" x2="1200" y2="34" stroke="#d3ddd7"/>
  <rect x="18" y="12" width="10" height="10" fill="#d6204b" opacity=".85"/>
  <rect x="36" y="12" width="10" height="10" fill="#b7791f" opacity=".85"/>
  <rect x="54" y="12" width="10" height="10" fill="#0f9d58" opacity=".85"/>
  <text x="600" y="21" font-family="ui-monospace,SFMono-Regular,'JetBrains Mono',Menlo,Consolas,monospace" font-size="12" font-weight="400" fill="#5f7368" text-anchor="middle" xml:space="preserve">liam@plus: ~ — whoami</text>
    <rect y="34" width="1200" height="266" fill="url(#abgrid)"/>
    <text x="48" y="80" font-family="ui-monospace,SFMono-Regular,'JetBrains Mono',Menlo,Consolas,monospace" font-size="18" textLength="129.6" lengthAdjust="spacing" class="fd" style="animation-delay:0.40s"><tspan fill="#0f9d58" font-weight="700">liam@plus</tspan><tspan fill="#5f7368">:~$</tspan></text>
    <clipPath id="tab0"><rect x="193.79999999999998" y="62" width="0" height="25.2">
      <animate attributeName="width" values="0.0;10.8;21.6;32.4;43.2;54.0;64.8" dur="0.43s" begin="0.75s" calcMode="discrete" fill="freeze"/></rect></clipPath>
    <text x="193.79999999999998" y="80" font-family="ui-monospace,SFMono-Regular,'JetBrains Mono',Menlo,Consolas,monospace" font-size="18" font-weight="400" fill="#1f2a24" clip-path="url(#tab0)" xml:space="preserve">whoami</text>
    <text x="48" y="109" font-family="ui-monospace,SFMono-Regular,'JetBrains Mono',Menlo,Consolas,monospace" font-size="18" font-weight="700" fill="#0b1510" class="fd" style="animation-delay:1.53s" xml:space="preserve">liam abu  //  cyber security · networking · tool builder</text>
    <text x="48" y="148" font-family="ui-monospace,SFMono-Regular,'JetBrains Mono',Menlo,Consolas,monospace" font-size="18" textLength="129.6" lengthAdjust="spacing" class="fd" style="animation-delay:1.75s"><tspan fill="#0f9d58" font-weight="700">liam@plus</tspan><tspan fill="#5f7368">:~$</tspan></text>
    <clipPath id="tab3"><rect x="193.79999999999998" y="130" width="0" height="25.2">
      <animate attributeName="width" values="0.0;10.8;21.6;32.4;43.2;54.0;64.8;75.6;86.4;97.2;108.0;118.8;129.6" dur="0.86s" begin="2.0985714285714283s" calcMode="discrete" fill="freeze"/></rect></clipPath>
    <text x="193.79999999999998" y="148" font-family="ui-monospace,SFMono-Regular,'JetBrains Mono',Menlo,Consolas,monospace" font-size="18" font-weight="400" fill="#1f2a24" clip-path="url(#tab3)" xml:space="preserve">cat ~/.about</text>
    <text x="48" y="177" font-family="ui-monospace,SFMono-Regular,'JetBrains Mono',Menlo,Consolas,monospace" font-size="18" font-weight="400" fill="#1f2a24" class="fd" style="animation-delay:3.31s" xml:space="preserve">&gt; builds tools, ships them, then tries to break them.</text>
    <text x="48" y="206" font-family="ui-monospace,SFMono-Regular,'JetBrains Mono',Menlo,Consolas,monospace" font-size="18" font-weight="400" fill="#1f2a24" class="fd" style="animation-delay:3.53s" xml:space="preserve">&gt; networks · security · game servers · pixels.</text>
    <text x="48" y="235" font-family="ui-monospace,SFMono-Regular,'JetBrains Mono',Menlo,Consolas,monospace" font-size="18" font-weight="400" fill="#1f2a24" class="fd" style="animation-delay:3.75s" xml:space="preserve">&gt; online since 2019 · based in israel · home: liam.plus</text>
    <text x="48" y="274" font-family="ui-monospace,SFMono-Regular,'JetBrains Mono',Menlo,Consolas,monospace" font-size="18" textLength="129.6" lengthAdjust="spacing" class="fd" style="animation-delay:3.97s"><tspan fill="#0f9d58" font-weight="700">liam@plus</tspan><tspan fill="#5f7368">:~$</tspan></text>
    <rect x="193.79999999999998" y="259" width="10.799999999999999" height="20" fill="#0f9d58" class="fd blink" style="animation-delay:3.97s,3.97s"/>
    <line x1="916" y1="58" x2="916" y2="276" stroke="#d3ddd7" stroke-dasharray="2 6"/>
    <rect x="946" y="50" width="196" height="196" fill="#0f9d58" class="halo" filter="url(#glowab)" opacity=".2"/>
    <g class="bob">
      <rect x="954" y="58" width="180" height="180" fill="#ffffff" opacity="0.9"/>
      <rect x="960" y="64" width="7" height="7" fill="#432b1c"/><rect x="967" y="64" width="7" height="7" fill="#442c1d"/><rect x="974" y="64" width="7" height="7" fill="#372317"/><rect x="981" y="64" width="7" height="7" fill="#4a2f1e"/><rect x="988" y="64" width="7" height="7" fill="#4b301f"/><rect x="995" y="64" width="7" height="7" fill="#533622"/><rect x="1002" y="64" width="7" height="7" fill="#4f3321"/><rect x="1009" y="64" width="7" height="7" fill="#4d3120"/><rect x="1016" y="64" width="7" height="7" fill="#472d1d"/><rect x="1023" y="64" width="7" height="7" fill="#573824"/><rect x="1030" y="64" width="7" height="7" fill="#5e3d27"/><rect x="1037" y="64" width="7" height="7" fill="#573924"/><rect x="1044" y="64" width="7" height="7" fill="#4d311f"/><rect x="1051" y="64" width="7" height="7" fill="#4f3321"/><rect x="1058" y="64" width="7" height="7" fill="#583924"/><rect x="1065" y="64" width="7" height="7" fill="#472d1e"/><rect x="1072" y="64" width="7" height="7" fill="#4b301f"/><rect x="1079" y="64" width="7" height="7" fill="#4b301f"/><rect x="1086" y="64" width="7" height="7" fill="#4c311f"/><rect x="1093" y="64" width="7" height="7" fill="#40291c"/><rect x="1100" y="64" width="7" height="7" fill="#352116"/><rect x="1107" y="64" width="7" height="7" fill="#4a2f1f"/><rect x="1114" y="64" width="7" height="7" fill="#4a2f1e"/><rect x="1121" y="64" width="7" height="7" fill="#352116"/><rect x="960" y="71" width="7" height="7" fill="#372317"/><rect x="967" y="71" width="7" height="7" fill="#352216"/><rect x="974" y="71" width="7" height="7" fill="#382418"/><rect x="981" y="71" width="7" height="7" fill="#4c3120"/><rect x="988" y="71" width="7" height="7" fill="#5a3a25"/><rect x="995" y="71" width="7" height="7" fill="#4a2f1f"/><rect x="1002" y="71" width="7" height="7" fill="#492e1e"/><rect x="1009" y="71" width="7" height="7" fill="#3e281b"/><rect x="1016" y="71" width="7" height="7" fill="#513421"/><rect x="1023" y="71" width="7" height="7" fill="#4f3320"/><rect x="1030" y="71" width="7" height="7" fill="#432b1c"/><rect x="1037" y="71" width="7" height="7" fill="#462d1e"/><rect x="1044" y="71" width="7" height="7" fill="#412a1c"/><rect x="1051" y="71" width="7" height="7" fill="#503421"/><rect x="1058" y="71" width="7" height="7" fill="#462d1d"/><rect x="1065" y="71" width="7" height="7" fill="#533522"/><rect x="1072" y="71" width="7" height="7" fill="#4d3220"/><rect x="1079" y="71" width="7" height="7" fill="#442c1d"/><rect x="1086" y="71" width="7" height="7" fill="#4b301f"/><rect x="1093" y="71" width="7" height="7" fill="#472e1e"/><rect x="1100" y="71" width="7" height="7" fill="#4c301f"/><rect x="1107" y="71" width="7" height="7" fill="#3d271a"/><rect x="1114" y="71" width="7" height="7" fill="#372317"/><rect x="1121" y="71" width="7" height="7" fill="#452d1d"/><rect x="960" y="78" width="7" height="7" fill="#362317"/><rect x="967" y="78" width="7" height="7" fill="#492e1e"/><rect x="974" y="78" width="7" height="7" fill="#492e1e"/><rect x="981" y="78" width="7" height="7" fill="#573824"/><rect x="988" y="78" width="7" height="7" fill="#4b301f"/><rect x="995" y="78" width="7" height="7" fill="#4c311f"/><rect x="1002" y="78" width="7" height="7" fill="#4b301f"/><rect x="1009" y="78" width="7" height="7" fill="#4b301f"/><rect x="1016" y="78" width="7" height="7" fill="#543622"/><rect x="1023" y="78" width="7" height="7" fill="#3e281a"/><rect x="1030" y="78" width="7" height="7" fill="#412a1c"/><rect x="1037" y="78" width="7" height="7" fill="#21150f"/><rect x="1044" y="78" width="7" height="7" fill="#21150e"/><rect x="1051" y="78" width="7" height="7" fill="#21150e"/><rect x="1058" y="78" width="7" height="7" fill="#21150e"/><rect x="1065" y="78" width="7" height="7" fill="#22160f"/><rect x="1072" y="78" width="7" height="7" fill="#24170f"/><rect x="1079" y="78" width="7" height="7" fill="#4e3220"/><rect x="1086" y="78" width="7" height="7" fill="#382417"/><rect x="1093" y="78" width="7" height="7" fill="#553723"/><rect x="1100" y="78" width="7" height="7" fill="#4d3120"/><rect x="1107" y="78" width="7" height="7" fill="#3f291b"/><rect x="1114" y="78" width="7" height="7" fill="#472d1d"/><rect x="1121" y="78" width="7" height="7" fill="#3e281b"/><rect x="960" y="85" width="7" height="7" fill="#492e1e"/><rect x="967" y="85" width="7" height="7" fill="#4a2f1e"/><rect x="974" y="85" width="7" height="7" fill="#573824"/><rect x="981" y="85" width="7" height="7" fill="#4d311f"/><rect x="988" y="85" width="7" height="7" fill="#412a1c"/><rect x="995" y="85" width="7" height="7" fill="#382418"/><rect x="1002" y="85" width="7" height="7" fill="#432b1c"/><rect x="1009" y="85" width="7" height="7" fill="#4e3220"/><rect x="1016" y="85" width="7" height="7" fill="#4d3220"/><rect x="1023" y="85" width="7" height="7" fill="#503321"/><rect x="1030" y="85" width="7" height="7" fill="#20140e"/><rect x="1037" y="85" width="7" height="7" fill="#3b1f10"/><rect x="1044" y="85" width="7" height="7" fill="#f08a1e"/><rect x="1051" y="85" width="7" height="7" fill="#da6a19"/><rect x="1058" y="85" width="7" height="7" fill="#f9a423"/><rect x="1065" y="85" width="7" height="7" fill="#f8a022"/><rect x="1072" y="85" width="7" height="7" fill="#692c0f"/><rect x="1079" y="85" width="7" height="7" fill="#21150e"/><rect x="1086" y="85" width="7" height="7" fill="#4f3320"/><rect x="1093" y="85" width="7" height="7" fill="#422b1c"/><rect x="1100" y="85" width="7" height="7" fill="#563723"/><rect x="1107" y="85" width="7" height="7" fill="#553723"/><rect x="1114" y="85" width="7" height="7" fill="#472d1d"/><rect x="1121" y="85" width="7" height="7" fill="#3f291b"/><rect x="960" y="92" width="7" height="7" fill="#412a1c"/><rect x="967" y="92" width="7" height="7" fill="#4f3320"/><rect x="974" y="92" width="7" height="7" fill="#563823"/><rect x="981" y="92" width="7" height="7" fill="#4f3320"/><rect x="988" y="92" width="7" height="7" fill="#4d3120"/><rect x="995" y="92" width="7" height="7" fill="#4f3321"/><rect x="1002" y="92" width="7" height="7" fill="#4f3321"/><rect x="1009" y="92" width="7" height="7" fill="#5c3c26"/><rect x="1016" y="92" width="7" height="7" fill="#4c311f"/><rect x="1023" y="92" width="7" height="7" fill="#392418"/><rect x="1030" y="92" width="7" height="7" fill="#20140e"/><rect x="1037" y="92" width="7" height="7" fill="#feb826"/><rect x="1044" y="92" width="7" height="7" fill="#fff059"/><rect x="1051" y="92" width="7" height="7" fill="#fff059"/><rect x="1058" y="92" width="7" height="7" fill="#ffc22a"/><rect x="1065" y="92" width="7" height="7" fill="#f0891e"/><rect x="1072" y="92" width="7" height="7" fill="#362216"/><rect x="1079" y="92" width="7" height="7" fill="#1b110c"/><rect x="1086" y="92" width="7" height="7" fill="#4e3220"/><rect x="1093" y="92" width="7" height="7" fill="#4e3220"/><rect x="1100" y="92" width="7" height="7" fill="#4b301f"/><rect x="1107" y="92" width="7" height="7" fill="#4b301f"/><rect x="1114" y="92" width="7" height="7" fill="#4d3220"/><rect x="1121" y="92" width="7" height="7" fill="#342116"/><rect x="960" y="99" width="7" height="7" fill="#3f291b"/><rect x="967" y="99" width="7" height="7" fill="#342116"/><rect x="974" y="99" width="7" height="7" fill="#382317"/><rect x="981" y="99" width="7" height="7" fill="#382418"/><rect x="988" y="99" width="7" height="7" fill="#503321"/><rect x="995" y="99" width="7" height="7" fill="#5c3c26"/><rect x="1002" y="99" width="7" height="7" fill="#4f3321"/><rect x="1009" y="99" width="7" height="7" fill="#4e3220"/><rect x="1016" y="99" width="7" height="7" fill="#503320"/><rect x="1023" y="99" width="7" height="7" fill="#1e130e"/><rect x="1030" y="99" width="7" height="7" fill="#d76d1a"/><rect x="1037" y="99" width="7" height="7" fill="#fff15a"/><rect x="1044" y="99" width="7" height="7" fill="#fff15a"/><rect x="1051" y="99" width="7" height="7" fill="#febc28"/><rect x="1058" y="99" width="7" height="7" fill="#febd28"/><rect x="1065" y="99" width="7" height="7" fill="#331f15"/><rect x="1072" y="99" width="7" height="7" fill="#19100b"/><rect x="1079" y="99" width="7" height="7" fill="#583924"/><rect x="1086" y="99" width="7" height="7" fill="#583924"/><rect x="1093" y="99" width="7" height="7" fill="#513421"/><rect x="1100" y="99" width="7" height="7" fill="#392518"/><rect x="1107" y="99" width="7" height="7" fill="#382418"/><rect x="1114" y="99" width="7" height="7" fill="#4d311f"/><rect x="1121" y="99" width="7" height="7" fill="#4a2f1e"/><rect x="960" y="106" width="7" height="7" fill="#4e3220"/><rect x="967" y="106" width="7" height="7" fill="#412a1c"/><rect x="974" y="106" width="7" height="7" fill="#4d311f"/><rect x="981" y="106" width="7" height="7" fill="#573924"/><rect x="988" y="106" width="7" height="7" fill="#523522"/><rect x="995" y="106" width="7" height="7" fill="#503421"/><rect x="1002" y="106" width="7" height="7" fill="#4f3321"/><rect x="1009" y="106" width="7" height="7" fill="#442c1d"/><rect x="1016" y="106" width="7" height="7" fill="#3a2518"/><rect x="1023" y="106" width="7" height="7" fill="#20140e"/><rect x="1030" y="106" width="7" height="7" fill="#ffc22a"/><rect x="1037" y="106" width="7" height="7" fill="#fff05a"/><rect x="1044" y="106" width="7" height="7" fill="#fff15a"/><rect x="1051" y="106" width="7" height="7" fill="#ffc02a"/><rect x="1058" y="106" width="7" height="7" fill="#d96a19"/><rect x="1065" y="106" width="7" height="7" fill="#1a100c"/><rect x="1072" y="106" width="7" height="7" fill="#4c311f"/><rect x="1079" y="106" width="7" height="7" fill="#5c3c26"/><rect x="1086" y="106" width="7" height="7" fill="#472d1e"/><rect x="1093" y="106" width="7" height="7" fill="#3b2619"/><rect x="1100" y="106" width="7" height="7" fill="#3d271a"/><rect x="1107" y="106" width="7" height="7" fill="#503321"/><rect x="1114" y="106" width="7" height="7" fill="#3a2518"/><rect x="1121" y="106" width="7" height="7" fill="#372317"/><rect x="960" y="113" width="7" height="7" fill="#482e1e"/><rect x="967" y="113" width="7" height="7" fill="#4f3220"/><rect x="974" y="113" width="7" height="7" fill="#4c311f"/><rect x="981" y="113" width="7" height="7" fill="#492f1f"/><rect x="988" y="113" width="7" height="7" fill="#4f3320"/><rect x="995" y="113" width="7" height="7" fill="#3b2619"/><rect x="1002" y="113" width="7" height="7" fill="#4d321f"/><rect x="1009" y="113" width="7" height="7" fill="#543723"/><rect x="1016" y="113" width="7" height="7" fill="#20140e"/><rect x="1023" y="113" width="7" height="7" fill="#ee851d"/><rect x="1030" y="113" width="7" height="7" fill="#fff059"/><rect x="1037" y="113" width="7" height="7" fill="#fff059"/><rect x="1044" y="113" width="7" height="7" fill="#ffbf29"/><rect x="1051" y="113" width="7" height="7" fill="#faa723"/><rect x="1058" y="113" width="7" height="7" fill="#1d120d"/><rect x="1065" y="113" width="7" height="7" fill="#4d311f"/><rect x="1072" y="113" width="7" height="7" fill="#4c301f"/><rect x="1079" y="113" width="7" height="7" fill="#4e3220"/><rect x="1086" y="113" width="7" height="7" fill="#492f1f"/><rect x="1093" y="113" width="7" height="7" fill="#503421"/><rect x="1100" y="113" width="7" height="7" fill="#3e281b"/><rect x="1107" y="113" width="7" height="7" fill="#553723"/><rect x="1114" y="113" width="7" height="7" fill="#553723"/><rect x="1121" y="113" width="7" height="7" fill="#4b301f"/><rect x="960" y="120" width="7" height="7" fill="#452d1d"/><rect x="967" y="120" width="7" height="7" fill="#442c1d"/><rect x="974" y="120" width="7" height="7" fill="#392518"/><rect x="981" y="120" width="7" height="7" fill="#4d311f"/><rect x="988" y="120" width="7" height="7" fill="#4b311f"/><rect x="995" y="120" width="7" height="7" fill="#4e3220"/><rect x="1002" y="120" width="7" height="7" fill="#553723"/><rect x="1009" y="120" width="7" height="7" fill="#392418"/><rect x="1016" y="120" width="7" height="7" fill="#21160f"/><rect x="1023" y="120" width="7" height="7" fill="#ffc12a"/><rect x="1030" y="120" width="7" height="7" fill="#fff059"/><rect x="1037" y="120" width="7" height="7" fill="#ffef58"/><rect x="1044" y="120" width="7" height="7" fill="#ffc32b"/><rect x="1051" y="120" width="7" height="7" fill="#46210f"/><rect x="1058" y="120" width="7" height="7" fill="#22150e"/><rect x="1065" y="120" width="7" height="7" fill="#21150e"/><rect x="1072" y="120" width="7" height="7" fill="#21150f"/><rect x="1079" y="120" width="7" height="7" fill="#22160f"/><rect x="1086" y="120" width="7" height="7" fill="#4f3220"/><rect x="1093" y="120" width="7" height="7" fill="#472e1e"/><rect x="1100" y="120" width="7" height="7" fill="#4b301e"/><rect x="1107" y="120" width="7" height="7" fill="#492e1e"/><rect x="1114" y="120" width="7" height="7" fill="#3f291b"/><rect x="1121" y="120" width="7" height="7" fill="#4e3220"/><rect x="960" y="127" width="7" height="7" fill="#3a2519"/><rect x="967" y="127" width="7" height="7" fill="#4d311f"/><rect x="974" y="127" width="7" height="7" fill="#573823"/><rect x="981" y="127" width="7" height="7" fill="#523522"/><rect x="988" y="127" width="7" height="7" fill="#40291c"/><rect x="995" y="127" width="7" height="7" fill="#513421"/><rect x="1002" y="127" width="7" height="7" fill="#422b1c"/><rect x="1009" y="127" width="7" height="7" fill="#21150e"/><rect x="1016" y="127" width="7" height="7" fill="#f89e22"/><rect x="1023" y="127" width="7" height="7" fill="#fff15a"/><rect x="1030" y="127" width="7" height="7" fill="#fff15a"/><rect x="1037" y="127" width="7" height="7" fill="#feb926"/><rect x="1044" y="127" width="7" height="7" fill="#e16e19"/><rect x="1051" y="127" width="7" height="7" fill="#e6741a"/><rect x="1058" y="127" width="7" height="7" fill="#e8771b"/><rect x="1065" y="127" width="7" height="7" fill="#ed801c"/><rect x="1072" y="127" width="7" height="7" fill="#ee831d"/><rect x="1079" y="127" width="7" height="7" fill="#47210f"/><rect x="1086" y="127" width="7" height="7" fill="#23170f"/><rect x="1093" y="127" width="7" height="7" fill="#4c311f"/><rect x="1100" y="127" width="7" height="7" fill="#4a2f1f"/><rect x="1107" y="127" width="7" height="7" fill="#4d3220"/><rect x="1114" y="127" width="7" height="7" fill="#3f291b"/><rect x="1121" y="127" width="7" height="7" fill="#412a1c"/><rect x="960" y="134" width="7" height="7" fill="#442c1d"/><rect x="967" y="134" width="7" height="7" fill="#412a1c"/><rect x="974" y="134" width="7" height="7" fill="#4e3320"/><rect x="981" y="134" width="7" height="7" fill="#5c3c26"/><rect x="988" y="134" width="7" height="7" fill="#4f3320"/><rect x="995" y="134" width="7" height="7" fill="#4e3220"/><rect x="1002" y="134" width="7" height="7" fill="#21160f"/><rect x="1009" y="134" width="7" height="7" fill="#e4731a"/><rect x="1016" y="134" width="7" height="7" fill="#ffca2f"/><rect x="1023" y="134" width="7" height="7" fill="#fff05a"/><rect x="1030" y="134" width="7" height="7" fill="#fff15a"/><rect x="1037" y="134" width="7" height="7" fill="#ffef59"/><rect x="1044" y="134" width="7" height="7" fill="#ffee58"/><rect x="1051" y="134" width="7" height="7" fill="#fff059"/><rect x="1058" y="134" width="7" height="7" fill="#febc28"/><rect x="1065" y="134" width="7" height="7" fill="#ffc32b"/><rect x="1072" y="134" width="7" height="7" fill="#552810"/><rect x="1079" y="134" width="7" height="7" fill="#1b110c"/><rect x="1086" y="134" width="7" height="7" fill="#412a1c"/><rect x="1093" y="134" width="7" height="7" fill="#543722"/><rect x="1100" y="134" width="7" height="7" fill="#563823"/><rect x="1107" y="134" width="7" height="7" fill="#40291b"/><rect x="1114" y="134" width="7" height="7" fill="#432c1d"/><rect x="1121" y="134" width="7" height="7" fill="#372317"/><rect x="960" y="141" width="7" height="7" fill="#412a1c"/><rect x="967" y="141" width="7" height="7" fill="#412a1c"/><rect x="974" y="141" width="7" height="7" fill="#503421"/><rect x="981" y="141" width="7" height="7" fill="#4e3220"/><rect x="988" y="141" width="7" height="7" fill="#5b3b26"/><rect x="995" y="141" width="7" height="7" fill="#583924"/><rect x="1002" y="141" width="7" height="7" fill="#22160f"/><rect x="1009" y="141" width="7" height="7" fill="#febb27"/><rect x="1016" y="141" width="7" height="7" fill="#febd29"/><rect x="1023" y="141" width="7" height="7" fill="#ffbe29"/><rect x="1030" y="141" width="7" height="7" fill="#ffbe29"/><rect x="1037" y="141" width="7" height="7" fill="#ffef58"/><rect x="1044" y="141" width="7" height="7" fill="#fff059"/><rect x="1051" y="141" width="7" height="7" fill="#ffc22b"/><rect x="1058" y="141" width="7" height="7" fill="#feb926"/><rect x="1065" y="141" width="7" height="7" fill="#602d10"/><rect x="1072" y="141" width="7" height="7" fill="#1a110c"/><rect x="1079" y="141" width="7" height="7" fill="#3c2719"/><rect x="1086" y="141" width="7" height="7" fill="#513421"/><rect x="1093" y="141" width="7" height="7" fill="#513421"/><rect x="1100" y="141" width="7" height="7" fill="#503421"/><rect x="1107" y="141" width="7" height="7" fill="#4e3220"/><rect x="1114" y="141" width="7" height="7" fill="#523522"/><rect x="1121" y="141" width="7" height="7" fill="#432c1d"/><rect x="960" y="148" width="7" height="7" fill="#4d3120"/><rect x="967" y="148" width="7" height="7" fill="#4e3220"/><rect x="974" y="148" width="7" height="7" fill="#402a1c"/><rect x="981" y="148" width="7" height="7" fill="#4d3220"/><rect x="988" y="148" width="7" height="7" fill="#5a3b26"/><rect x="995" y="148" width="7" height="7" fill="#452d1d"/><rect x="1002" y="148" width="7" height="7" fill="#23160f"/><rect x="1009" y="148" width="7" height="7" fill="#22160f"/><rect x="1016" y="148" width="7" height="7" fill="#22160f"/><rect x="1023" y="148" width="7" height="7" fill="#21150e"/><rect x="1030" y="148" width="7" height="7" fill="#feb926"/><rect x="1037" y="148" width="7" height="7" fill="#fff15a"/><rect x="1044" y="148" width="7" height="7" fill="#ffc12a"/><rect x="1051" y="148" width="7" height="7" fill="#ffc12a"/><rect x="1058" y="148" width="7" height="7" fill="#9d4c17"/><rect x="1065" y="148" width="7" height="7" fill="#19100c"/><rect x="1072" y="148" width="7" height="7" fill="#3c2719"/><rect x="1079" y="148" width="7" height="7" fill="#503421"/><rect x="1086" y="148" width="7" height="7" fill="#503421"/><rect x="1093" y="148" width="7" height="7" fill="#3a2518"/><rect x="1100" y="148" width="7" height="7" fill="#392518"/><rect x="1107" y="148" width="7" height="7" fill="#513521"/><rect x="1114" y="148" width="7" height="7" fill="#412a1c"/><rect x="1121" y="148" width="7" height="7" fill="#392418"/><rect x="960" y="155" width="7" height="7" fill="#442c1d"/><rect x="967" y="155" width="7" height="7" fill="#4e3220"/><rect x="974" y="155" width="7" height="7" fill="#4f3321"/><rect x="981" y="155" width="7" height="7" fill="#3d271a"/><rect x="988" y="155" width="7" height="7" fill="#503421"/><rect x="995" y="155" width="7" height="7" fill="#4f3321"/><rect x="1002" y="155" width="7" height="7" fill="#4a301f"/><rect x="1009" y="155" width="7" height="7" fill="#412a1c"/><rect x="1016" y="155" width="7" height="7" fill="#422b1d"/><rect x="1023" y="155" width="7" height="7" fill="#22160f"/><rect x="1030" y="155" width="7" height="7" fill="#fff15a"/><rect x="1037" y="155" width="7" height="7" fill="#fff059"/><rect x="1044" y="155" width="7" height="7" fill="#ffc42b"/><rect x="1051" y="155" width="7" height="7" fill="#924314"/><rect x="1058" y="155" width="7" height="7" fill="#19100b"/><rect x="1065" y="155" width="7" height="7" fill="#392418"/><rect x="1072" y="155" width="7" height="7" fill="#5e3e27"/><rect x="1079" y="155" width="7" height="7" fill="#614029"/><rect x="1086" y="155" width="7" height="7" fill="#523522"/><rect x="1093" y="155" width="7" height="7" fill="#503421"/><rect x="1100" y="155" width="7" height="7" fill="#432b1d"/><rect x="1107" y="155" width="7" height="7" fill="#432b1d"/><rect x="1114" y="155" width="7" height="7" fill="#523521"/><rect x="1121" y="155" width="7" height="7" fill="#422b1d"/><rect x="960" y="162" width="7" height="7" fill="#3e281b"/><rect x="967" y="162" width="7" height="7" fill="#442c1d"/><rect x="974" y="162" width="7" height="7" fill="#4e3220"/><rect x="981" y="162" width="7" height="7" fill="#4e3320"/><rect x="988" y="162" width="7" height="7" fill="#4d3120"/><rect x="995" y="162" width="7" height="7" fill="#593a24"/><rect x="1002" y="162" width="7" height="7" fill="#5b3c26"/><rect x="1009" y="162" width="7" height="7" fill="#422b1d"/><rect x="1016" y="162" width="7" height="7" fill="#21160f"/><rect x="1023" y="162" width="7" height="7" fill="#fcb024"/><rect x="1030" y="162" width="7" height="7" fill="#fff15a"/><rect x="1037" y="162" width="7" height="7" fill="#ffca2f"/><rect x="1044" y="162" width="7" height="7" fill="#c46819"/><rect x="1051" y="162" width="7" height="7" fill="#19100c"/><rect x="1058" y="162" width="7" height="7" fill="#3b2619"/><rect x="1065" y="162" width="7" height="7" fill="#523522"/><rect x="1072" y="162" width="7" height="7" fill="#5f3e27"/><rect x="1079" y="162" width="7" height="7" fill="#4f3220"/><rect x="1086" y="162" width="7" height="7" fill="#4f3320"/><rect x="1093" y="162" width="7" height="7" fill="#40291b"/><rect x="1100" y="162" width="7" height="7" fill="#432b1d"/><rect x="1107" y="162" width="7" height="7" fill="#442c1d"/><rect x="1114" y="162" width="7" height="7" fill="#503321"/><rect x="1121" y="162" width="7" height="7" fill="#503321"/><rect x="960" y="169" width="7" height="7" fill="#4a301f"/><rect x="967" y="169" width="7" height="7" fill="#382417"/><rect x="974" y="169" width="7" height="7" fill="#40291b"/><rect x="981" y="169" width="7" height="7" fill="#40291b"/><rect x="988" y="169" width="7" height="7" fill="#4f3321"/><rect x="995" y="169" width="7" height="7" fill="#503421"/><rect x="1002" y="169" width="7" height="7" fill="#4e3220"/><rect x="1009" y="169" width="7" height="7" fill="#533522"/><rect x="1016" y="169" width="7" height="7" fill="#22160f"/><rect x="1023" y="169" width="7" height="7" fill="#fff059"/><rect x="1030" y="169" width="7" height="7" fill="#fff05a"/><rect x="1037" y="169" width="7" height="7" fill="#d2701a"/><rect x="1044" y="169" width="7" height="7" fill="#21150e"/><rect x="1051" y="169" width="7" height="7" fill="#3e281a"/><rect x="1058" y="169" width="7" height="7" fill="#543622"/><rect x="1065" y="169" width="7" height="7" fill="#412a1c"/><rect x="1072" y="169" width="7" height="7" fill="#513421"/><rect x="1079" y="169" width="7" height="7" fill="#4f3320"/><rect x="1086" y="169" width="7" height="7" fill="#432c1d"/><rect x="1093" y="169" width="7" height="7" fill="#4d3120"/><rect x="1100" y="169" width="7" height="7" fill="#593924"/><rect x="1107" y="169" width="7" height="7" fill="#482e1e"/><rect x="1114" y="169" width="7" height="7" fill="#412a1c"/><rect x="1121" y="169" width="7" height="7" fill="#382418"/><rect x="960" y="176" width="7" height="7" fill="#4b301f"/><rect x="967" y="176" width="7" height="7" fill="#4c301f"/><rect x="974" y="176" width="7" height="7" fill="#573824"/><rect x="981" y="176" width="7" height="7" fill="#573924"/><rect x="988" y="176" width="7" height="7" fill="#3f291b"/><rect x="995" y="176" width="7" height="7" fill="#392418"/><rect x="1002" y="176" width="7" height="7" fill="#4c311f"/><rect x="1009" y="176" width="7" height="7" fill="#21150e"/><rect x="1016" y="176" width="7" height="7" fill="#ea7d1c"/><rect x="1023" y="176" width="7" height="7" fill="#fff059"/><rect x="1030" y="176" width="7" height="7" fill="#b55115"/><rect x="1037" y="176" width="7" height="7" fill="#1b110c"/><rect x="1044" y="176" width="7" height="7" fill="#3a2518"/><rect x="1051" y="176" width="7" height="7" fill="#523522"/><rect x="1058" y="176" width="7" height="7" fill="#5b3b26"/><rect x="1065" y="176" width="7" height="7" fill="#533622"/><rect x="1072" y="176" width="7" height="7" fill="#442c1d"/><rect x="1079" y="176" width="7" height="7" fill="#432c1d"/><rect x="1086" y="176" width="7" height="7" fill="#452d1d"/><rect x="1093" y="176" width="7" height="7" fill="#4b301f"/><rect x="1100" y="176" width="7" height="7" fill="#4b301f"/><rect x="1107" y="176" width="7" height="7" fill="#4d311f"/><rect x="1114" y="176" width="7" height="7" fill="#523522"/><rect x="1121" y="176" width="7" height="7" fill="#492e1e"/><rect x="960" y="183" width="7" height="7" fill="#40291b"/><rect x="967" y="183" width="7" height="7" fill="#4c301f"/><rect x="974" y="183" width="7" height="7" fill="#492f1e"/><rect x="981" y="183" width="7" height="7" fill="#543623"/><rect x="988" y="183" width="7" height="7" fill="#593a25"/><rect x="995" y="183" width="7" height="7" fill="#4b301f"/><rect x="1002" y="183" width="7" height="7" fill="#523521"/><rect x="1009" y="183" width="7" height="7" fill="#21150e"/><rect x="1016" y="183" width="7" height="7" fill="#ffcc30"/><rect x="1023" y="183" width="7" height="7" fill="#f08c1e"/><rect x="1030" y="183" width="7" height="7" fill="#1b110c"/><rect x="1037" y="183" width="7" height="7" fill="#3d271a"/><rect x="1044" y="183" width="7" height="7" fill="#503321"/><rect x="1051" y="183" width="7" height="7" fill="#472e1e"/><rect x="1058" y="183" width="7" height="7" fill="#492f1f"/><rect x="1065" y="183" width="7" height="7" fill="#4e3220"/><rect x="1072" y="183" width="7" height="7" fill="#4d3120"/><rect x="1079" y="183" width="7" height="7" fill="#563823"/><rect x="1086" y="183" width="7" height="7" fill="#573824"/><rect x="1093" y="183" width="7" height="7" fill="#432b1d"/><rect x="1100" y="183" width="7" height="7" fill="#372317"/><rect x="1107" y="183" width="7" height="7" fill="#372317"/><rect x="1114" y="183" width="7" height="7" fill="#462d1d"/><rect x="1121" y="183" width="7" height="7" fill="#4e3220"/><rect x="960" y="190" width="7" height="7" fill="#3d281a"/><rect x="967" y="190" width="7" height="7" fill="#4f3321"/><rect x="974" y="190" width="7" height="7" fill="#3b2619"/><rect x="981" y="190" width="7" height="7" fill="#4b301f"/><rect x="988" y="190" width="7" height="7" fill="#4d3120"/><rect x="995" y="190" width="7" height="7" fill="#563824"/><rect x="1002" y="190" width="7" height="7" fill="#372317"/><rect x="1009" y="190" width="7" height="7" fill="#21150e"/><rect x="1016" y="190" width="7" height="7" fill="#ec811d"/><rect x="1023" y="190" width="7" height="7" fill="#1e130e"/><rect x="1030" y="190" width="7" height="7" fill="#3f291b"/><rect x="1037" y="190" width="7" height="7" fill="#513421"/><rect x="1044" y="190" width="7" height="7" fill="#4f3320"/><rect x="1051" y="190" width="7" height="7" fill="#593a25"/><rect x="1058" y="190" width="7" height="7" fill="#573824"/><rect x="1065" y="190" width="7" height="7" fill="#422b1c"/><rect x="1072" y="190" width="7" height="7" fill="#4e3220"/><rect x="1079" y="190" width="7" height="7" fill="#4b301f"/><rect x="1086" y="190" width="7" height="7" fill="#523521"/><rect x="1093" y="190" width="7" height="7" fill="#4e3220"/><rect x="1100" y="190" width="7" height="7" fill="#432c1d"/><rect x="1107" y="190" width="7" height="7" fill="#4b301f"/><rect x="1114" y="190" width="7" height="7" fill="#442c1d"/><rect x="1121" y="190" width="7" height="7" fill="#352116"/><rect x="960" y="197" width="7" height="7" fill="#4a2f1f"/><rect x="967" y="197" width="7" height="7" fill="#4c311f"/><rect x="974" y="197" width="7" height="7" fill="#4c301f"/><rect x="981" y="197" width="7" height="7" fill="#3f291c"/><rect x="988" y="197" width="7" height="7" fill="#4b301f"/><rect x="995" y="197" width="7" height="7" fill="#482e1e"/><rect x="1002" y="197" width="7" height="7" fill="#22160f"/><rect x="1009" y="197" width="7" height="7" fill="#e6771b"/><rect x="1016" y="197" width="7" height="7" fill="#21150e"/><rect x="1023" y="197" width="7" height="7" fill="#3a2518"/><rect x="1030" y="197" width="7" height="7" fill="#4f3320"/><rect x="1037" y="197" width="7" height="7" fill="#523522"/><rect x="1044" y="197" width="7" height="7" fill="#3f291b"/><rect x="1051" y="197" width="7" height="7" fill="#4c301f"/><rect x="1058" y="197" width="7" height="7" fill="#452d1d"/><rect x="1065" y="197" width="7" height="7" fill="#432b1d"/><rect x="1072" y="197" width="7" height="7" fill="#382317"/><rect x="1079" y="197" width="7" height="7" fill="#40291c"/><rect x="1086" y="197" width="7" height="7" fill="#4c301f"/><rect x="1093" y="197" width="7" height="7" fill="#412a1c"/><rect x="1100" y="197" width="7" height="7" fill="#422b1c"/><rect x="1107" y="197" width="7" height="7" fill="#523522"/><rect x="1114" y="197" width="7" height="7" fill="#513421"/><rect x="1121" y="197" width="7" height="7" fill="#492e1e"/><rect x="960" y="204" width="7" height="7" fill="#3a2518"/><rect x="967" y="204" width="7" height="7" fill="#382418"/><rect x="974" y="204" width="7" height="7" fill="#3f291b"/><rect x="981" y="204" width="7" height="7" fill="#402a1b"/><rect x="988" y="204" width="7" height="7" fill="#382418"/><rect x="995" y="204" width="7" height="7" fill="#442b1c"/><rect x="1002" y="204" width="7" height="7" fill="#23170f"/><rect x="1009" y="204" width="7" height="7" fill="#21160f"/><rect x="1016" y="204" width="7" height="7" fill="#472d1e"/><rect x="1023" y="204" width="7" height="7" fill="#4e3220"/><rect x="1030" y="204" width="7" height="7" fill="#563823"/><rect x="1037" y="204" width="7" height="7" fill="#4b301f"/><rect x="1044" y="204" width="7" height="7" fill="#492f1e"/><rect x="1051" y="204" width="7" height="7" fill="#402a1c"/><rect x="1058" y="204" width="7" height="7" fill="#4d311f"/><rect x="1065" y="204" width="7" height="7" fill="#543622"/><rect x="1072" y="204" width="7" height="7" fill="#563723"/><rect x="1079" y="204" width="7" height="7" fill="#4b301f"/><rect x="1086" y="204" width="7" height="7" fill="#412a1c"/><rect x="1093" y="204" width="7" height="7" fill="#382418"/><rect x="1100" y="204" width="7" height="7" fill="#513421"/><rect x="1107" y="204" width="7" height="7" fill="#422b1c"/><rect x="1114" y="204" width="7" height="7" fill="#40291c"/><rect x="1121" y="204" width="7" height="7" fill="#3d281a"/><rect x="960" y="211" width="7" height="7" fill="#3c271a"/><rect x="967" y="211" width="7" height="7" fill="#432b1c"/><rect x="974" y="211" width="7" height="7" fill="#513421"/><rect x="981" y="211" width="7" height="7" fill="#4d311f"/><rect x="988" y="211" width="7" height="7" fill="#412a1c"/><rect x="995" y="211" width="7" height="7" fill="#4f3220"/><rect x="1002" y="211" width="7" height="7" fill="#372317"/><rect x="1009" y="211" width="7" height="7" fill="#362217"/><rect x="1016" y="211" width="7" height="7" fill="#503321"/><rect x="1023" y="211" width="7" height="7" fill="#513421"/><rect x="1030" y="211" width="7" height="7" fill="#422b1c"/><rect x="1037" y="211" width="7" height="7" fill="#573824"/><rect x="1044" y="211" width="7" height="7" fill="#4d3120"/><rect x="1051" y="211" width="7" height="7" fill="#372317"/><rect x="1058" y="211" width="7" height="7" fill="#362217"/><rect x="1065" y="211" width="7" height="7" fill="#4a2f1f"/><rect x="1072" y="211" width="7" height="7" fill="#4b301f"/><rect x="1079" y="211" width="7" height="7" fill="#422b1d"/><rect x="1086" y="211" width="7" height="7" fill="#422b1c"/><rect x="1093" y="211" width="7" height="7" fill="#4f3220"/><rect x="1100" y="211" width="7" height="7" fill="#40291b"/><rect x="1107" y="211" width="7" height="7" fill="#382418"/><rect x="1114" y="211" width="7" height="7" fill="#482e1e"/><rect x="1121" y="211" width="7" height="7" fill="#472d1d"/><rect x="960" y="218" width="7" height="7" fill="#442b1d"/><rect x="967" y="218" width="7" height="7" fill="#3e281a"/><rect x="974" y="218" width="7" height="7" fill="#372317"/><rect x="981" y="218" width="7" height="7" fill="#3e281a"/><rect x="988" y="218" width="7" height="7" fill="#4c311f"/><rect x="995" y="218" width="7" height="7" fill="#402a1c"/><rect x="1002" y="218" width="7" height="7" fill="#4d3120"/><rect x="1009" y="218" width="7" height="7" fill="#412a1c"/><rect x="1016" y="218" width="7" height="7" fill="#40291c"/><rect x="1023" y="218" width="7" height="7" fill="#372317"/><rect x="1030" y="218" width="7" height="7" fill="#4b301f"/><rect x="1037" y="218" width="7" height="7" fill="#4d311f"/><rect x="1044" y="218" width="7" height="7" fill="#3f291b"/><rect x="1051" y="218" width="7" height="7" fill="#482e1e"/><rect x="1058" y="218" width="7" height="7" fill="#533622"/><rect x="1065" y="218" width="7" height="7" fill="#412a1c"/><rect x="1072" y="218" width="7" height="7" fill="#4b301f"/><rect x="1079" y="218" width="7" height="7" fill="#4a2f1f"/><rect x="1086" y="218" width="7" height="7" fill="#362217"/><rect x="1093" y="218" width="7" height="7" fill="#3e281b"/><rect x="1100" y="218" width="7" height="7" fill="#3e281b"/><rect x="1107" y="218" width="7" height="7" fill="#513421"/><rect x="1114" y="218" width="7" height="7" fill="#472e1e"/><rect x="1121" y="218" width="7" height="7" fill="#352116"/><rect x="960" y="225" width="7" height="7" fill="#352116"/><rect x="967" y="225" width="7" height="7" fill="#352116"/><rect x="974" y="225" width="7" height="7" fill="#3c271a"/><rect x="981" y="225" width="7" height="7" fill="#362317"/><rect x="988" y="225" width="7" height="7" fill="#342116"/><rect x="995" y="225" width="7" height="7" fill="#3e281b"/><rect x="1002" y="225" width="7" height="7" fill="#3e281a"/><rect x="1009" y="225" width="7" height="7" fill="#4e3220"/><rect x="1016" y="225" width="7" height="7" fill="#412a1c"/><rect x="1023" y="225" width="7" height="7" fill="#3f291b"/><rect x="1030" y="225" width="7" height="7" fill="#40291b"/><rect x="1037" y="225" width="7" height="7" fill="#362216"/><rect x="1044" y="225" width="7" height="7" fill="#3f291b"/><rect x="1051" y="225" width="7" height="7" fill="#3f291b"/><rect x="1058" y="225" width="7" height="7" fill="#472d1d"/><rect x="1065" y="225" width="7" height="7" fill="#482e1e"/><rect x="1072" y="225" width="7" height="7" fill="#352216"/><rect x="1079" y="225" width="7" height="7" fill="#352216"/><rect x="1086" y="225" width="7" height="7" fill="#3d271a"/><rect x="1093" y="225" width="7" height="7" fill="#492f1f"/><rect x="1100" y="225" width="7" height="7" fill="#362317"/><rect x="1107" y="225" width="7" height="7" fill="#362216"/><rect x="1114" y="225" width="7" height="7" fill="#362217"/><rect x="1121" y="225" width="7" height="7" fill="#3e281b"/>
      <g fill="#fff8c0" class="zap"><rect x="1037" y="85" width="7" height="7"/><rect x="1044" y="85" width="7" height="7"/><rect x="1051" y="85" width="7" height="7"/><rect x="1058" y="85" width="7" height="7"/><rect x="1065" y="85" width="7" height="7"/><rect x="1072" y="85" width="7" height="7"/><rect x="1037" y="92" width="7" height="7"/><rect x="1044" y="92" width="7" height="7"/><rect x="1051" y="92" width="7" height="7"/><rect x="1058" y="92" width="7" height="7"/><rect x="1065" y="92" width="7" height="7"/><rect x="1030" y="99" width="7" height="7"/><rect x="1037" y="99" width="7" height="7"/><rect x="1044" y="99" width="7" height="7"/><rect x="1051" y="99" width="7" height="7"/><rect x="1058" y="99" width="7" height="7"/><rect x="1030" y="106" width="7" height="7"/><rect x="1037" y="106" width="7" height="7"/><rect x="1044" y="106" width="7" height="7"/><rect x="1051" y="106" width="7" height="7"/><rect x="1058" y="106" width="7" height="7"/><rect x="1023" y="113" width="7" height="7"/><rect x="1030" y="113" width="7" height="7"/><rect x="1037" y="113" width="7" height="7"/><rect x="1044" y="113" width="7" height="7"/><rect x="1051" y="113" width="7" height="7"/><rect x="1023" y="120" width="7" height="7"/><rect x="1030" y="120" width="7" height="7"/><rect x="1037" y="120" width="7" height="7"/><rect x="1044" y="120" width="7" height="7"/><rect x="1051" y="120" width="7" height="7"/><rect x="1016" y="127" width="7" height="7"/><rect x="1023" y="127" width="7" height="7"/><rect x="1030" y="127" width="7" height="7"/><rect x="1037" y="127" width="7" height="7"/><rect x="1044" y="127" width="7" height="7"/><rect x="1051" y="127" width="7" height="7"/><rect x="1058" y="127" width="7" height="7"/><rect x="1065" y="127" width="7" height="7"/><rect x="1072" y="127" width="7" height="7"/><rect x="1079" y="127" width="7" height="7"/><rect x="1009" y="134" width="7" height="7"/><rect x="1016" y="134" width="7" height="7"/><rect x="1023" y="134" width="7" height="7"/><rect x="1030" y="134" width="7" height="7"/><rect x="1037" y="134" width="7" height="7"/><rect x="1044" y="134" width="7" height="7"/><rect x="1051" y="134" width="7" height="7"/><rect x="1058" y="134" width="7" height="7"/><rect x="1065" y="134" width="7" height="7"/><rect x="1072" y="134" width="7" height="7"/><rect x="1009" y="141" width="7" height="7"/><rect x="1016" y="141" width="7" height="7"/><rect x="1023" y="141" width="7" height="7"/><rect x="1030" y="141" width="7" height="7"/><rect x="1037" y="141" width="7" height="7"/><rect x="1044" y="141" width="7" height="7"/><rect x="1051" y="141" width="7" height="7"/><rect x="1058" y="141" width="7" height="7"/><rect x="1065" y="141" width="7" height="7"/><rect x="1030" y="148" width="7" height="7"/><rect x="1037" y="148" width="7" height="7"/><rect x="1044" y="148" width="7" height="7"/><rect x="1051" y="148" width="7" height="7"/><rect x="1058" y="148" width="7" height="7"/><rect x="1030" y="155" width="7" height="7"/><rect x="1037" y="155" width="7" height="7"/><rect x="1044" y="155" width="7" height="7"/><rect x="1051" y="155" width="7" height="7"/><rect x="1023" y="162" width="7" height="7"/><rect x="1030" y="162" width="7" height="7"/><rect x="1037" y="162" width="7" height="7"/><rect x="1044" y="162" width="7" height="7"/><rect x="1023" y="169" width="7" height="7"/><rect x="1030" y="169" width="7" height="7"/><rect x="1037" y="169" width="7" height="7"/><rect x="1016" y="176" width="7" height="7"/><rect x="1023" y="176" width="7" height="7"/><rect x="1030" y="176" width="7" height="7"/><rect x="1016" y="183" width="7" height="7"/><rect x="1023" y="183" width="7" height="7"/><rect x="1016" y="190" width="7" height="7"/><rect x="1009" y="197" width="7" height="7"/></g>
    </g>
    <rect x="1000.5" y="254" width="3" height="3" fill="#0f9d58"/><rect x="1000.5" y="257" width="3" height="3" fill="#0f9d58"/><rect x="1000.5" y="260" width="3" height="3" fill="#0f9d58"/><rect x="1000.5" y="263" width="3" height="3" fill="#0f9d58"/><rect x="1000.5" y="266" width="3" height="3" fill="#0f9d58"/><rect x="1000.5" y="269" width="3" height="3" fill="#0f9d58"/><rect x="1000.5" y="272" width="3" height="3" fill="#0f9d58"/><rect x="1003.5" y="272" width="3" height="3" fill="#0f9d58"/><rect x="1006.5" y="272" width="3" height="3" fill="#0f9d58"/><rect x="1009.5" y="272" width="3" height="3" fill="#0f9d58"/><rect x="1012.5" y="272" width="3" height="3" fill="#0f9d58"/><rect x="1021.5" y="254" width="3" height="3" fill="#0f9d58"/><rect x="1024.5" y="254" width="3" height="3" fill="#0f9d58"/><rect x="1027.5" y="254" width="3" height="3" fill="#0f9d58"/><rect x="1024.5" y="257" width="3" height="3" fill="#0f9d58"/><rect x="1024.5" y="260" width="3" height="3" fill="#0f9d58"/><rect x="1024.5" y="263" width="3" height="3" fill="#0f9d58"/><rect x="1024.5" y="266" width="3" height="3" fill="#0f9d58"/><rect x="1024.5" y="269" width="3" height="3" fill="#0f9d58"/><rect x="1021.5" y="272" width="3" height="3" fill="#0f9d58"/><rect x="1024.5" y="272" width="3" height="3" fill="#0f9d58"/><rect x="1027.5" y="272" width="3" height="3" fill="#0f9d58"/><rect x="1039.5" y="254" width="3" height="3" fill="#0f9d58"/><rect x="1042.5" y="254" width="3" height="3" fill="#0f9d58"/><rect x="1045.5" y="254" width="3" height="3" fill="#0f9d58"/><rect x="1036.5" y="257" width="3" height="3" fill="#0f9d58"/><rect x="1048.5" y="257" width="3" height="3" fill="#0f9d58"/><rect x="1036.5" y="260" width="3" height="3" fill="#0f9d58"/><rect x="1048.5" y="260" width="3" height="3" fill="#0f9d58"/><rect x="1036.5" y="263" width="3" height="3" fill="#0f9d58"/><rect x="1039.5" y="263" width="3" height="3" fill="#0f9d58"/><rect x="1042.5" y="263" width="3" height="3" fill="#0f9d58"/><rect x="1045.5" y="263" width="3" height="3" fill="#0f9d58"/><rect x="1048.5" y="263" width="3" height="3" fill="#0f9d58"/><rect x="1036.5" y="266" width="3" height="3" fill="#0f9d58"/><rect x="1048.5" y="266" width="3" height="3" fill="#0f9d58"/><rect x="1036.5" y="269" width="3" height="3" fill="#0f9d58"/><rect x="1048.5" y="269" width="3" height="3" fill="#0f9d58"/><rect x="1036.5" y="272" width="3" height="3" fill="#0f9d58"/><rect x="1048.5" y="272" width="3" height="3" fill="#0f9d58"/><rect x="1054.5" y="254" width="3" height="3" fill="#0f9d58"/><rect x="1066.5" y="254" width="3" height="3" fill="#0f9d58"/><rect x="1054.5" y="257" width="3" height="3" fill="#0f9d58"/><rect x="1057.5" y="257" width="3" height="3" fill="#0f9d58"/><rect x="1063.5" y="257" width="3" height="3" fill="#0f9d58"/><rect x="1066.5" y="257" width="3" height="3" fill="#0f9d58"/><rect x="1054.5" y="260" width="3" height="3" fill="#0f9d58"/><rect x="1060.5" y="260" width="3" height="3" fill="#0f9d58"/><rect x="1066.5" y="260" width="3" height="3" fill="#0f9d58"/><rect x="1054.5" y="263" width="3" height="3" fill="#0f9d58"/><rect x="1060.5" y="263" width="3" height="3" fill="#0f9d58"/><rect x="1066.5" y="263" width="3" height="3" fill="#0f9d58"/><rect x="1054.5" y="266" width="3" height="3" fill="#0f9d58"/><rect x="1066.5" y="266" width="3" height="3" fill="#0f9d58"/><rect x="1054.5" y="269" width="3" height="3" fill="#0f9d58"/><rect x="1066.5" y="269" width="3" height="3" fill="#0f9d58"/><rect x="1054.5" y="272" width="3" height="3" fill="#0f9d58"/><rect x="1066.5" y="272" width="3" height="3" fill="#0f9d58"/><rect x="1078.5" y="257" width="3" height="3" fill="#0f9d58"/><rect x="1078.5" y="260" width="3" height="3" fill="#0f9d58"/><rect x="1072.5" y="263" width="3" height="3" fill="#0f9d58"/><rect x="1075.5" y="263" width="3" height="3" fill="#0f9d58"/><rect x="1078.5" y="263" width="3" height="3" fill="#0f9d58"/><rect x="1081.5" y="263" width="3" height="3" fill="#0f9d58"/><rect x="1084.5" y="263" width="3" height="3" fill="#0f9d58"/><rect x="1078.5" y="266" width="3" height="3" fill="#0f9d58"/><rect x="1078.5" y="269" width="3" height="3" fill="#0f9d58"/>
    
  <rect width="1200" height="300" fill="url(#scanab)" pointer-events="none"/>
  <rect y="-120" width="1200" height="120" fill="url(#bandab)"><animate attributeName="y" values="-120;300" dur="7s" repeatCount="indefinite"/></rect>
  <rect width="1200" height="300" fill="url(#vigab)"/>
  </g>
  <rect x="1" y="1" width="1198" height="298" rx="15" fill="none" stroke="#d3ddd7" stroke-opacity="1" stroke-width="2"/></svg>