<svg xmlns="http://www.w3.org/2000/svg" width="1200" height="64" viewBox="0 0 1200 64" role="img" aria-label="03 // PROJECTS I&#39;VE WORKED ON"><title>03 // PROJECTS I&#39;VE WORKED ON</title>
  <style>
    .px{animation:in .18s linear both}
    @keyframes in{from{opacity:0}to{opacity:1}}
    .dash{animation:dash 1.2s linear infinite}
    @keyframes dash{to{stroke-dashoffset:-24}}
    .blink{animation:blink 1s steps(1) infinite}
    @keyframes blink{50%{opacity:0}}
  </style>
  <rect x="12" y="18" width="4" height="4" fill="#0f9d58" class="px" style="animation-delay:0.02s"/><rect x="16" y="18" width="4" height="4" fill="#0f9d58" class="px" style="animation-delay:0.04s"/><rect x="20" y="18" width="4" height="4" fill="#0f9d58" class="px" style="animation-delay:0.06s"/><rect x="8" y="22" width="4" height="4" fill="#0f9d58" class="px" style="animation-delay:0.00s"/><rect x="24" y="22" width="4" height="4" fill="#0f9d58" class="px" style="animation-delay:0.08s"/><rect x="8" y="26" width="4" height="4" fill="#0f9d58" class="px" style="animation-delay:0.00s"/><rect x="20" y="26" width="4" height="4" fill="#0f9d58" class="px" style="animation-delay:0.06s"/><rect x="24" y="26" width="4" height="4" fill="#0f9d58" class="px" style="animation-delay:0.08s"/><rect x="8" y="30" width="4" height="4" fill="#0f9d58" class="px" style="animation-delay:0.00s"/><rect x="16" y="30" width="4" height="4" fill="#0f9d58" class="px" style="animation-delay:0.04s"/><rect x="24" y="30" width="4" height="4" fill="#0f9d58" class="px" style="animation-delay:0.08s"/><rect x="8" y="34" width="4" height="4" fill="#0f9d58" class="px" style="animation-delay:0.00s"/><rect x="12" y="34" width="4" height="4" fill="#0f9d58" class="px" style="animation-delay:0.02s"/><rect x="24" y="34" width="4" height="4" fill="#0f9d58" class="px" style="animation-delay:0.08s"/><rect x="8" y="38" width="4" height="4" fill="#0f9d58" class="px" style="animation-delay:0.00s"/><rect x="24" y="38" width="4" height="4" fill="#0f9d58" class="px" style="animation-delay:0.08s"/><rect x="12" y="42" width="4" height="4" fill="#0f9d58" class="px" style="animation-delay:0.02s"/><rect x="16" y="42" width="4" height="4" fill="#0f9d58" class="px" style="animation-delay:0.04s"/><rect x="20" y="42" width="4" height="4" fill="#0f9d58" class="px" style="animation-delay:0.06s"/><rect x="32" y="18" width="4" height="4" fill="#0f9d58" class="px" style="animation-delay:0.10s"/><rect x="36" y="18" width="4" height="4" fill="#0f9d58" class="px" style="animation-delay:0.12s"/><rect x="40" y="18" width="4" height="4" fill="#0f9d58" class="px" style="animation-delay:0.14s"/><rect x="44" y="18" width="4" height="4" fill="#0f9d58" class="px" style="animation-delay:0.16s"/><rect x="48" y="22" width="4" height="4" fill="#0f9d58" class="px" style="animation-delay:0.18s"/><rect x="48" y="26" width="4" height="4" fill="#0f9d58" class="px" style="animation-delay:0.18s"/><rect x="36" y="30" width="4" height="4" fill="#0f9d58" class="px" style="animation-delay:0.12s"/><rect x="40" y="30" width="4" height="4" fill="#0f9d58" class="px" style="animation-delay:0.14s"/><rect x="44" y="30" width="4" height="4" fill="#0f9d58" class="px" style="animation-delay:0.16s"/><rect x="48" y="34" width="4" height="4" fill="#0f9d58" class="px" style="animation-delay:0.18s"/><rect x="48" y="38" width="4" height="4" fill="#0f9d58" class="px" style="animation-delay:0.18s"/><rect x="32" y="42" width="4" height="4" fill="#0f9d58" class="px" style="animation-delay:0.10s"/><rect x="36" y="42" width="4" height="4" fill="#0f9d58" class="px" style="animation-delay:0.12s"/><rect x="40" y="42" width="4" height="4" fill="#0f9d58" class="px" style="animation-delay:0.14s"/><rect x="44" y="42" width="4" height="4" fill="#0f9d58" class="px" style="animation-delay:0.16s"/><rect x="96" y="18" width="4" height="4" fill="#0f9d58" class="px" style="animation-delay:0.38s"/><rect x="92" y="22" width="4" height="4" fill="#0f9d58" class="px" style="animation-delay:0.36s"/><rect x="92" y="26" width="4" height="4" fill="#0f9d58" class="px" style="animation-delay:0.36s"/><rect x="88" y="30" width="4" height="4" fill="#0f9d58" class="px" style="animation-delay:0.34s"/><rect x="84" y="34" width="4" height="4" fill="#0f9d58" class="px" style="animation-delay:0.32s"/><rect x="84" y="38" width="4" height="4" fill="#0f9d58" class="px" style="animation-delay:0.32s"/><rect x="80" y="42" width="4" height="4" fill="#0f9d58" class="px" style="animation-delay:0.30s"/><rect x="120" y="18" width="4" height="4" fill="#0f9d58" class="px" style="animation-delay:0.48s"/><rect x="116" y="22" width="4" height="4" fill="#0f9d58" class="px" style="animation-delay:0.46s"/><rect x="116" y="26" width="4" height="4" fill="#0f9d58" class="px" style="animation-delay:0.46s"/><rect x="112" y="30" width="4" height="4" fill="#0f9d58" class="px" style="animation-delay:0.44s"/><rect x="108" y="34" width="4" height="4" fill="#0f9d58" class="px" style="animation-delay:0.42s"/><rect x="108" y="38" width="4" height="4" fill="#0f9d58" class="px" style="animation-delay:0.42s"/><rect x="104" y="42" width="4" height="4" fill="#0f9d58" class="px" style="animation-delay:0.40s"/><rect x="152" y="18" width="4" height="4" fill="#0f9d58" class="px" style="animation-delay:0.60s"/><rect x="156" y="18" width="4" height="4" fill="#0f9d58" class="px" style="animation-delay:0.62s"/><rect x="160" y="18" width="4" height="4" fill="#0f9d58" class="px" style="animation-delay:0.64s"/><rect x="164" y="18" width="4" height="4" fill="#0f9d58" class="px" style="animation-delay:0.66s"/><rect x="152" y="22" width="4" height="4" fill="#0f9d58" class="px" style="animation-delay:0.60s"/><rect x="168" y="22" width="4" height="4" fill="#0f9d58" class="px" style="animation-delay:0.68s"/><rect x="152" y="26" width="4" height="4" fill="#0f9d58" class="px" style="animation-delay:0.60s"/><rect x="168" y="26" width="4" height="4" fill="#0f9d58" class="px" style="animation-delay:0.68s"/><rect x="152" y="30" width="4" height="4" fill="#0f9d58" class="px" style="animation-delay:0.60s"/><rect x="156" y="30" width="4" height="4" fill="#0f9d58" class="px" style="animation-delay:0.62s"/><rect x="160" y="30" width="4" height="4" fill="#0f9d58" class="px" style="animation-delay:0.64s"/><rect x="164" y="30" width="4" height="4" fill="#0f9d58" class="px" style="animation-delay:0.66s"/><rect x="152" y="34" width="4" height="4" fill="#0f9d58" class="px" style="animation-delay:0.60s"/><rect x="152" y="38" width="4" height="4" fill="#0f9d58" class="px" style="animation-delay:0.60s"/><rect x="152" y="42" width="4" height="4" fill="#0f9d58" class="px" style="animation-delay:0.60s"/><rect x="176" y="18" width="4" height="4" fill="#0f9d58" class="px" style="animation-delay:0.70s"/><rect x="180" y="18" width="4" height="4" fill="#0f9d58" class="px" style="animation-delay:0.72s"/><rect x="184" y="18" width="4" height="4" fill="#0f9d58" class="px" style="animation-delay:0.74s"/><rect x="188" y="18" width="4" height="4" fill="#0f9d58" class="px" style="animation-delay:0.76s"/><rect x="176" y="22" width="4" height="4" fill="#0f9d58" class="px" style="animation-delay:0.70s"/><rect x="192" y="22" width="4" height="4" fill="#0f9d58" class="px" style="animation-delay:0.78s"/><rect x="176" y="26" width="4" height="4" fill="#0f9d58" class="px" style="animation-delay:0.70s"/><rect x="192" y="26" width="4" height="4" fill="#0f9d58" class="px" style="animation-delay:0.78s"/><rect x="176" y="30" width="4" height="4" fill="#0f9d58" class="px" style="animation-delay:0.70s"/><rect x="180" y="30" width="4" height="4" fill="#0f9d58" class="px" style="animation-delay:0.72s"/><rect x="184" y="30" width="4" height="4" fill="#0f9d58" class="px" style="animation-delay:0.74s"/><rect x="188" y="30" width="4" height="4" fill="#0f9d58" class="px" style="animation-delay:0.76s"/><rect x="176" y="34" width="4" height="4" fill="#0f9d58" class="px" style="animation-delay:0.70s"/><rect x="184" y="34" width="4" height="4" fill="#0f9d58" class="px" style="animation-delay:0.74s"/><rect x="176" y="38" width="4" height="4" fill="#0f9d58" class="px" style="animation-delay:0.70s"/><rect x="188" y="38" width="4" height="4" fill="#0f9d58" class="px" style="animation-delay:0.76s"/><rect x="176" y="42" width="4" height="4" fill="#0f9d58" class="px" style="animation-delay:0.70s"/><rect x="192" y="42" width="4" height="4" fill="#0f9d58" class="px" style="animation-delay:0.78s"/><rect x="204" y="18" width="4" height="4" fill="#0f9d58" class="px" style="animation-delay:0.82s"/><rect x="208" y="18" width="4" height="4" fill="#0f9d58" class="px" style="animation-delay:0.84s"/><rect x="212" y="18" width="4" height="4" fill="#0f9d58" class="px" style="animation-delay:0.86s"/><rect x="200" y="22" width="4" height="4" fill="#0f9d58" class="px" style="animation-delay:0.80s"/><rect x="216" y="22" width="4" height="4" fill="#0f9d58" class="px" style="animation-delay:0.88s"/><rect x="200" y="26" width="4" height="4" fill="#0f9d58" class="px" style="animation-delay:0.80s"/><rect x="216" y="26" width="4" height="4" fill="#0f9d58" class="px" style="animation-delay:0.88s"/><rect x="200" y="30" width="4" height="4" fill="#0f9d58" class="px" style="animation-delay:0.80s"/><rect x="216" y="30" width="4" height="4" fill="#0f9d58" class="px" style="animation-delay:0.88s"/><rect x="200" y="34" width="4" height="4" fill="#0f9d58" class="px" style="animation-delay:0.80s"/><rect x="216" y="34" width="4" height="4" fill="#0f9d58" class="px" style="animation-delay:0.88s"/><rect x="200" y="38" width="4" height="4" fill="#0f9d58" class="px" style="animation-delay:0.80s"/><rect x="216" y="38" width="4" height="4" fill="#0f9d58" class="px" style="animation-delay:0.88s"/><rect x="204" y="42" width="4" height="4" fill="#0f9d58" class="px" style="animation-delay:0.82s"/><rect x="208" y="42" width="4" height="4" fill="#0f9d58" class="px" style="animation-delay:0.84s"/><rect x="212" y="42" width="4" height="4" fill="#0f9d58" class="px" style="animation-delay:0.86s"/><rect x="232" y="18" width="4" height="4" fill="#0f9d58" class="px" style="animation-delay:0.94s"/><rect x="236" y="18" width="4" height="4" fill="#0f9d58" class="px" style="animation-delay:0.96s"/><rect x="240" y="18" width="4" height="4" fill="#0f9d58" class="px" style="animation-delay:0.98s"/><rect x="236" y="22" width="4" height="4" fill="#0f9d58" class="px" style="animation-delay:0.96s"/><rect x="236" y="26" width="4" height="4" fill="#0f9d58" class="px" style="animation-delay:0.96s"/><rect x="236" y="30" width="4" height="4" fill="#0f9d58" class="px" style="animation-delay:0.96s"/><rect x="236" y="34" width="4" height="4" fill="#0f9d58" class="px" style="animation-delay:0.96s"/><rect x="224" y="38" width="4" height="4" fill="#0f9d58" class="px" style="animation-delay:0.90s"/><rect x="236" y="38" width="4" height="4" fill="#0f9d58" class="px" style="animation-delay:0.96s"/><rect x="228" y="42" width="4" height="4" fill="#0f9d58" class="px" style="animation-delay:0.92s"/><rect x="232" y="42" width="4" height="4" fill="#0f9d58" class="px" style="animation-delay:0.94s"/><rect x="248" y="18" width="4" height="4" fill="#0f9d58" class="px" style="animation-delay:1.00s"/><rect x="252" y="18" width="4" height="4" fill="#0f9d58" class="px" style="animation-delay:1.02s"/><rect x="256" y="18" width="4" height="4" fill="#0f9d58" class="px" style="animation-delay:1.04s"/><rect x="260" y="18" width="4" height="4" fill="#0f9d58" class="px" style="animation-delay:1.06s"/><rect x="264" y="18" width="4" height="4" fill="#0f9d58" class="px" style="animation-delay:1.08s"/><rect x="248" y="22" width="4" height="4" fill="#0f9d58" class="px" style="animation-delay:1.00s"/><rect x="248" y="26" width="4" height="4" fill="#0f9d58" class="px" style="animation-delay:1.00s"/><rect x="248" y="30" width="4" height="4" fill="#0f9d58" class="px" style="animation-delay:1.00s"/><rect x="252" y="30" width="4" height="4" fill="#0f9d58" class="px" style="animation-delay:1.02s"/><rect x="256" y="30" width="4" height="4" fill="#0f9d58" class="px" style="animation-delay:1.04s"/><rect x="260" y="30" width="4" height="4" fill="#0f9d58" class="px" style="animation-delay:1.06s"/><rect x="248" y="34" width="4" height="4" fill="#0f9d58" class="px" style="animation-delay:1.00s"/><rect x="248" y="38" width="4" height="4" fill="#0f9d58" class="px" style="animation-delay:1.00s"/><rect x="248" y="42" width="4" height="4" fill="#0f9d58" class="px" style="animation-delay:1.00s"/><rect x="252" y="42" width="4" height="4" fill="#0f9d58" class="px" style="animation-delay:1.02s"/><rect x="256" y="42" width="4" height="4" fill="#0f9d58" class="px" style="animation-delay:1.04s"/><rect x="260" y="42" width="4" height="4" fill="#0f9d58" class="px" style="animation-delay:1.06s"/><rect x="264" y="42" width="4" height="4" fill="#0f9d58" class="px" style="animation-delay:1.08s"/><rect x="276" y="18" width="4" height="4" fill="#0f9d58" class="px" style="animation-delay:1.12s"/><rect x="280" y="18" width="4" height="4" fill="#0f9d58" class="px" style="animation-delay:1.14s"/><rect x="284" y="18" width="4" height="4" fill="#0f9d58" class="px" style="animation-delay:1.16s"/><rect x="272" y="22" width="4" height="4" fill="#0f9d58" class="px" style="animation-delay:1.10s"/><rect x="288" y="22" width="4" height="4" fill="#0f9d58" class="px" style="animation-delay:1.18s"/><rect x="272" y="26" width="4" height="4" fill="#0f9d58" class="px" style="animation-delay:1.10s"/><rect x="272" y="30" width="4" height="4" fill="#0f9d58" class="px" style="animation-delay:1.10s"/><rect x="272" y="34" width="4" height="4" fill="#0f9d58" class="px" style="animation-delay:1.10s"/><rect x="272" y="38" width="4" height="4" fill="#0f9d58" class="px" style="animation-delay:1.10s"/><rect x="288" y="38" width="4" height="4" fill="#0f9d58" class="px" style="animation-delay:1.18s"/><rect x="276" y="42" width="4" height="4" fill="#0f9d58" class="px" style="animation-delay:1.12s"/><rect x="280" y="42" width="4" height="4" fill="#0f9d58" class="px" style="animation-delay:1.14s"/><rect x="284" y="42" width="4" height="4" fill="#0f9d58" class="px" style="animation-delay:1.16s"/><rect x="296" y="18" width="4" height="4" fill="#0f9d58" class="px" style="animation-delay:1.20s"/><rect x="300" y="18" width="4" height="4" fill="#0f9d58" class="px" style="animation-delay:1.22s"/><rect x="304" y="18" width="4" height="4" fill="#0f9d58" class="px" style="animation-delay:1.24s"/><rect x="308" y="18" width="4" height="4" fill="#0f9d58" class="px" style="animation-delay:1.26s"/><rect x="312" y="18" width="4" height="4" fill="#0f9d58" class="px" style="animation-delay:1.28s"/><rect x="304" y="22" width="4" height="4" fill="#0f9d58" class="px" style="animation-delay:1.24s"/><rect x="304" y="26" width="4" height="4" fill="#0f9d58" class="px" style="animation-delay:1.24s"/><rect x="304" y="30" width="4" height="4" fill="#0f9d58" class="px" style="animation-delay:1.24s"/><rect x="304" y="34" width="4" height="4" fill="#0f9d58" class="px" style="animation-delay:1.24s"/><rect x="304" y="38" width="4" height="4" fill="#0f9d58" class="px" style="animation-delay:1.24s"/><rect x="304" y="42" width="4" height="4" fill="#0f9d58" class="px" style="animation-delay:1.24s"/><rect x="324" y="18" width="4" height="4" fill="#0f9d58" class="px" style="animation-delay:1.32s"/><rect x="328" y="18" width="4" height="4" fill="#0f9d58" class="px" style="animation-delay:1.34s"/><rect x="332" y="18" width="4" height="4" fill="#0f9d58" class="px" style="animation-delay:1.36s"/><rect x="336" y="18" width="4" height="4" fill="#0f9d58" class="px" style="animation-delay:1.38s"/><rect x="320" y="22" width="4" height="4" fill="#0f9d58" class="px" style="animation-delay:1.30s"/><rect x="320" y="26" width="4" height="4" fill="#0f9d58" class="px" style="animation-delay:1.30s"/><rect x="324" y="30" width="4" height="4" fill="#0f9d58" class="px" style="animation-delay:1.32s"/><rect x="328" y="30" width="4" height="4" fill="#0f9d58" class="px" style="animation-delay:1.34s"/><rect x="332" y="30" width="4" height="4" fill="#0f9d58" class="px" style="animation-delay:1.36s"/><rect x="336" y="34" width="4" height="4" fill="#0f9d58" class="px" style="animation-delay:1.38s"/><rect x="336" y="38" width="4" height="4" fill="#0f9d58" class="px" style="animation-delay:1.38s"/><rect x="320" y="42" width="4" height="4" fill="#0f9d58" class="px" style="animation-delay:1.30s"/><rect x="324" y="42" width="4" height="4" fill="#0f9d58" class="px" style="animation-delay:1.32s"/><rect x="328" y="42" width="4" height="4" fill="#0f9d58" class="px" style="animation-delay:1.34s"/><rect x="332" y="42" width="4" height="4" fill="#0f9d58" class="px" style="animation-delay:1.36s"/><rect x="372" y="18" width="4" height="4" fill="#0f9d58" class="px" style="animation-delay:1.52s"/><rect x="376" y="18" width="4" height="4" fill="#0f9d58" class="px" style="animation-delay:1.54s"/><rect x="380" y="18" width="4" height="4" fill="#0f9d58" class="px" style="animation-delay:1.56s"/><rect x="376" y="22" width="4" height="4" fill="#0f9d58" class="px" style="animation-delay:1.54s"/><rect x="376" y="26" width="4" height="4" fill="#0f9d58" class="px" style="animation-delay:1.54s"/><rect x="376" y="30" width="4" height="4" fill="#0f9d58" class="px" style="animation-delay:1.54s"/><rect x="376" y="34" width="4" height="4" fill="#0f9d58" class="px" style="animation-delay:1.54s"/><rect x="376" y="38" width="4" height="4" fill="#0f9d58" class="px" style="animation-delay:1.54s"/><rect x="372" y="42" width="4" height="4" fill="#0f9d58" class="px" style="animation-delay:1.52s"/><rect x="376" y="42" width="4" height="4" fill="#0f9d58" class="px" style="animation-delay:1.54s"/><rect x="380" y="42" width="4" height="4" fill="#0f9d58" class="px" style="animation-delay:1.56s"/><rect x="400" y="18" width="4" height="4" fill="#0f9d58" class="px" style="animation-delay:1.64s"/><rect x="400" y="22" width="4" height="4" fill="#0f9d58" class="px" style="animation-delay:1.64s"/><rect x="396" y="26" width="4" height="4" fill="#0f9d58" class="px" style="animation-delay:1.62s"/><rect x="416" y="18" width="4" height="4" fill="#0f9d58" class="px" style="animation-delay:1.70s"/><rect x="432" y="18" width="4" height="4" fill="#0f9d58" class="px" style="animation-delay:1.78s"/><rect x="416" y="22" width="4" height="4" fill="#0f9d58" class="px" style="animation-delay:1.70s"/><rect x="432" y="22" width="4" height="4" fill="#0f9d58" class="px" style="animation-delay:1.78s"/><rect x="416" y="26" width="4" height="4" fill="#0f9d58" class="px" style="animation-delay:1.70s"/><rect x="432" y="26" width="4" height="4" fill="#0f9d58" class="px" style="animation-delay:1.78s"/><rect x="416" y="30" width="4" height="4" fill="#0f9d58" class="px" style="animation-delay:1.70s"/><rect x="432" y="30" width="4" height="4" fill="#0f9d58" class="px" style="animation-delay:1.78s"/><rect x="416" y="34" width="4" height="4" fill="#0f9d58" class="px" style="animation-delay:1.70s"/><rect x="432" y="34" width="4" height="4" fill="#0f9d58" class="px" style="animation-delay:1.78s"/><rect x="420" y="38" width="4" height="4" fill="#0f9d58" class="px" style="animation-delay:1.72s"/><rect x="428" y="38" width="4" height="4" fill="#0f9d58" class="px" style="animation-delay:1.76s"/><rect x="424" y="42" width="4" height="4" fill="#0f9d58" class="px" style="animation-delay:1.74s"/><rect x="440" y="18" width="4" height="4" fill="#0f9d58" class="px" style="animation-delay:1.80s"/><rect x="444" y="18" width="4" height="4" fill="#0f9d58" class="px" style="animation-delay:1.82s"/><rect x="448" y="18" width="4" height="4" fill="#0f9d58" class="px" style="animation-delay:1.84s"/><rect x="452" y="18" width="4" height="4" fill="#0f9d58" class="px" style="animation-delay:1.86s"/><rect x="456" y="18" width="4" height="4" fill="#0f9d58" class="px" style="animation-delay:1.88s"/><rect x="440" y="22" width="4" height="4" fill="#0f9d58" class="px" style="animation-delay:1.80s"/><rect x="440" y="26" width="4" height="4" fill="#0f9d58" class="px" style="animation-delay:1.80s"/><rect x="440" y="30" width="4" height="4" fill="#0f9d58" class="px" style="animation-delay:1.80s"/><rect x="444" y="30" width="4" height="4" fill="#0f9d58" class="px" style="animation-delay:1.82s"/><rect x="448" y="30" width="4" height="4" fill="#0f9d58" class="px" style="animation-delay:1.84s"/><rect x="452" y="30" width="4" height="4" fill="#0f9d58" class="px" style="animation-delay:1.86s"/><rect x="440" y="34" width="4" height="4" fill="#0f9d58" class="px" style="animation-delay:1.80s"/><rect x="440" y="38" width="4" height="4" fill="#0f9d58" class="px" style="animation-delay:1.80s"/><rect x="440" y="42" width="4" height="4" fill="#0f9d58" class="px" style="animation-delay:1.80s"/><rect x="444" y="42" width="4" height="4" fill="#0f9d58" class="px" style="animation-delay:1.82s"/><rect x="448" y="42" width="4" height="4" fill="#0f9d58" class="px" style="animation-delay:1.84s"/><rect x="452" y="42" width="4" height="4" fill="#0f9d58" class="px" style="animation-delay:1.86s"/><rect x="456" y="42" width="4" height="4" fill="#0f9d58" class="px" style="animation-delay:1.88s"/><rect x="488" y="18" width="4" height="4" fill="#0f9d58" class="px" style="animation-delay:2.00s"/><rect x="504" y="18" width="4" height="4" fill="#0f9d58" class="px" style="animation-delay:2.08s"/><rect x="488" y="22" width="4" height="4" fill="#0f9d58" class="px" style="animation-delay:2.00s"/><rect x="504" y="22" width="4" height="4" fill="#0f9d58" class="px" style="animation-delay:2.08s"/><rect x="488" y="26" width="4" height="4" fill="#0f9d58" class="px" style="animation-delay:2.00s"/><rect x="504" y="26" width="4" height="4" fill="#0f9d58" class="px" style="animation-delay:2.08s"/><rect x="488" y="30" width="4" height="4" fill="#0f9d58" class="px" style="animation-delay:2.00s"/><rect x="496" y="30" width="4" height="4" fill="#0f9d58" class="px" style="animation-delay:2.04s"/><rect x="504" y="30" width="4" height="4" fill="#0f9d58" class="px" style="animation-delay:2.08s"/><rect x="488" y="34" width="4" height="4" fill="#0f9d58" class="px" style="animation-delay:2.00s"/><rect x="496" y="34" width="4" height="4" fill="#0f9d58" class="px" style="animation-delay:2.04s"/><rect x="504" y="34" width="4" height="4" fill="#0f9d58" class="px" style="animation-delay:2.08s"/><rect x="488" y="38" width="4" height="4" fill="#0f9d58" class="px" style="animation-delay:2.00s"/><rect x="496" y="38" width="4" height="4" fill="#0f9d58" class="px" style="animation-delay:2.04s"/><rect x="504" y="38" width="4" height="4" fill="#0f9d58" class="px" style="animation-delay:2.08s"/><rect x="492" y="42" width="4" height="4" fill="#0f9d58" class="px" style="animation-delay:2.02s"/><rect x="500" y="42" width="4" height="4" fill="#0f9d58" class="px" style="animation-delay:2.06s"/><rect x="516" y="18" width="4" height="4" fill="#0f9d58" class="px" style="animation-delay:2.12s"/><rect x="520" y="18" width="4" height="4" fill="#0f9d58" class="px" style="animation-delay:2.14s"/><rect x="524" y="18" width="4" height="4" fill="#0f9d58" class="px" style="animation-delay:2.16s"/><rect x="512" y="22" width="4" height="4" fill="#0f9d58" class="px" style="animation-delay:2.10s"/><rect x="528" y="22" width="4" height="4" fill="#0f9d58" class="px" style="animation-delay:2.18s"/><rect x="512" y="26" width="4" height="4" fill="#0f9d58" class="px" style="animation-delay:2.10s"/><rect x="528" y="26" width="4" height="4" fill="#0f9d58" class="px" style="animation-delay:2.18s"/><rect x="512" y="30" width="4" height="4" fill="#0f9d58" class="px" style="animation-delay:2.10s"/><rect x="528" y="30" width="4" height="4" fill="#0f9d58" class="px" style="animation-delay:2.18s"/><rect x="512" y="34" width="4" height="4" fill="#0f9d58" class="px" style="animation-delay:2.10s"/><rect x="528" y="34" width="4" height="4" fill="#0f9d58" class="px" style="animation-delay:2.18s"/><rect x="512" y="38" width="4" height="4" fill="#0f9d58" class="px" style="animation-delay:2.10s"/><rect x="528" y="38" width="4" height="4" fill="#0f9d58" class="px" style="animation-delay:2.18s"/><rect x="516" y="42" width="4" height="4" fill="#0f9d58" class="px" style="animation-delay:2.12s"/><rect x="520" y="42" width="4" height="4" fill="#0f9d58" class="px" style="animation-delay:2.14s"/><rect x="524" y="42" width="4" height="4" fill="#0f9d58" class="px" style="animation-delay:2.16s"/><rect x="536" y="18" width="4" height="4" fill="#0f9d58" class="px" style="animation-delay:2.20s"/><rect x="540" y="18" width="4" height="4" fill="#0f9d58" class="px" style="animation-delay:2.22s"/><rect x="544" y="18" width="4" height="4" fill="#0f9d58" class="px" style="animation-delay:2.24s"/><rect x="548" y="18" width="4" height="4" fill="#0f9d58" class="px" style="animation-delay:2.26s"/><rect x="536" y="22" width="4" height="4" fill="#0f9d58" class="px" style="animation-delay:2.20s"/><rect x="552" y="22" width="4" height="4" fill="#0f9d58" class="px" style="animation-delay:2.28s"/><rect x="536" y="26" width="4" height="4" fill="#0f9d58" class="px" style="animation-delay:2.20s"/><rect x="552" y="26" width="4" height="4" fill="#0f9d58" class="px" style="animation-delay:2.28s"/><rect x="536" y="30" width="4" height="4" fill="#0f9d58" class="px" style="animation-delay:2.20s"/><rect x="540" y="30" width="4" height="4" fill="#0f9d58" class="px" style="animation-delay:2.22s"/><rect x="544" y="30" width="4" height="4" fill="#0f9d58" class="px" style="animation-delay:2.24s"/><rect x="548" y="30" width="4" height="4" fill="#0f9d58" class="px" style="animation-delay:2.26s"/><rect x="536" y="34" width="4" height="4" fill="#0f9d58" class="px" style="animation-delay:2.20s"/><rect x="544" y="34" width="4" height="4" fill="#0f9d58" class="px" style="animation-delay:2.24s"/><rect x="536" y="38" width="4" height="4" fill="#0f9d58" class="px" style="animation-delay:2.20s"/><rect x="548" y="38" width="4" height="4" fill="#0f9d58" class="px" style="animation-delay:2.26s"/><rect x="536" y="42" width="4" height="4" fill="#0f9d58" class="px" style="animation-delay:2.20s"/><rect x="552" y="42" width="4" height="4" fill="#0f9d58" class="px" style="animation-delay:2.28s"/><rect x="560" y="18" width="4" height="4" fill="#0f9d58" class="px" style="animation-delay:2.30s"/><rect x="576" y="18" width="4" height="4" fill="#0f9d58" class="px" style="animation-delay:2.38s"/><rect x="560" y="22" width="4" height="4" fill="#0f9d58" class="px" style="animation-delay:2.30s"/><rect x="572" y="22" width="4" height="4" fill="#0f9d58" class="px" style="animation-delay:2.36s"/><rect x="560" y="26" width="4" height="4" fill="#0f9d58" class="px" style="animation-delay:2.30s"/><rect x="568" y="26" width="4" height="4" fill="#0f9d58" class="px" style="animation-delay:2.34s"/><rect x="560" y="30" width="4" height="4" fill="#0f9d58" class="px" style="animation-delay:2.30s"/><rect x="564" y="30" width="4" height="4" fill="#0f9d58" class="px" style="animation-delay:2.32s"/><rect x="560" y="34" width="4" height="4" fill="#0f9d58" class="px" style="animation-delay:2.30s"/><rect x="568" y="34" width="4" height="4" fill="#0f9d58" class="px" style="animation-delay:2.34s"/><rect x="560" y="38" width="4" height="4" fill="#0f9d58" class="px" style="animation-delay:2.30s"/><rect x="572" y="38" width="4" height="4" fill="#0f9d58" class="px" style="animation-delay:2.36s"/><rect x="560" y="42" width="4" height="4" fill="#0f9d58" class="px" style="animation-delay:2.30s"/><rect x="576" y="42" width="4" height="4" fill="#0f9d58" class="px" style="animation-delay:2.38s"/><rect x="584" y="18" width="4" height="4" fill="#0f9d58" class="px" style="animation-delay:2.40s"/><rect x="588" y="18" width="4" height="4" fill="#0f9d58" class="px" style="animation-delay:2.42s"/><rect x="592" y="18" width="4" height="4" fill="#0f9d58" class="px" style="animation-delay:2.44s"/><rect x="596" y="18" width="4" height="4" fill="#0f9d58" class="px" style="animation-delay:2.46s"/><rect x="600" y="18" width="4" height="4" fill="#0f9d58" class="px" style="animation-delay:2.48s"/><rect x="584" y="22" width="4" height="4" fill="#0f9d58" class="px" style="animation-delay:2.40s"/><rect x="584" y="26" width="4" height="4" fill="#0f9d58" class="px" style="animation-delay:2.40s"/><rect x="584" y="30" width="4" height="4" fill="#0f9d58" class="px" style="animation-delay:2.40s"/><rect x="588" y="30" width="4" height="4" fill="#0f9d58" class="px" style="animation-delay:2.42s"/><rect x="592" y="30" width="4" height="4" fill="#0f9d58" class="px" style="animation-delay:2.44s"/><rect x="596" y="30" width="4" height="4" fill="#0f9d58" class="px" style="animation-delay:2.46s"/><rect x="584" y="34" width="4" height="4" fill="#0f9d58" class="px" style="animation-delay:2.40s"/><rect x="584" y="38" width="4" height="4" fill="#0f9d58" class="px" style="animation-delay:2.40s"/><rect x="584" y="42" width="4" height="4" fill="#0f9d58" class="px" style="animation-delay:2.40s"/><rect x="588" y="42" width="4" height="4" fill="#0f9d58" class="px" style="animation-delay:2.42s"/><rect x="592" y="42" width="4" height="4" fill="#0f9d58" class="px" style="animation-delay:2.44s"/><rect x="596" y="42" width="4" height="4" fill="#0f9d58" class="px" style="animation-delay:2.46s"/><rect x="600" y="42" width="4" height="4" fill="#0f9d58" class="px" style="animation-delay:2.48s"/><rect x="608" y="18" width="4" height="4" fill="#0f9d58" class="px" style="animation-delay:2.50s"/><rect x="612" y="18" width="4" height="4" fill="#0f9d58" class="px" style="animation-delay:2.52s"/><rect x="616" y="18" width="4" height="4" fill="#0f9d58" class="px" style="animation-delay:2.54s"/><rect x="620" y="18" width="4" height="4" fill="#0f9d58" class="px" style="animation-delay:2.56s"/><rect x="608" y="22" width="4" height="4" fill="#0f9d58" class="px" style="animation-delay:2.50s"/><rect x="624" y="22" width="4" height="4" fill="#0f9d58" class="px" style="animation-delay:2.58s"/><rect x="608" y="26" width="4" height="4" fill="#0f9d58" class="px" style="animation-delay:2.50s"/><rect x="624" y="26" width="4" height="4" fill="#0f9d58" class="px" style="animation-delay:2.58s"/><rect x="608" y="30" width="4" height="4" fill="#0f9d58" class="px" style="animation-delay:2.50s"/><rect x="624" y="30" width="4" height="4" fill="#0f9d58" class="px" style="animation-delay:2.58s"/><rect x="608" y="34" width="4" height="4" fill="#0f9d58" class="px" style="animation-delay:2.50s"/><rect x="624" y="34" width="4" height="4" fill="#0f9d58" class="px" style="animation-delay:2.58s"/><rect x="608" y="38" width="4" height="4" fill="#0f9d58" class="px" style="animation-delay:2.50s"/><rect x="624" y="38" width="4" height="4" fill="#0f9d58" class="px" style="animation-delay:2.58s"/><rect x="608" y="42" width="4" height="4" fill="#0f9d58" class="px" style="animation-delay:2.50s"/><rect x="612" y="42" width="4" height="4" fill="#0f9d58" class="px" style="animation-delay:2.52s"/><rect x="616" y="42" width="4" height="4" fill="#0f9d58" class="px" style="animation-delay:2.54s"/><rect x="620" y="42" width="4" height="4" fill="#0f9d58" class="px" style="animation-delay:2.56s"/><rect x="660" y="18" width="4" height="4" fill="#0f9d58" class="px" style="animation-delay:2.72s"/><rect x="664" y="18" width="4" height="4" fill="#0f9d58" class="px" style="animation-delay:2.74s"/><rect x="668" y="18" width="4" height="4" fill="#0f9d58" class="px" style="animation-delay:2.76s"/><rect x="656" y="22" width="4" height="4" fill="#0f9d58" class="px" style="animation-delay:2.70s"/><rect x="672" y="22" width="4" height="4" fill="#0f9d58" class="px" style="animation-delay:2.78s"/><rect x="656" y="26" width="4" height="4" fill="#0f9d58" class="px" style="animation-delay:2.70s"/><rect x="672" y="26" width="4" height="4" fill="#0f9d58" class="px" style="animation-delay:2.78s"/><rect x="656" y="30" width="4" height="4" fill="#0f9d58" class="px" style="animation-delay:2.70s"/><rect x="672" y="30" width="4" height="4" fill="#0f9d58" class="px" style="animation-delay:2.78s"/><rect x="656" y="34" width="4" height="4" fill="#0f9d58" class="px" style="animation-delay:2.70s"/><rect x="672" y="34" width="4" height="4" fill="#0f9d58" class="px" style="animation-delay:2.78s"/><rect x="656" y="38" width="4" height="4" fill="#0f9d58" class="px" style="animation-delay:2.70s"/><rect x="672" y="38" width="4" height="4" fill="#0f9d58" class="px" style="animation-delay:2.78s"/><rect x="660" y="42" width="4" height="4" fill="#0f9d58" class="px" style="animation-delay:2.72s"/><rect x="664" y="42" width="4" height="4" fill="#0f9d58" class="px" style="animation-delay:2.74s"/><rect x="668" y="42" width="4" height="4" fill="#0f9d58" class="px" style="animation-delay:2.76s"/><rect x="680" y="18" width="4" height="4" fill="#0f9d58" class="px" style="animation-delay:2.80s"/><rect x="696" y="18" width="4" height="4" fill="#0f9d58" class="px" style="animation-delay:2.88s"/><rect x="680" y="22" width="4" height="4" fill="#0f9d58" class="px" style="animation-delay:2.80s"/><rect x="696" y="22" width="4" height="4" fill="#0f9d58" class="px" style="animation-delay:2.88s"/><rect x="680" y="26" width="4" height="4" fill="#0f9d58" class="px" style="animation-delay:2.80s"/><rect x="684" y="26" width="4" height="4" fill="#0f9d58" class="px" style="animation-delay:2.82s"/><rect x="696" y="26" width="4" height="4" fill="#0f9d58" class="px" style="animation-delay:2.88s"/><rect x="680" y="30" width="4" height="4" fill="#0f9d58" class="px" style="animation-delay:2.80s"/><rect x="688" y="30" width="4" height="4" fill="#0f9d58" class="px" style="animation-delay:2.84s"/><rect x="696" y="30" width="4" height="4" fill="#0f9d58" class="px" style="animation-delay:2.88s"/><rect x="680" y="34" width="4" height="4" fill="#0f9d58" class="px" style="animation-delay:2.80s"/><rect x="692" y="34" width="4" height="4" fill="#0f9d58" class="px" style="animation-delay:2.86s"/><rect x="696" y="34" width="4" height="4" fill="#0f9d58" class="px" style="animation-delay:2.88s"/><rect x="680" y="38" width="4" height="4" fill="#0f9d58" class="px" style="animation-delay:2.80s"/><rect x="696" y="38" width="4" height="4" fill="#0f9d58" class="px" style="animation-delay:2.88s"/><rect x="680" y="42" width="4" height="4" fill="#0f9d58" class="px" style="animation-delay:2.80s"/><rect x="696" y="42" width="4" height="4" fill="#0f9d58" class="px" style="animation-delay:2.88s"/>
  <rect class="blink" x="708" y="18" width="16" height="28" fill="#0f9d58"/>
  <line x1="740" y1="32" x2="1192" y2="32" stroke="#0f9d58" stroke-opacity=".5" stroke-width="4" stroke-dasharray="4 8" class="dash"/></svg>